# Blender 4.3.2
# www.blender.org
mtllib Mountain.006.mtl
o Mountain.006
v -23.167015 -64.696274 8.382440
v -23.655533 -50.983318 9.072006
v -21.585196 -31.585314 7.159024
v -20.406544 -20.561651 5.831778
v -3.002286 -65.187248 26.548624
v -3.731430 -50.983318 27.052134
v -3.189474 -31.585314 26.763321
v -2.902061 -12.187317 26.688217
v -2.539366 7.210680 26.451052
v -2.120912 26.608683 26.130735
v -9.929598 -68.701851 15.078127
v -13.430447 -50.983318 18.771023
v -12.888461 -31.585314 16.858011
v -13.957053 -13.332314 13.547749
v -11.457115 7.210680 15.422672
v -10.424078 26.608683 15.422672
v 17.974138 -42.667591 45.059322
v 17.974138 -39.308212 45.059322
v 8.776426 -66.430687 28.856934
v 10.415450 -49.873478 36.557285
v 10.415450 -32.339455 37.309856
v 8.776426 -12.187317 32.136261
v 8.776426 7.210680 28.056324
v 8.206532 24.836428 25.970369
v 8.776426 -73.024277 15.422672
v 14.292598 30.120916 21.916777
v 20.536289 -42.667591 45.059322
v 20.536289 -39.308212 45.059322
v 21.308781 -63.841881 28.675079
v 24.811760 -49.873478 35.012932
v 26.101425 -32.339455 35.996555
v 23.997025 -12.187317 30.569733
v 20.319193 7.210680 26.726992
v 18.554464 17.188913 25.190771
v 24.185255 -66.010323 15.422672
v 32.127247 -50.983318 15.422672
v 33.273174 -31.585314 15.422672
v 29.474377 -12.187317 15.422672
v 24.258375 7.210680 15.422672
v 20.481363 24.836428 15.439540
v -1.646876 42.509205 25.741459
v -7.400006 47.787792 17.337025
v -7.017136 65.404694 12.823402
v -4.427612 84.802681 8.507908
v -2.207935 96.783470 6.393224
v 1.360595 42.509205 25.741459
v 9.824335 48.804707 17.032028
v 6.990030 65.404694 12.823402
v 3.244847 84.802681 8.507908
v 0.362486 96.783470 6.393224
v 19.632324 42.168194 8.984775
v -25.821537 -68.137047 -3.975302
v -29.559643 -50.983318 -3.975302
v -25.743216 -31.585314 -3.975302
v -22.506268 -13.332314 -2.643973
v -22.026180 7.210680 -6.695360
v -21.618725 26.608683 -8.473694
v -26.102097 -68.709457 -23.373306
v -29.577673 -50.983318 -23.373306
v -24.397104 -30.392237 -24.884970
v -22.988230 -12.187317 -20.571142
v -22.026180 7.210680 -17.286629
v -21.618725 26.608683 -15.492529
v -23.541063 -65.459473 -35.988747
v -23.673594 -50.983318 -36.212265
v -21.570742 -36.062851 -34.342468
v -10.621577 -76.450279 -3.975302
v -20.007372 -7.629648 4.709572
v -19.539326 7.210680 3.003657
v -18.924713 26.608683 1.225293
v -10.621577 -78.114975 -23.373306
v -10.621577 -23.180285 -32.473564
v -10.621577 -12.187317 -29.152632
v -10.621577 7.210680 -23.858040
v -10.621577 26.608683 -20.342588
v -10.621577 -68.992714 -36.880970
v -10.621577 -50.983318 -38.615166
v -10.621577 -32.879276 -34.806488
v 8.776426 -75.243790 -3.975302
v 17.722502 14.596052 -12.562037
v 16.474277 26.608683 -10.517329
v 9.486094 -70.838646 -24.647266
v 13.873041 -50.983318 -30.750036
v 8.264452 -29.933968 -29.760181
v 8.776426 -12.187317 -25.238306
v 10.264471 7.762305 -19.507170
v 6.775275 26.608683 -18.524349
v 3.493205 -66.985680 -35.234093
v 4.174039 -50.983318 -35.475224
v 1.457140 -35.299065 -34.114422
v 25.788858 -66.930565 -3.975302
v 32.716034 -50.983318 -3.975302
v 31.009108 -31.585314 -3.975302
v 27.063995 -12.187317 -3.975302
v 22.125467 7.762305 -5.247742
v 20.923571 26.608683 -0.818312
v 23.446932 -65.068855 -19.030571
v 25.438980 -50.983318 -21.051048
v 24.198219 -31.585314 -19.296677
v 21.586641 -12.187317 -16.656816
v 19.306585 1.664050 -14.633835
v -21.381586 46.006687 -9.985388
v -20.943165 65.404694 -11.730045
v -20.589500 80.668594 -12.919754
v -21.381586 46.006687 -14.947682
v -20.943165 65.404694 -14.373660
v -20.589500 80.668594 -13.960242
v -18.175125 46.006687 -0.286400
v -16.716152 65.404694 -2.031028
v -14.491081 86.201828 -5.462379
v -5.643189 97.176605 -3.975302
v -10.621577 46.006687 -18.415659
v -10.621577 65.404694 -16.509235
v -11.687070 86.201828 -14.535636
v -5.931377 95.786461 -13.834953
v 15.284970 47.583199 -4.056901
v 10.805175 65.404694 -3.975302
v 4.850984 84.802681 -3.975302
v 0.270635 97.176605 -3.975302
v 4.928872 46.006687 -17.142296
v 2.892569 65.404694 -15.809864
v 0.683546 84.802681 -14.536500
v -0.616699 95.786461 -13.834953
v 19.632324 42.168194 2.354741
vn -0.7358 -0.1832 0.6520
vn -0.5839 -0.1843 0.7906
vn -0.6827 0.0604 0.7282
vn -0.7110 0.1163 0.6935
vn -0.7435 0.0446 0.6673
vn -0.7712 0.1024 0.6283
vn -0.7712 0.0292 0.6359
vn -0.7834 0.0344 0.6206
vn -0.4050 -0.2244 0.8863
vn -0.7318 -0.0245 0.6811
vn -0.5856 -0.0016 0.8106
vn -0.5303 0.0937 0.8426
vn -0.2915 0.1085 0.9504
vn -0.0612 0.0645 0.9960
vn -0.1982 -0.8877 0.4155
vn -0.0000 -0.0000 1.0000
vn 0.0988 -0.4295 0.8977
vn 0.0552 -0.7932 0.6065
vn 0.8861 -0.0762 0.4572
vn 0.0457 0.7717 0.6343
vn 0.0896 0.2611 0.9611
vn 0.1052 0.2085 0.9723
vn 0.1435 0.1407 0.9796
vn 0.3091 -0.8932 0.3266
vn 0.8602 -0.4068 0.3075
vn 0.9381 -0.0709 0.3390
vn 0.9254 0.1836 0.3316
vn 0.9141 0.2418 0.3254
vn 0.9216 0.2032 0.3306
vn 0.6031 0.3768 0.7030
vn -0.7978 0.0506 0.6007
vn 0.0148 0.0212 0.9997
vn 0.5031 0.2720 0.8203
vn -0.0333 0.8303 0.5563
vn 0.0014 0.2471 0.9690
vn -0.0000 0.2172 0.9761
vn -0.0000 0.1738 0.9848
vn 0.7536 0.2961 0.5869
vn -0.9333 -0.1352 0.3327
vn -0.9118 0.1571 0.3794
vn -0.9272 0.1398 0.3474
vn -0.9792 -0.2025 0.0105
vn -0.9755 0.2185 -0.0257
vn -0.9916 0.1286 -0.0143
vn -0.9992 0.0364 0.0183
vn -0.9998 0.0210 -0.0000
vn -0.9392 -0.1075 -0.3261
vn -0.8974 0.1881 -0.3992
vn -0.4402 -0.8300 0.3426
vn -0.8823 0.0677 0.4658
vn -0.8226 0.0663 0.5647
vn -0.9635 0.0680 0.2590
vn -0.8472 0.0602 0.5278
vn -0.9650 0.0490 0.2577
vn -0.4994 -0.8647 0.0535
vn -0.5574 0.2351 -0.7963
vn -0.5271 0.1959 -0.8269
vn -0.4506 0.1257 -0.8838
vn -0.3862 -0.8184 -0.4255
vn -0.1337 -0.0602 -0.9892
vn -0.1398 0.1764 -0.9743
vn -0.4494 0.4903 -0.7468
vn -0.0811 -0.9645 0.2515
vn 0.2076 -0.9762 -0.0631
vn 0.2083 0.2540 -0.9445
vn 0.1908 0.2582 -0.9471
vn 0.6083 0.1695 -0.7754
vn 0.1559 0.1294 -0.9793
vn 0.2311 -0.8315 -0.5052
vn 0.6529 -0.2205 -0.7246
vn 0.1671 -0.0605 -0.9841
vn 0.4368 0.1557 -0.8860
vn 0.1535 0.1615 -0.9749
vn 0.1972 0.3219 -0.9260
vn 0.4256 -0.9004 0.0905
vn 0.8998 -0.4320 0.0611
vn 0.9990 0.0144 -0.0431
vn 0.9739 0.1944 -0.1173
vn 0.9637 0.2453 -0.1059
vn 0.9895 0.1395 -0.0365
vn 0.9005 0.1566 -0.4056
vn 0.4336 -0.8840 -0.1749
vn 0.9120 -0.2903 -0.2898
vn 0.5397 -0.2905 -0.7901
vn 0.9135 0.0874 -0.3973
vn 0.5902 0.1537 -0.7925
vn 0.9009 0.1792 -0.3953
vn 0.5500 0.1880 -0.8138
vn 0.8975 0.2004 -0.3928
vn 0.5534 0.1985 -0.8089
vn 0.7544 0.1929 -0.6275
vn -0.9999 0.0122 -0.0000
vn -0.9997 0.0226 -0.0000
vn -0.9997 0.0232 -0.0000
vn -0.8548 0.0744 0.5136
vn -0.9557 0.0470 0.2907
vn -0.8419 0.1304 0.5236
vn -0.9310 0.0776 0.3568
vn -0.8028 0.2041 0.5603
vn -0.8673 0.1238 0.4821
vn -0.7911 0.3942 0.4678
vn -0.3564 0.0616 -0.9323
vn -0.2563 0.0646 -0.9644
vn -0.1569 0.0621 -0.9857
vn -0.5414 0.8272 -0.1501
vn -0.7986 0.5831 -0.1489
vn 0.9474 0.2282 0.2246
vn 0.9502 0.2571 0.1759
vn 0.9522 0.2977 0.0682
vn -0.0000 0.9993 0.0379
vn 0.7051 0.1859 -0.6843
vn 0.0931 0.0890 -0.9917
vn 0.7911 0.1609 -0.5901
vn 0.0675 0.0865 -0.9940
vn 0.8629 0.1968 -0.4654
vn 0.0314 0.0830 -0.9961
vn 0.9375 0.2435 -0.2486
vn 0.0052 0.0669 -0.9977
vn -0.0000 0.9902 -0.1396
vn 0.9974 0.0673 0.0245
vn 0.8878 0.1728 -0.4267
vn 0.6517 0.7525 0.0952
vt 0.000992 0.082341
vt 0.000992 0.000992
vt 0.082341 0.000992
vt 0.082341 0.082341
vt 0.000992 0.165674
vt 0.000992 0.084326
vt 0.082341 0.084326
vt 0.082341 0.165674
vt 0.165674 0.082341
vt 0.084326 0.082341
vt 0.084326 0.000992
vt 0.165674 0.000992
vt 0.165674 0.165674
vt 0.084326 0.165674
vt 0.084326 0.084326
vt 0.165674 0.084326
vt 0.000992 0.249008
vt 0.000992 0.167659
vt 0.082341 0.167659
vt 0.082341 0.249008
vt 0.084326 0.249008
vt 0.084326 0.167659
vt 0.165674 0.167659
vt 0.165674 0.249008
vt 0.249008 0.082341
vt 0.167659 0.082341
vt 0.167659 0.000992
vt 0.249008 0.000992
vt 0.249008 0.165674
vt 0.167659 0.165674
vt 0.167659 0.084326
vt 0.249008 0.084326
vt 0.249008 0.249008
vt 0.167659 0.249008
vt 0.167659 0.167659
vt 0.249008 0.167659
vt 0.000992 0.332341
vt 0.000992 0.250992
vt 0.082341 0.250992
vt 0.082341 0.332341
vt 0.084326 0.332341
vt 0.084326 0.250992
vt 0.165674 0.250992
vt 0.165674 0.332341
vt 0.167659 0.332341
vt 0.167659 0.250992
vt 0.249008 0.250992
vt 0.249008 0.332341
vt 0.332341 0.082341
vt 0.250993 0.082341
vt 0.250992 0.000992
vt 0.332341 0.000992
vt 0.332341 0.165674
vt 0.250993 0.165674
vt 0.250993 0.084326
vt 0.332341 0.084326
vt 0.332341 0.249008
vt 0.250993 0.249008
vt 0.250993 0.167659
vt 0.332341 0.167659
vt 0.332341 0.332341
vt 0.250992 0.332341
vt 0.250992 0.250992
vt 0.332341 0.250992
vt 0.000992 0.415674
vt 0.000992 0.334326
vt 0.082341 0.334326
vt 0.082341 0.415674
vt 0.084326 0.415674
vt 0.084326 0.334326
vt 0.165674 0.334326
vt 0.165674 0.415674
vt 0.167659 0.415674
vt 0.167659 0.334326
vt 0.249008 0.334326
vt 0.249008 0.415674
vt 0.250992 0.415674
vt 0.250992 0.334326
vt 0.332341 0.334326
vt 0.332341 0.415674
vt 0.415674 0.082341
vt 0.334326 0.082341
vt 0.334326 0.000992
vt 0.415674 0.000992
vt 0.415674 0.165674
vt 0.334326 0.165674
vt 0.334326 0.084326
vt 0.415674 0.084326
vt 0.415674 0.249008
vt 0.334326 0.249008
vt 0.334326 0.167659
vt 0.415674 0.167659
vt 0.415674 0.332341
vt 0.334326 0.332341
vt 0.334326 0.250992
vt 0.415674 0.250992
vt 0.415674 0.415674
vt 0.334326 0.415674
vt 0.334326 0.334326
vt 0.415674 0.334326
vt 0.000992 0.499008
vt 0.000992 0.417659
vt 0.082341 0.417659
vt 0.082341 0.499008
vt 0.084326 0.499008
vt 0.084326 0.417659
vt 0.165674 0.417659
vt 0.165674 0.499008
vt 0.167659 0.499008
vt 0.167659 0.417659
vt 0.249008 0.417659
vt 0.249008 0.499008
vt 0.250993 0.499008
vt 0.250992 0.417659
vt 0.332341 0.417659
vt 0.332341 0.499008
vt 0.334326 0.499008
vt 0.334326 0.417659
vt 0.415674 0.417659
vt 0.415674 0.499008
vt 0.499008 0.082341
vt 0.417659 0.082341
vt 0.417659 0.000992
vt 0.499008 0.000992
vt 0.499008 0.165674
vt 0.417659 0.165674
vt 0.417659 0.084326
vt 0.499008 0.084326
vt 0.499008 0.249008
vt 0.417659 0.249008
vt 0.417659 0.167659
vt 0.499008 0.167659
vt 0.499008 0.332341
vt 0.417659 0.332341
vt 0.417659 0.250993
vt 0.499008 0.250992
vt 0.499008 0.415674
vt 0.417659 0.415674
vt 0.417659 0.334326
vt 0.499008 0.334326
vt 0.499008 0.499008
vt 0.417659 0.499008
vt 0.417659 0.417659
vt 0.499008 0.417659
vt 0.000992 0.582341
vt 0.000992 0.500992
vt 0.082341 0.500992
vt 0.082341 0.582341
vt 0.084326 0.582341
vt 0.084326 0.500992
vt 0.165674 0.500992
vt 0.165674 0.582341
vt 0.167659 0.582341
vt 0.167659 0.500992
vt 0.249008 0.500992
vt 0.249008 0.582341
vt 0.250993 0.582341
vt 0.250993 0.500992
vt 0.332341 0.500992
vt 0.332341 0.582341
vt 0.334326 0.582341
vt 0.334326 0.500992
vt 0.415674 0.500992
vt 0.415674 0.582341
vt 0.417659 0.582341
vt 0.417659 0.500992
vt 0.499008 0.500992
vt 0.499008 0.582341
vt 0.582341 0.082341
vt 0.500992 0.082341
vt 0.500992 0.000992
vt 0.582341 0.000992
vt 0.582341 0.165674
vt 0.500992 0.165674
vt 0.500992 0.084326
vt 0.582341 0.084326
vt 0.582341 0.249008
vt 0.500992 0.249008
vt 0.500992 0.167659
vt 0.582341 0.167659
vt 0.582341 0.332341
vt 0.500992 0.332341
vt 0.500992 0.250992
vt 0.582341 0.250992
vt 0.582341 0.415674
vt 0.500992 0.415674
vt 0.500992 0.334326
vt 0.582341 0.334326
vt 0.582341 0.499008
vt 0.500992 0.499008
vt 0.500992 0.417659
vt 0.582341 0.417659
vt 0.582341 0.582341
vt 0.500992 0.582341
vt 0.500992 0.500992
vt 0.582341 0.500992
vt 0.000992 0.665674
vt 0.000992 0.584326
vt 0.082341 0.584326
vt 0.082341 0.665674
vt 0.084326 0.665674
vt 0.084326 0.584326
vt 0.165674 0.584326
vt 0.165674 0.665674
vt 0.167659 0.665674
vt 0.167659 0.584326
vt 0.249008 0.584326
vt 0.249008 0.665674
vt 0.250992 0.665674
vt 0.250992 0.584326
vt 0.332341 0.584326
vt 0.332341 0.665674
vt 0.334326 0.665674
vt 0.334326 0.584326
vt 0.415674 0.584326
vt 0.415674 0.665674
vt 0.417659 0.665674
vt 0.417659 0.584326
vt 0.499008 0.584326
vt 0.499008 0.665674
vt 0.500992 0.665674
vt 0.500992 0.584326
vt 0.582341 0.584326
vt 0.582341 0.665674
vt 0.665674 0.082341
vt 0.584326 0.082341
vt 0.584326 0.000992
vt 0.665674 0.000992
vt 0.665674 0.165674
vt 0.584326 0.165674
vt 0.584326 0.084326
vt 0.665674 0.084326
vt 0.665674 0.249008
vt 0.584326 0.249008
vt 0.584326 0.167659
vt 0.665674 0.167659
vt 0.665674 0.332341
vt 0.584326 0.332341
vt 0.584326 0.250992
vt 0.665674 0.250992
vt 0.665674 0.415674
vt 0.584326 0.415674
vt 0.584326 0.334326
vt 0.665674 0.334326
vt 0.665674 0.499008
vt 0.584326 0.499008
vt 0.584326 0.417659
vt 0.665674 0.417659
vt 0.665674 0.582341
vt 0.584326 0.582341
vt 0.584326 0.500992
vt 0.665674 0.500992
vt 0.665674 0.665674
vt 0.584326 0.665674
vt 0.584326 0.584326
vt 0.665674 0.584326
vt 0.000992 0.749008
vt 0.000992 0.667659
vt 0.082341 0.667659
vt 0.082341 0.749008
vt 0.084326 0.749008
vt 0.084326 0.667659
vt 0.165674 0.667659
vt 0.165674 0.749008
vt 0.167659 0.749008
vt 0.167659 0.667659
vt 0.249008 0.667659
vt 0.249008 0.749008
vt 0.250992 0.749008
vt 0.250992 0.667659
vt 0.332341 0.667659
vt 0.332341 0.749008
vt 0.334326 0.749008
vt 0.334326 0.667659
vt 0.415674 0.667659
vt 0.415674 0.749008
vt 0.417659 0.749008
vt 0.417659 0.667659
vt 0.499008 0.667659
vt 0.499008 0.749008
vt 0.500992 0.749008
vt 0.500992 0.667659
vt 0.582341 0.667659
vt 0.582341 0.749008
vt 0.584326 0.749008
vt 0.584326 0.667659
vt 0.665674 0.667659
vt 0.665674 0.749008
vt 0.749008 0.082341
vt 0.667659 0.082341
vt 0.667659 0.000992
vt 0.749008 0.000992
vt 0.749008 0.165674
vt 0.667659 0.165674
vt 0.667659 0.084326
vt 0.749008 0.084326
vt 0.749008 0.249008
vt 0.667659 0.249008
vt 0.667659 0.167659
vt 0.749008 0.167659
vt 0.749008 0.332341
vt 0.667659 0.332341
vt 0.667659 0.250993
vt 0.749008 0.250993
vt 0.749008 0.415674
vt 0.667659 0.415674
vt 0.667659 0.334326
vt 0.749008 0.334326
vt 0.749008 0.499008
vt 0.667659 0.499008
vt 0.667659 0.417659
vt 0.749008 0.417659
vt 0.749008 0.582341
vt 0.667659 0.582341
vt 0.667659 0.500992
vt 0.749008 0.500992
vt 0.749008 0.665674
vt 0.667659 0.665674
vt 0.667659 0.584326
vt 0.749008 0.584326
vt 0.749008 0.749008
vt 0.667659 0.749008
vt 0.667659 0.667659
vt 0.749008 0.667659
vt 0.000992 0.832341
vt 0.000992 0.750992
vt 0.082341 0.750992
vt 0.082341 0.832341
vt 0.084326 0.832341
vt 0.084326 0.750992
vt 0.165674 0.750992
vt 0.165674 0.832341
vt 0.167659 0.832341
vt 0.167659 0.750992
vt 0.249008 0.750992
vt 0.249008 0.832341
vt 0.250992 0.832341
vt 0.250992 0.750992
vt 0.332341 0.750992
vt 0.332341 0.832341
vt 0.334326 0.832341
vt 0.334326 0.750992
vt 0.415674 0.750992
vt 0.415674 0.832341
vt 0.417659 0.832341
vt 0.417659 0.750992
vt 0.499008 0.750992
vt 0.499008 0.832341
vt 0.500992 0.832341
vt 0.500992 0.750992
vt 0.582341 0.750992
vt 0.582341 0.832341
vt 0.584326 0.832341
vt 0.584326 0.750992
vt 0.665674 0.750992
vt 0.665674 0.832341
vt 0.667659 0.832341
vt 0.667659 0.750992
vt 0.749008 0.750992
vt 0.749008 0.832341
vt 0.832341 0.082341
vt 0.750992 0.082341
vt 0.750992 0.000992
vt 0.832341 0.000992
vt 0.832341 0.165674
vt 0.750992 0.165674
vt 0.750992 0.084326
vt 0.832341 0.084326
vt 0.832341 0.249008
vt 0.750992 0.249008
vt 0.750992 0.167659
vt 0.832341 0.167659
vt 0.832341 0.332341
vt 0.750992 0.332341
vt 0.750992 0.250993
vt 0.832341 0.250993
vt 0.832341 0.415674
vt 0.750993 0.415674
vt 0.750992 0.334326
vt 0.832341 0.334326
vt 0.832341 0.499008
vt 0.750993 0.499008
vt 0.750993 0.417659
vt 0.832341 0.417659
vt 0.832341 0.582341
vt 0.750993 0.582341
vt 0.750993 0.500992
vt 0.832341 0.500992
vt 0.832341 0.665674
vt 0.750993 0.665674
vt 0.750993 0.584326
vt 0.832341 0.584326
vt 0.832341 0.749008
vt 0.750993 0.749008
vt 0.750993 0.667659
vt 0.832341 0.667659
vt 0.832341 0.832341
vt 0.750993 0.832341
vt 0.750993 0.750992
vt 0.832341 0.750992
vt 0.000992 0.915674
vt 0.000992 0.834326
vt 0.082341 0.834326
vt 0.082341 0.915674
vt 0.084326 0.915674
vt 0.084326 0.834326
vt 0.165674 0.834326
vt 0.165674 0.915674
vt 0.167659 0.915674
vt 0.167659 0.834326
vt 0.249008 0.834326
vt 0.249008 0.915674
vt 0.250992 0.915674
vt 0.250992 0.834326
vt 0.332341 0.834326
vt 0.332341 0.915674
vt 0.334326 0.915674
vt 0.334326 0.834326
vt 0.415674 0.834326
vt 0.415674 0.915674
vt 0.417659 0.915674
vt 0.417659 0.834326
vt 0.499008 0.834326
vt 0.499008 0.915674
vt 0.500992 0.915674
vt 0.500992 0.834326
vt 0.582341 0.834326
vt 0.582341 0.915674
vt 0.584326 0.915674
vt 0.584326 0.834326
vt 0.665674 0.834326
vt 0.665674 0.915674
vt 0.667659 0.915674
vt 0.667659 0.834326
vt 0.749008 0.834326
vt 0.749008 0.915674
vt 0.750992 0.915674
vt 0.750992 0.834326
vt 0.832341 0.834326
vt 0.832341 0.915674
vt 0.915674 0.082341
vt 0.834326 0.082341
vt 0.834326 0.000992
vt 0.915674 0.000992
vt 0.915674 0.165674
vt 0.834326 0.165674
vt 0.834326 0.084326
vt 0.915674 0.084326
vt 0.915674 0.249008
vt 0.834326 0.249008
vt 0.834326 0.167659
vt 0.915674 0.167659
vt 0.915674 0.332341
vt 0.834326 0.332341
vt 0.834326 0.250993
vt 0.915674 0.250992
vt 0.915674 0.415674
vt 0.834326 0.415674
vt 0.834326 0.334326
vt 0.915674 0.334326
vt 0.915674 0.499008
vt 0.834326 0.499008
vt 0.834326 0.417659
vt 0.915674 0.417659
vt 0.915674 0.582341
vt 0.834326 0.582341
vt 0.834326 0.500992
vt 0.915674 0.500992
vt 0.915674 0.665674
vt 0.834326 0.665674
vt 0.834326 0.584326
vt 0.915674 0.584326
vt 0.915674 0.749008
vt 0.834326 0.749008
vt 0.834326 0.667659
vt 0.915674 0.667659
vt 0.915674 0.832341
vt 0.834326 0.832341
vt 0.834326 0.750992
vt 0.915674 0.750992
vt 0.915674 0.915674
vt 0.834326 0.915674
vt 0.834326 0.834326
vt 0.915674 0.834326
vt 0.000992 0.999008
vt 0.000992 0.917659
vt 0.082341 0.917659
vt 0.082341 0.999008
s 0
f 12/1/1 11/2/1 5/3/1 6/4/1
f 12/5/2 2/6/2 1/7/2 11/8/2
f 13/9/3 12/10/3 6/11/3 7/12/3
f 13/13/4 3/14/4 2/15/4 12/16/4
f 14/17/5 13/18/5 7/19/5 8/20/5
f 14/21/6 4/22/6 3/23/6 13/24/6
f 15/25/7 14/26/7 8/27/7 9/28/7
f 16/29/8 15/30/8 9/31/8 10/32/8
f 20/33/9 6/34/9 5/35/9 19/36/9
f 21/37/10 20/38/10 17/39/10 18/40/10
f 21/41/11 7/42/11 6/43/11 20/44/11
f 22/45/12 8/46/12 7/47/12 21/48/12
f 23/49/13 9/50/13 8/51/13 22/52/13
f 24/53/14 10/54/14 9/55/14 23/56/14
f 11/57/15 25/58/15 19/59/15 5/60/15
f 28/61/16 18/62/16 17/63/16 27/64/16
f 30/65/17 20/66/17 19/67/17 29/68/17
f 20/69/18 30/70/18 27/71/18 17/72/18
f 30/73/19 31/74/19 28/75/19 27/76/19
f 31/77/20 21/78/20 18/79/20 28/80/20
f 32/81/21 22/82/21 21/83/21 31/84/21
f 33/85/22 23/86/22 22/87/22 32/88/22
f 34/89/23 24/90/23 23/91/23 33/92/23
f 25/93/24 35/94/24 29/95/24 19/96/24
f 35/97/25 36/98/25 30/99/25 29/100/25
f 36/101/26 37/102/26 31/103/26 30/104/26
f 37/105/27 38/106/27 32/107/27 31/108/27
f 38/109/28 39/110/28 33/111/28 32/112/28
f 39/113/29 40/114/29 34/115/29 33/116/29
f 40/117/30 26/118/30 24/119/30 34/120/30
f 42/121/31 16/122/31 10/123/31 41/124/31
f 46/125/32 41/126/32 10/127/32 24/128/32
f 26/129/33 47/130/33 46/131/33 24/132/33
f 47/133/34 42/134/34 41/135/34 46/136/34
f 48/137/35 43/138/35 42/139/35 47/140/35
f 49/141/36 44/142/36 43/143/36 48/144/36
f 50/145/37 45/146/37 44/147/37 49/148/37
f 51/149/38 47/150/38 26/151/38 40/152/38
f 53/153/39 52/154/39 1/155/39 2/156/39
f 54/157/40 53/158/40 2/159/40 3/160/40
f 55/161/41 54/162/41 3/163/41 4/164/41
f 59/165/42 58/166/42 52/167/42 53/168/42
f 60/169/43 59/170/43 53/171/43 54/172/43
f 61/173/44 60/174/44 54/175/44 55/176/44
f 62/177/45 61/178/45 55/179/45 56/180/45
f 63/181/46 62/182/46 56/183/46 57/184/46
f 65/185/47 64/186/47 58/187/47 59/188/47
f 66/189/48 65/190/48 59/191/48 60/192/48
f 52/193/49 67/194/49 11/195/49 1/196/49
f 68/197/50 55/198/50 4/199/50 14/200/50
f 69/201/51 68/202/51 14/203/51 15/204/51
f 69/205/52 56/206/52 55/207/52 68/208/52
f 70/209/53 69/210/53 15/211/53 16/212/53
f 70/213/54 57/214/54 56/215/54 69/216/54
f 58/217/55 71/218/55 67/219/55 52/220/55
f 61/221/56 73/222/56 72/223/56 60/224/56
f 62/225/57 74/226/57 73/227/57 61/228/57
f 63/229/58 75/230/58 74/231/58 62/232/58
f 64/233/59 76/234/59 71/235/59 58/236/59
f 65/237/60 77/238/60 76/239/60 64/240/60
f 66/241/61 78/242/61 77/243/61 65/244/61
f 78/245/62 66/246/62 60/247/62 72/248/62
f 67/249/63 79/250/63 25/251/63 11/252/63
f 71/253/64 82/254/64 79/255/64 67/256/64
f 73/257/65 85/258/65 84/259/65 72/260/65
f 74/261/66 86/262/66 85/263/66 73/264/66
f 86/265/67 87/266/67 81/267/67 80/268/67
f 75/269/68 87/270/68 86/271/68 74/272/68
f 76/273/69 88/274/69 82/275/69 71/276/69
f 88/277/70 89/278/70 83/279/70 82/280/70
f 77/281/71 89/282/71 88/283/71 76/284/71
f 89/285/72 90/286/72 84/287/72 83/288/72
f 78/289/73 90/290/73 89/291/73 77/292/73
f 90/293/74 78/294/74 72/295/74 84/296/74
f 79/297/75 91/298/75 35/299/75 25/300/75
f 91/301/76 92/302/76 36/303/76 35/304/76
f 92/305/77 93/306/77 37/307/77 36/308/77
f 93/309/78 94/310/78 38/311/78 37/312/78
f 94/313/79 95/314/79 39/315/79 38/316/79
f 95/317/80 96/318/80 40/319/80 39/320/80
f 81/321/81 96/322/81 95/323/81 80/324/81
f 82/325/82 97/326/82 91/327/82 79/328/82
f 97/329/83 98/330/83 92/331/83 91/332/83
f 83/333/84 98/334/84 97/335/84 82/336/84
f 98/337/85 99/338/85 93/339/85 92/340/85
f 84/341/86 99/342/86 98/343/86 83/344/86
f 99/345/87 100/346/87 94/347/87 93/348/87
f 85/349/88 100/350/88 99/351/88 84/352/88
f 100/353/89 101/354/89 95/355/89 94/356/89
f 86/357/90 101/358/90 100/359/90 85/360/90
f 101/361/91 86/362/91 80/363/91 95/364/91
f 105/365/92 63/366/92 57/367/92 102/368/92
f 106/369/93 105/370/93 102/371/93 103/372/93
f 107/373/94 106/374/94 103/375/94 104/376/94
f 108/377/95 70/378/95 16/379/95 42/380/95
f 108/381/96 102/382/96 57/383/96 70/384/96
f 109/385/97 108/386/97 42/387/97 43/388/97
f 109/389/98 103/390/98 102/391/98 108/392/98
f 110/393/99 109/394/99 43/395/99 44/396/99
f 110/397/100 104/398/100 103/399/100 109/400/100
f 111/401/101 110/402/101 44/403/101 45/404/101
f 105/405/102 112/406/102 75/407/102 63/408/102
f 106/409/103 113/410/103 112/411/103 105/412/103
f 107/413/104 114/414/104 113/415/104 106/416/104
f 114/417/105 107/418/105 104/419/105 110/420/105
f 115/421/106 114/422/106 110/423/106 111/424/106
f 116/425/107 117/426/107 48/427/107 47/428/107
f 117/429/108 118/430/108 49/431/108 48/432/108
f 118/433/109 119/434/109 50/435/109 49/436/109
f 119/437/110 111/438/110 45/439/110 50/440/110
f 87/441/111 120/442/111 116/443/111 81/444/111
f 112/445/112 120/446/112 87/447/112 75/448/112
f 120/449/113 121/450/113 117/451/113 116/452/113
f 113/453/114 121/454/114 120/455/114 112/456/114
f 121/457/115 122/458/115 118/459/115 117/460/115
f 114/461/116 122/462/116 121/463/116 113/464/116
f 122/465/117 123/466/117 119/467/117 118/468/117
f 115/469/118 123/470/118 122/471/118 114/472/118
f 123/473/119 115/474/119 111/475/119 119/476/119
f 96/477/120 124/478/120 51/479/120 40/480/120
f 116/481/121 124/482/121 96/483/121 81/484/121
f 124/485/122 116/486/122 47/487/122 51/488/122
