# Blender 4.3.2
# www.blender.org
mtllib Mountain.013.mtl
o Mountain.013
v -67.963120 -24.349873 -10.199011
v -67.963120 -12.373507 -10.199011
v -67.963120 -24.349873 -15.273303
v -67.963120 -12.373507 -15.273303
v -51.813454 -37.578884 -11.842072
v -57.683052 -29.590260 -8.245707
v -58.430225 -6.886043 -7.001430
v -52.190781 11.044160 -10.101229
v -47.921925 22.655636 -11.901199
v -54.030506 -40.534184 -22.000731
v -62.279343 -29.590260 -21.843880
v -60.820641 -6.886043 -21.843880
v -51.683067 10.471754 -21.277786
v -47.921925 22.655636 -14.329821
v -46.875000 -37.578884 -11.842072
v -39.201557 -27.054317 -7.844031
v -37.390442 -8.353845 -3.533423
v -37.390442 11.044160 -8.043080
v -37.390442 23.913406 -11.583984
v -43.248028 -40.534184 -22.000731
v -33.549042 -33.261894 -22.000731
v -44.260235 16.556150 -27.261824
v -37.632706 24.535313 -21.277786
v -9.210497 -38.653587 27.425289
v -9.210497 -35.460350 27.425289
v -9.210497 -38.653587 24.621159
v -10.255873 -28.220470 17.392248
v -11.301220 -11.918090 10.163366
v -17.433882 -20.551947 -3.386796
v -10.634542 -16.856071 -10.176092
v -17.857313 -6.612792 2.218276
v -17.992437 11.044160 -2.606839
v -17.992437 25.890491 -8.978695
v -19.921511 -23.562893 -22.000731
v -10.432839 -9.575576 -23.457230
v -12.401878 11.044160 -28.628708
v -18.743246 26.116982 -21.967024
v 1.405567 -39.132530 27.903736
v 2.641439 -28.497345 27.897388
v 9.931341 -15.341722 26.953518
v 1.405567 -39.132530 24.271786
v 1.405567 -30.494854 14.572769
v -3.000647 -22.528351 23.095369
v 0.906125 -7.163905 17.848312
v 3.180012 11.044160 14.183224
v 7.210955 30.442156 10.725617
v 10.187477 41.438923 7.991105
v 1.405567 -20.795853 3.363550
v -8.119106 1.013905 6.938309
v 2.834454 -9.575576 -6.971240
v -6.518990 11.044160 5.033999
v 8.561522 11.044160 -9.997845
v 2.249122 28.234840 -1.667291
v 10.187477 41.438923 6.494999
v -2.678946 -3.924072 -17.962217
v -1.137480 11.044160 -18.929720
v -4.366651 25.291748 -15.478552
v 20.803570 -40.170433 29.081553
v 20.803570 -27.751841 30.998320
v 20.127535 -8.666970 28.748692
v 26.484787 11.044160 27.643353
v 29.505253 22.742533 26.824743
v 20.803570 -40.170433 22.401243
v 20.803570 -31.792641 12.702256
v 13.210833 -2.409719 25.533230
v 16.785786 11.044160 23.882210
v 22.144974 29.701986 20.649464
v 21.180555 48.679016 12.134254
v 27.929396 69.238159 9.806723
v 20.803570 -22.093643 3.576219
v 20.803570 -8.353845 -3.650099
v 20.803570 11.044160 -5.852312
v 20.803570 30.442156 -0.772804
v 21.180555 48.679016 4.568517
v 27.929396 69.238159 5.693257
v 34.910484 -40.037457 28.995752
v 36.971703 -27.751841 29.942720
v 35.644768 -8.353845 28.967857
v 33.078106 11.044160 27.643353
v 31.297966 22.742533 26.824743
v 40.599926 -39.622314 16.440302
v 46.670704 -27.751841 23.042738
v 33.357368 -35.642979 9.195119
v 45.343758 -8.353845 23.027361
v 42.777107 11.044160 20.216673
v 39.382442 28.958977 16.433626
v 35.487549 49.840153 12.722611
v 33.322601 69.238159 9.806723
v 46.289368 -39.207172 3.113270
v 39.974644 -28.606926 -0.834793
v 40.201576 -8.353845 -5.777806
v 40.201576 11.044160 -1.958579
v 40.681183 29.402517 3.253728
v 35.487549 49.840153 4.387527
v 33.322601 69.238159 5.693257
v 52.018433 -39.207172 10.753483
v 53.685158 -27.751841 13.343752
v 53.766994 -8.353845 13.328343
v 51.914185 11.044160 10.517656
v 50.358414 22.243425 8.021474
v 52.018433 -39.207172 3.113270
v 53.685158 -27.751841 0.225008
v 53.766994 -8.353845 0.338435
v 51.914185 11.044160 3.594905
v 50.358414 22.243425 6.259531
v 29.676378 82.752335 8.025944
v 29.676378 82.752335 6.576151
v 31.648354 82.752335 8.025944
v 31.648354 82.752335 6.576151
v -51.620155 -41.433922 -34.491600
v -52.834808 -27.751841 -35.119595
v -50.077438 -8.353845 -33.387989
v -47.943680 3.624149 -32.182781
v -42.181999 -41.433922 -34.491600
v -36.385773 -28.977808 -36.631020
v -37.390442 -8.353845 -38.361073
v -37.632706 10.471754 -34.416557
v -31.328232 22.836416 -32.772900
v -21.456421 -23.329121 -35.358727
v -18.910854 -8.353845 -36.672802
v -22.100866 11.044160 -34.733444
v -25.709778 22.836416 -32.772900
vn -1.0000 -0.0000 -0.0000
vn -0.2509 -0.0401 0.9672
vn -0.7395 -0.6085 0.2878
vn -0.5183 -0.8456 0.1276
vn -0.7156 0.0301 -0.6979
vn -0.5394 0.8395 0.0647
vn -0.9137 0.4023 0.0573
vn -0.9431 0.3289 -0.0490
vn 0.0255 -0.3815 0.9240
vn -0.0931 -0.1300 0.9871
vn -0.1398 0.2202 0.9654
vn -0.1021 0.2290 0.9681
vn -0.0000 -0.9602 0.2793
vn 0.5758 -0.6680 0.4715
vn -0.6241 0.6235 -0.4708
vn -0.1321 0.9898 0.0534
vn -0.9974 -0.0477 0.0543
vn -0.9057 -0.0213 0.4234
vn -0.1776 -0.2791 0.9437
vn -0.2782 0.2337 0.9317
vn -0.2077 0.3294 0.9211
vn 0.3691 -0.8847 0.2845
vn 0.6934 -0.7060 -0.1442
vn -0.0945 0.9947 0.0413
vn -0.0435 0.0043 0.9990
vn -0.0451 -0.9990 -0.0000
vn -0.1851 -0.6580 -0.7299
vn -0.5444 0.4895 0.6812
vn -0.4420 0.3526 0.8248
vn -0.6487 0.3290 0.6863
vn -0.0114 -0.8798 -0.4751
vn 0.3322 -0.7845 -0.5237
vn -0.5986 0.3294 0.7302
vn -0.6623 0.2314 0.7126
vn -0.5497 0.2246 0.8046
vn -0.7744 0.4057 0.4855
vn -0.4096 0.4385 0.8000
vn -0.8996 0.3460 0.2664
vn 0.5916 -0.6506 -0.4761
vn 0.7434 -0.2226 -0.6308
vn 0.6415 -0.1229 -0.7572
vn 0.7081 0.4260 -0.5631
vn 0.4934 0.4232 -0.7599
vn -0.0039 0.9950 -0.0998
vn -0.1134 -0.0760 0.9906
vn -0.2034 0.1377 0.9694
vn -0.0534 -0.9986 -0.0000
vn -0.1082 -0.7474 -0.6556
vn -0.4693 0.2131 0.8569
vn -0.3246 0.1745 0.9296
vn -0.5709 0.2374 0.7860
vn -0.4170 0.2324 0.8787
vn -0.5402 0.2732 0.7960
vn -0.5128 0.3316 0.7919
vn -0.0777 -0.7214 -0.6881
vn 0.0758 -0.5767 -0.8135
vn 0.2429 -0.1598 -0.9568
vn 0.1254 0.3604 -0.9243
vn -0.1673 0.4261 -0.8891
vn -0.5500 0.8351 -0.0000
vn -0.9501 0.3119 -0.0000
vn 0.0379 -0.1182 0.9923
vn 0.0255 0.0848 0.9961
vn -0.0108 0.0630 0.9980
vn -0.0000 0.0698 0.9976
vn 0.0171 -0.9997 -0.0165
vn 0.7175 -0.4161 0.5586
vn -0.2329 -0.8304 -0.5061
vn 0.5510 0.0589 0.8324
vn 0.5600 0.1607 0.8127
vn 0.6488 0.2263 0.7265
vn 0.1669 0.7681 0.6182
vn 0.1049 0.3033 0.9471
vn -0.0375 0.1342 0.9902
vn -0.4339 -0.7667 -0.4732
vn -0.3755 -0.6298 -0.6799
vn -0.2115 -0.3282 -0.9206
vn 0.0454 0.0416 -0.9981
vn 0.1976 0.2555 -0.9464
vn 0.9739 0.2182 0.0633
vn 0.1094 0.1774 -0.9780
vn 0.9938 0.1109 -0.0000
vn -0.0128 0.0622 -0.9980
vn 0.5757 -0.4579 0.6774
vn 0.7822 0.0256 0.6225
vn 0.7294 0.1788 0.6603
vn 0.6926 0.2627 0.6718
vn 0.0194 -0.9997 -0.0145
vn 0.9896 -0.1440 -0.0000
vn 0.0646 -0.2830 -0.9569
vn 1.0000 -0.0042 -0.0000
vn 0.2561 -0.1188 -0.9593
vn 0.9955 0.0951 -0.0000
vn 0.4121 0.1825 -0.8927
vn 0.9905 0.1376 -0.0000
vn 0.4301 0.2471 -0.8683
vn 0.5694 0.8188 0.0738
vn -0.9917 0.1282 -0.0000
vn -0.0000 0.1306 0.9914
vn 0.9924 0.1229 -0.0000
vn -0.0000 0.0652 -0.9979
vn -0.0000 1.0000 -0.0000
vn -0.8513 -0.3349 -0.4039
vn -0.7724 0.1031 -0.6267
vn -0.7380 0.3194 -0.5944
vn -0.0000 -0.9974 0.0718
vn 0.7732 -0.6211 -0.1280
vn -0.0625 -0.0942 -0.9936
vn -0.2169 0.0095 -0.9762
vn -0.3416 0.1753 -0.9234
vn -0.6176 0.4272 -0.6604
vn -0.5408 0.5742 -0.6146
vn 0.4700 -0.8569 -0.2117
vn 0.8552 -0.3882 -0.3435
vn 0.1029 -0.0892 -0.9907
vn 0.7290 0.0388 -0.6834
vn 0.0372 0.1553 -0.9872
vn 0.5968 0.4370 -0.6729
vn -0.0189 0.1496 -0.9886
vn -0.0689 0.9741 -0.2155
vt 0.001065 0.089844
vt 0.001065 0.001065
vt 0.089844 0.001065
vt 0.089844 0.089844
vt 0.001065 0.180753
vt 0.001065 0.091974
vt 0.089844 0.091974
vt 0.089844 0.180753
vt 0.180753 0.089844
vt 0.091974 0.089844
vt 0.091974 0.001065
vt 0.180753 0.001065
vt 0.180753 0.180753
vt 0.091974 0.180753
vt 0.091974 0.091974
vt 0.180753 0.091974
vt 0.001065 0.271662
vt 0.001065 0.182884
vt 0.089844 0.182884
vt 0.089844 0.271662
vt 0.091974 0.271662
vt 0.091974 0.182884
vt 0.180753 0.182884
vt 0.180753 0.271662
vt 0.271662 0.089844
vt 0.182884 0.089844
vt 0.182884 0.001065
vt 0.271662 0.001065
vt 0.271662 0.180753
vt 0.182884 0.180753
vt 0.182884 0.091974
vt 0.271662 0.091974
vt 0.271662 0.271662
vt 0.182884 0.271662
vt 0.182884 0.182884
vt 0.271662 0.182884
vt 0.001065 0.362571
vt 0.001065 0.273793
vt 0.089844 0.273793
vt 0.089844 0.362571
vt 0.091974 0.362571
vt 0.091974 0.273793
vt 0.180753 0.273793
vt 0.180753 0.362571
vt 0.182884 0.362571
vt 0.182884 0.273793
vt 0.271662 0.273793
vt 0.271662 0.362571
vt 0.362571 0.089844
vt 0.273793 0.089844
vt 0.273793 0.001065
vt 0.362571 0.001065
vt 0.362571 0.180753
vt 0.273793 0.180753
vt 0.273793 0.091974
vt 0.362571 0.091974
vt 0.362571 0.271662
vt 0.273793 0.271662
vt 0.273793 0.182884
vt 0.362571 0.182884
vt 0.362571 0.362571
vt 0.273793 0.362571
vt 0.273793 0.273793
vt 0.362571 0.273793
vt 0.001065 0.453480
vt 0.001065 0.364702
vt 0.089844 0.364702
vt 0.089844 0.453480
vt 0.091974 0.453480
vt 0.091974 0.364702
vt 0.180753 0.364702
vt 0.180753 0.453480
vt 0.182884 0.453480
vt 0.182884 0.364702
vt 0.271662 0.364702
vt 0.271662 0.453480
vt 0.273793 0.453480
vt 0.273793 0.364702
vt 0.362571 0.364702
vt 0.362571 0.453480
vt 0.453480 0.089844
vt 0.364702 0.089844
vt 0.364702 0.001065
vt 0.453480 0.001065
vt 0.453480 0.180753
vt 0.364702 0.180753
vt 0.364702 0.091974
vt 0.453480 0.091974
vt 0.453480 0.271662
vt 0.364702 0.271662
vt 0.364702 0.182884
vt 0.453480 0.182884
vt 0.453480 0.362571
vt 0.364702 0.362571
vt 0.364702 0.273793
vt 0.453480 0.273793
vt 0.453480 0.453480
vt 0.364702 0.453480
vt 0.364702 0.364702
vt 0.453480 0.364702
vt 0.001065 0.544389
vt 0.001065 0.455611
vt 0.089844 0.455611
vt 0.089844 0.544389
vt 0.091974 0.544389
vt 0.091974 0.455611
vt 0.180753 0.455611
vt 0.180753 0.544389
vt 0.182884 0.544389
vt 0.182884 0.455611
vt 0.271662 0.455611
vt 0.271662 0.544389
vt 0.273793 0.544389
vt 0.273793 0.455611
vt 0.362571 0.455611
vt 0.362571 0.544389
vt 0.364702 0.544389
vt 0.364702 0.455611
vt 0.453480 0.455611
vt 0.453480 0.544389
vt 0.544389 0.089844
vt 0.455611 0.089844
vt 0.455611 0.001065
vt 0.544389 0.001065
vt 0.544389 0.180753
vt 0.455611 0.180753
vt 0.455611 0.091974
vt 0.544389 0.091974
vt 0.544389 0.271662
vt 0.455611 0.271662
vt 0.455611 0.182884
vt 0.544389 0.182884
vt 0.544389 0.362571
vt 0.455611 0.362571
vt 0.455611 0.273793
vt 0.544389 0.273793
vt 0.544389 0.453480
vt 0.455611 0.453480
vt 0.455611 0.364702
vt 0.544389 0.364702
vt 0.544389 0.544389
vt 0.455611 0.544389
vt 0.455611 0.455611
vt 0.544389 0.455611
vt 0.001065 0.635298
vt 0.001065 0.546520
vt 0.089844 0.546520
vt 0.089844 0.635298
vt 0.091974 0.635298
vt 0.091974 0.546520
vt 0.180753 0.546520
vt 0.180753 0.635298
vt 0.182884 0.635298
vt 0.182884 0.546520
vt 0.271662 0.546520
vt 0.271662 0.635298
vt 0.273793 0.635298
vt 0.273793 0.546520
vt 0.362571 0.546520
vt 0.362571 0.635298
vt 0.364702 0.635298
vt 0.364702 0.546520
vt 0.453480 0.546520
vt 0.453480 0.635298
vt 0.455611 0.635298
vt 0.455611 0.546520
vt 0.544389 0.546520
vt 0.544389 0.635298
vt 0.635298 0.089844
vt 0.546520 0.089844
vt 0.546520 0.001065
vt 0.635298 0.001065
vt 0.635298 0.180753
vt 0.546520 0.180753
vt 0.546520 0.091974
vt 0.635298 0.091974
vt 0.635298 0.271662
vt 0.546520 0.271662
vt 0.546520 0.182884
vt 0.635298 0.182884
vt 0.635298 0.362571
vt 0.546520 0.362571
vt 0.546520 0.273793
vt 0.635298 0.273793
vt 0.635298 0.453480
vt 0.546520 0.453480
vt 0.546520 0.364702
vt 0.635298 0.364702
vt 0.635298 0.544389
vt 0.546520 0.544389
vt 0.546520 0.455611
vt 0.635298 0.455611
vt 0.635298 0.635298
vt 0.546520 0.635298
vt 0.546520 0.546520
vt 0.635298 0.546520
vt 0.001065 0.726207
vt 0.001065 0.637429
vt 0.089844 0.637429
vt 0.089844 0.726207
vt 0.091974 0.726207
vt 0.091974 0.637429
vt 0.180753 0.637429
vt 0.180753 0.726207
vt 0.182884 0.726207
vt 0.182884 0.637429
vt 0.271662 0.637429
vt 0.271662 0.726207
vt 0.273793 0.726207
vt 0.273793 0.637429
vt 0.362571 0.637429
vt 0.362571 0.726207
vt 0.364702 0.726207
vt 0.364702 0.637429
vt 0.453480 0.637429
vt 0.453480 0.726207
vt 0.455611 0.726207
vt 0.455611 0.637429
vt 0.544389 0.637429
vt 0.544389 0.726207
vt 0.546520 0.726207
vt 0.546520 0.637429
vt 0.635298 0.637429
vt 0.635298 0.726207
vt 0.726207 0.089844
vt 0.637429 0.089844
vt 0.637429 0.001065
vt 0.726207 0.001065
vt 0.726207 0.180753
vt 0.637429 0.180753
vt 0.637429 0.091974
vt 0.726207 0.091974
vt 0.726207 0.271662
vt 0.637429 0.271662
vt 0.637429 0.182884
vt 0.726207 0.182884
vt 0.726207 0.362571
vt 0.637429 0.362571
vt 0.637429 0.273793
vt 0.726207 0.273793
vt 0.726207 0.453480
vt 0.637429 0.453480
vt 0.637429 0.364702
vt 0.726207 0.364702
vt 0.726207 0.544389
vt 0.637429 0.544389
vt 0.637429 0.455611
vt 0.726207 0.455611
vt 0.726207 0.635298
vt 0.637429 0.635298
vt 0.637429 0.546520
vt 0.726207 0.546520
vt 0.726207 0.726207
vt 0.637429 0.726207
vt 0.637429 0.637429
vt 0.726207 0.637429
vt 0.001065 0.817116
vt 0.001065 0.728338
vt 0.089844 0.728338
vt 0.089844 0.817116
vt 0.091974 0.817116
vt 0.091974 0.728338
vt 0.180753 0.728338
vt 0.180753 0.817116
vt 0.182884 0.817116
vt 0.182884 0.728338
vt 0.271662 0.728338
vt 0.271662 0.817116
vt 0.273793 0.817116
vt 0.273793 0.728338
vt 0.362571 0.728338
vt 0.362571 0.817116
vt 0.364702 0.817116
vt 0.364702 0.728338
vt 0.453480 0.728338
vt 0.453480 0.817116
vt 0.455611 0.817116
vt 0.455611 0.728338
vt 0.544389 0.728338
vt 0.544389 0.817116
vt 0.546520 0.817116
vt 0.546520 0.728338
vt 0.635298 0.728338
vt 0.635298 0.817116
vt 0.637429 0.817116
vt 0.637429 0.728338
vt 0.726207 0.728338
vt 0.726207 0.817116
vt 0.817116 0.089844
vt 0.728338 0.089844
vt 0.728338 0.001065
vt 0.817116 0.001065
vt 0.817116 0.180753
vt 0.728338 0.180753
vt 0.728338 0.091974
vt 0.817116 0.091974
vt 0.817116 0.271662
vt 0.728338 0.271662
vt 0.728338 0.182884
vt 0.817116 0.182884
vt 0.817116 0.362571
vt 0.728338 0.362571
vt 0.728338 0.273793
vt 0.817116 0.273793
vt 0.817116 0.453480
vt 0.728338 0.453480
vt 0.728338 0.364702
vt 0.817116 0.364702
vt 0.817116 0.544389
vt 0.728338 0.544389
vt 0.728338 0.455611
vt 0.817116 0.455611
vt 0.817116 0.635298
vt 0.728338 0.635298
vt 0.728338 0.546520
vt 0.817116 0.546520
vt 0.817116 0.726207
vt 0.728338 0.726207
vt 0.728338 0.637429
vt 0.817116 0.637429
vt 0.817116 0.817116
vt 0.728338 0.817116
vt 0.728338 0.728338
vt 0.817116 0.728338
vt 0.001065 0.908026
vt 0.001065 0.819247
vt 0.089844 0.819247
vt 0.089844 0.908026
vt 0.091974 0.908026
vt 0.091974 0.819247
vt 0.180753 0.819247
vt 0.180753 0.908026
vt 0.182884 0.908026
vt 0.182884 0.819247
vt 0.271662 0.819247
vt 0.271662 0.908026
vt 0.273793 0.908026
vt 0.273793 0.819247
vt 0.362571 0.819247
vt 0.362571 0.908026
vt 0.364702 0.908026
vt 0.364702 0.819247
vt 0.453480 0.819247
vt 0.453480 0.908026
vt 0.455611 0.908026
vt 0.455611 0.819247
vt 0.544389 0.819247
vt 0.544389 0.908026
vt 0.546520 0.908026
vt 0.546520 0.819247
vt 0.635298 0.819247
vt 0.635298 0.908026
vt 0.637429 0.908026
vt 0.637429 0.819247
vt 0.726207 0.819247
vt 0.726207 0.908026
vt 0.728338 0.908026
vt 0.728338 0.819247
vt 0.817116 0.819247
vt 0.817116 0.908026
vt 0.908026 0.089844
vt 0.819247 0.089844
vt 0.819247 0.001065
vt 0.908026 0.001065
vt 0.908026 0.180753
vt 0.819247 0.180753
vt 0.819247 0.091974
vt 0.908026 0.091974
vt 0.908026 0.271662
vt 0.819247 0.271662
vt 0.819247 0.182884
vt 0.908026 0.182884
vt 0.908026 0.362571
vt 0.819247 0.362571
vt 0.819247 0.273793
vt 0.908026 0.273793
vt 0.908026 0.453480
vt 0.819247 0.453480
vt 0.819247 0.364702
vt 0.908026 0.364702
vt 0.908026 0.544389
vt 0.819247 0.544389
vt 0.819247 0.455611
vt 0.908026 0.455611
vt 0.908026 0.635298
vt 0.819247 0.635298
vt 0.819247 0.546520
vt 0.908026 0.546520
vt 0.908026 0.726207
vt 0.819247 0.726207
vt 0.819247 0.637429
vt 0.908026 0.637429
vt 0.908026 0.817116
vt 0.819247 0.817116
vt 0.819247 0.728338
vt 0.908026 0.728338
vt 0.908026 0.908025
vt 0.819247 0.908025
vt 0.819247 0.819247
vt 0.908026 0.819247
vt 0.001065 0.998935
vt 0.001065 0.910156
vt 0.089844 0.910156
vt 0.089844 0.998935
vt 0.091974 0.998935
vt 0.091974 0.910156
vt 0.180753 0.910156
vt 0.180753 0.998935
vt 0.182884 0.998935
vt 0.182884 0.910156
vt 0.271662 0.910156
vt 0.271662 0.998935
vt 0.273793 0.998935
vt 0.273793 0.910156
vt 0.362571 0.910156
vt 0.362571 0.998935
vt 0.364702 0.998935
vt 0.364702 0.910156
vt 0.453480 0.910156
vt 0.453480 0.998935
vt 0.455611 0.998935
vt 0.455611 0.910156
vt 0.544389 0.910156
vt 0.544389 0.998935
vt 0.546520 0.998935
vt 0.546520 0.910156
vt 0.635298 0.910156
vt 0.635298 0.998935
vt 0.637429 0.998935
vt 0.637429 0.910156
vt 0.726207 0.910156
vt 0.726207 0.998935
vt 0.728338 0.998935
vt 0.728338 0.910156
vt 0.817116 0.910156
vt 0.817116 0.998935
vt 0.819247 0.998935
vt 0.819247 0.910156
vt 0.908026 0.910156
vt 0.908026 0.998935
vt 0.998935 0.089844
vt 0.910156 0.089844
vt 0.910156 0.001065
vt 0.998935 0.001065
vt 0.998935 0.180753
vt 0.910156 0.180753
vt 0.910156 0.091974
vt 0.998935 0.091974
vt 0.998935 0.271662
vt 0.910156 0.271662
vt 0.910156 0.182884
vt 0.998935 0.182884
vt 0.998935 0.362571
vt 0.910156 0.362571
vt 0.910156 0.273793
vt 0.998935 0.273793
vt 0.998935 0.453480
vt 0.910156 0.453480
vt 0.910156 0.364702
vt 0.998935 0.364702
vt 0.998935 0.544389
vt 0.910156 0.544389
vt 0.910156 0.455611
vt 0.998935 0.455611
vt 0.998935 0.635298
vt 0.910156 0.635298
vt 0.910156 0.546520
vt 0.998935 0.546520
vt 0.998935 0.726207
vt 0.910156 0.726207
vt 0.910156 0.637429
vt 0.998935 0.637429
vt 0.998935 0.817116
vt 0.910156 0.817116
vt 0.910156 0.728338
vt 0.998935 0.728338
vt 0.998935 0.908026
vt 0.910156 0.908026
vt 0.910156 0.819247
vt 0.998935 0.819247
s 0
f 4/1/1 3/2/1 1/3/1 2/4/1
f 7/5/2 2/6/2 1/7/2 6/8/2
f 11/9/3 10/10/3 5/11/3 6/12/3
f 3/13/4 11/14/4 6/15/4 1/16/4
f 4/17/5 12/18/5 11/19/5 3/20/5
f 12/21/6 4/22/6 2/23/6 7/24/6
f 13/25/7 12/26/7 7/27/7 8/28/7
f 14/29/8 13/30/8 8/31/8 9/32/8
f 16/33/9 6/34/9 5/35/9 15/36/9
f 17/37/10 7/38/10 6/39/10 16/40/10
f 18/41/11 8/42/11 7/43/11 17/44/11
f 19/45/12 9/46/12 8/47/12 18/48/12
f 10/49/13 20/50/13 15/51/13 5/52/13
f 20/53/14 21/54/14 16/55/14 15/56/14
f 14/57/15 23/58/15 22/59/15 13/60/15
f 23/61/16 14/62/16 9/63/16 19/64/16
f 27/65/17 26/66/17 24/67/17 25/68/17
f 31/69/18 29/70/18 27/71/18 28/72/18
f 31/73/19 17/74/19 16/75/19 29/76/19
f 32/77/20 18/78/20 17/79/20 31/80/20
f 33/81/21 19/82/21 18/83/21 32/84/21
f 21/85/22 34/86/22 29/87/22 16/88/22
f 34/89/23 35/90/23 30/91/23 29/92/23
f 37/93/24 23/94/24 19/95/24 33/96/24
f 39/97/25 25/98/25 24/99/25 38/100/25
f 26/101/26 41/102/26 38/103/26 24/104/26
f 27/105/27 42/106/27 41/107/27 26/108/27
f 43/109/28 27/110/28 25/111/28 39/112/28
f 44/113/29 43/114/29 39/115/29 40/116/29
f 44/117/30 28/118/30 27/119/30 43/120/30
f 29/121/31 48/122/31 42/123/31 27/124/31
f 30/125/32 50/126/32 48/127/32 29/128/32
f 49/129/33 31/130/33 28/131/33 44/132/33
f 51/133/34 49/134/34 44/135/34 45/136/34
f 51/137/35 32/138/35 31/139/35 49/140/35
f 53/141/36 51/142/36 45/143/36 46/144/36
f 53/145/37 33/146/37 32/147/37 51/148/37
f 54/149/38 53/150/38 46/151/38 47/152/38
f 35/153/39 55/154/39 50/155/39 30/156/39
f 55/157/40 56/158/40 52/159/40 50/160/40
f 36/161/41 56/162/41 55/163/41 35/164/41
f 56/165/42 57/166/42 53/167/42 52/168/42
f 37/169/43 57/170/43 56/171/43 36/172/43
f 57/173/44 37/174/44 33/175/44 53/176/44
f 59/177/45 39/178/45 38/179/45 58/180/45
f 60/181/46 40/182/46 39/183/46 59/184/46
f 41/185/47 63/186/47 58/187/47 38/188/47
f 42/189/48 64/190/48 63/191/48 41/192/48
f 65/193/49 44/194/49 40/195/49 60/196/49
f 66/197/50 65/198/50 60/199/50 61/200/50
f 66/201/51 45/202/51 44/203/51 65/204/51
f 67/205/52 66/206/52 61/207/52 62/208/52
f 67/209/53 46/210/53 45/211/53 66/212/53
f 68/213/54 47/214/54 46/215/54 67/216/54
f 48/217/55 70/218/55 64/219/55 42/220/55
f 50/221/56 71/222/56 70/223/56 48/224/56
f 52/225/57 72/226/57 71/227/57 50/228/57
f 53/229/58 73/230/58 72/231/58 52/232/58
f 54/233/59 74/234/59 73/235/59 53/236/59
f 74/237/60 54/238/60 47/239/60 68/240/60
f 75/241/61 74/242/61 68/243/61 69/244/61
f 77/245/62 59/246/62 58/247/62 76/248/62
f 78/249/63 60/250/63 59/251/63 77/252/63
f 79/253/64 61/254/64 60/255/64 78/256/64
f 80/257/65 62/258/65 61/259/65 79/260/65
f 63/261/66 81/262/66 76/263/66 58/264/66
f 81/265/67 82/266/67 77/267/67 76/268/67
f 64/269/68 83/270/68 81/271/68 63/272/68
f 82/273/69 84/274/69 78/275/69 77/276/69
f 84/277/70 85/278/70 79/279/70 78/280/70
f 85/281/71 86/282/71 80/283/71 79/284/71
f 86/285/72 67/286/72 62/287/72 80/288/72
f 87/289/73 68/290/73 67/291/73 86/292/73
f 88/293/74 69/294/74 68/295/74 87/296/74
f 90/297/75 89/298/75 81/299/75 83/300/75
f 70/301/76 90/302/76 83/303/76 64/304/76
f 71/305/77 91/306/77 90/307/77 70/308/77
f 72/309/78 92/310/78 91/311/78 71/312/78
f 73/313/79 93/314/79 92/315/79 72/316/79
f 93/317/80 94/318/80 87/319/80 86/320/80
f 74/321/81 94/322/81 93/323/81 73/324/81
f 94/325/82 95/326/82 88/327/82 87/328/82
f 75/329/83 95/330/83 94/331/83 74/332/83
f 97/333/84 82/334/84 81/335/84 96/336/84
f 98/337/85 84/338/85 82/339/85 97/340/85
f 99/341/86 85/342/86 84/343/86 98/344/86
f 100/345/87 86/346/87 85/347/87 99/348/87
f 89/349/88 101/350/88 96/351/88 81/352/88
f 101/353/89 102/354/89 97/355/89 96/356/89
f 90/357/90 102/358/90 101/359/90 89/360/90
f 102/361/91 103/362/91 98/363/91 97/364/91
f 91/365/92 103/366/92 102/367/92 90/368/92
f 103/369/93 104/370/93 99/371/93 98/372/93
f 92/373/94 104/374/94 103/375/94 91/376/94
f 104/377/95 105/378/95 100/379/95 99/380/95
f 93/381/96 105/382/96 104/383/96 92/384/96
f 105/385/97 93/386/97 86/387/97 100/388/97
f 107/389/98 75/390/98 69/391/98 106/392/98
f 108/393/99 106/394/99 69/395/99 88/396/99
f 95/397/100 109/398/100 108/399/100 88/400/100
f 107/401/101 109/402/101 95/403/101 75/404/101
f 109/405/102 107/406/102 106/407/102 108/408/102
f 111/409/103 110/410/103 10/411/103 11/412/103
f 112/413/104 111/414/104 11/415/104 12/416/104
f 113/417/105 112/418/105 12/419/105 13/420/105
f 110/421/106 114/422/106 20/423/106 10/424/106
f 114/425/107 115/426/107 21/427/107 20/428/107
f 111/429/108 115/430/108 114/431/108 110/432/108
f 112/433/109 116/434/109 115/435/109 111/436/109
f 113/437/110 117/438/110 116/439/110 112/440/110
f 117/441/111 113/442/111 13/443/111 22/444/111
f 118/445/112 117/446/112 22/447/112 23/448/112
f 115/449/113 119/450/113 34/451/113 21/452/113
f 119/453/114 120/454/114 35/455/114 34/456/114
f 116/457/115 120/458/115 119/459/115 115/460/115
f 120/461/116 121/462/116 36/463/116 35/464/116
f 117/465/117 121/466/117 120/467/117 116/468/117
f 121/469/118 122/470/118 37/471/118 36/472/118
f 118/473/119 122/474/119 121/475/119 117/476/119
f 122/477/120 118/478/120 23/479/120 37/480/120
