# Blender 4.3.2
# www.blender.org
mtllib Mountain.010.mtl
o Mountain.010
v -34.547241 -10.598389 9.066650
v -34.547241 8.156097 9.066650
v -34.547241 18.233868 9.066650
v -25.937485 -10.598389 13.872070
v -15.325821 -10.598389 28.288071
v -15.325821 -10.598389 18.677490
v -25.937485 8.156097 13.872070
v -24.936401 18.233868 12.270256
v -15.325821 8.156097 28.288071
v -15.325821 24.841461 28.288071
v -15.325821 8.156097 18.677490
v -15.325821 24.841461 13.872070
v -24.936401 41.526825 9.066650
v -24.936401 58.212189 9.066650
v -10.520401 41.526825 28.288071
v -5.714981 58.212189 28.288071
v -10.520401 41.526825 9.066650
v -5.714981 58.212189 9.066650
v -24.936401 74.897552 9.066650
v -24.936401 95.120056 9.066650
v -5.714981 74.897552 28.288071
v -5.714981 91.582916 28.288071
v -5.714981 74.897552 9.066650
v -8.918602 95.120056 9.066650
v -5.714981 108.268280 28.288071
v -5.714981 123.952301 28.288071
v -10.520401 108.268280 12.603790
v -12.122208 123.952301 18.677490
v -15.325821 141.639008 13.872070
v -10.520401 158.324371 9.066650
v -5.714981 172.006241 9.066650
v -34.547241 -10.598389 -4.081573
v -34.547241 -10.598389 -20.766937
v -34.547241 8.156097 -4.081573
v -34.547241 18.233868 -10.155014
v -34.547241 8.156097 -20.766937
v -34.547241 18.233868 -19.765594
v -34.547241 -10.598389 -38.987274
v -34.547241 8.156097 -34.181854
v -34.547241 18.233868 -29.376434
v -24.936401 -20.209225 -0.544189
v -24.936401 -10.598389 -0.544189
v -24.936401 -20.209225 -20.766937
v -24.936401 -10.598389 -20.766937
v -9.252121 -20.209225 -5.349594
v -9.252121 -10.598389 -5.349594
v -9.252121 -20.209225 -20.766937
v -24.936401 18.233868 -10.155014
v -24.936401 18.233868 -19.765594
v -24.936401 -20.209225 -29.376434
v -24.936401 -10.598389 -35.783661
v -9.252121 -20.209225 -34.181854
v -9.252121 -8.529266 -36.584564
v -25.937485 8.156097 -36.584564
v -24.936401 18.233868 -35.783661
v -9.252121 8.156097 -38.987274
v -9.252121 24.841461 -36.584564
v -34.547241 37.455544 -10.155014
v -34.547241 37.455544 -19.765594
v -24.936401 37.455544 -10.155014
v -24.936401 58.212189 -4.081573
v -24.936401 37.455544 -19.765594
v -24.936401 58.212189 -20.766937
v -5.714981 66.287796 -19.765594
v -24.936401 74.897552 -4.081573
v -24.936401 95.120056 -0.544189
v -24.936401 75.898636 -19.765594
v -24.936401 91.582916 -19.765594
v -15.325821 95.120056 -0.544189
v -10.520401 75.898636 -19.765594
v -15.325821 89.914383 -19.765594
v -24.936401 41.526825 -34.181854
v -24.936401 58.212189 -29.376434
v -9.252121 41.526825 -31.779144
v -5.714981 66.287796 -29.376434
v -24.936401 75.898636 -29.376434
v -10.520401 75.898636 -29.376434
v -24.936401 108.268280 -0.544189
v -24.936401 124.953644 -0.544189
v -24.936401 108.268280 -19.765594
v -24.936401 124.953644 -19.765594
v -15.325821 108.268280 -0.544189
v -15.325821 124.953644 -0.544189
v -9.252121 108.268280 -19.765594
v -9.252121 124.953644 -19.765594
v -24.936401 133.563141 -0.544189
v -24.936401 133.563141 -19.765594
v -15.325821 133.563141 -3.747787
v -12.122208 157.132568 -5.349594
v -15.325821 133.563141 -19.765594
v -5.714981 172.006241 -2.946899
v 13.506683 8.623287 47.509743
v 13.506683 24.841461 47.509743
v 24.118607 8.623287 42.704330
v 24.118607 24.841461 45.107040
v 7.433243 -5.792969 28.288071
v 7.433243 -8.195679 12.603790
v 23.117264 -0.987553 28.288071
v 23.117264 -7.394773 9.066650
v 13.506683 8.623287 28.288071
v 13.506683 24.841461 28.288071
v 23.117264 8.623287 28.288071
v 23.117264 8.623287 9.066650
v 32.728104 8.623287 37.898911
v 32.728104 24.841461 42.704330
v 32.728104 -10.598389 9.066650
v 32.728104 8.623287 29.289154
v 32.728104 24.841461 29.289154
v 32.728104 8.623287 9.066650
v 32.728104 24.841461 12.603790
v 13.506683 37.455544 47.509743
v 23.117264 37.455544 47.509735
v 23.117264 66.287796 47.509743
v 13.506683 37.455544 28.288071
v 7.433243 58.212189 28.288071
v 23.117264 37.455544 28.288071
v 23.117264 66.287796 28.288071
v 23.117264 42.260956 12.603790
v 23.117264 58.212189 12.603790
v 7.433243 74.897552 28.288071
v 13.506683 85.509216 28.288071
v 13.506683 85.509216 9.066650
v 23.117264 74.897552 28.288071
v 23.117264 85.509216 28.288071
v 23.117264 74.897552 12.603790
v 23.117264 85.509216 9.066650
v 32.728104 41.526825 47.509743
v 32.728104 66.287796 47.509743
v 32.728104 37.455544 28.288071
v 32.728104 66.287796 28.288071
v 32.728104 42.260956 12.603790
v 8.701263 108.268280 28.288071
v 3.895859 123.952301 28.288071
v 10.303070 114.341721 9.066650
v 10.303070 123.952301 18.677490
v 23.117264 114.341721 9.066650
v 13.506683 141.639008 13.872070
v 8.701263 158.324371 9.066650
v 3.895859 172.006241 9.066650
v 3.895859 -20.209225 -10.155014
v 3.895859 -10.598389 -10.155014
v 8.701263 -20.209225 -20.766937
v 8.701263 -5.792969 -20.766937
v 24.118607 -10.598389 -4.081573
v 23.117264 -7.394773 -19.765594
v 13.506683 27.844704 -19.765594
v 23.117264 8.156097 -19.765594
v 23.117264 27.844704 -19.765594
v 13.506683 -20.209225 -38.987274
v 13.506683 -0.987553 -35.783661
v 23.117264 -0.987553 -29.376434
v 7.433243 8.156097 -34.181854
v 13.506683 27.844704 -32.580048
v 23.117264 8.156097 -29.376434
v 23.117264 27.844704 -29.376434
v 32.728104 -10.598389 -4.081573
v 32.728104 -10.598389 -19.765594
v 32.728104 8.156097 -4.081573
v 32.728104 24.841461 -4.081573
v 32.728104 8.156097 -19.765594
v 32.728104 24.841461 -19.765594
v 13.506683 56.676964 -10.155014
v 8.701263 41.526825 -19.765594
v 8.701263 61.482376 -19.765594
v 23.117264 42.260956 -4.081573
v 23.117264 56.676964 -10.155014
v 23.117264 37.455544 -19.765594
v 23.117264 56.676964 -19.765594
v 13.506683 74.897552 -10.155014
v 13.506683 91.582916 -5.349594
v 13.506683 74.897552 -19.765594
v 13.506683 91.582916 -19.765594
v 23.117264 74.897552 -10.155014
v 23.117264 91.582916 -5.349594
v 8.701263 41.526825 -29.376434
v 3.895859 66.287796 -29.376434
v 32.728104 42.260956 -4.081573
v 32.728104 37.455544 -19.765594
v 10.303070 114.341721 -0.544189
v 8.701263 124.953644 -4.081573
v 8.701263 108.268280 -19.765594
v 3.895859 124.953644 -19.765594
v 23.117264 114.341721 -0.544189
v 10.303070 133.563141 -10.155014
v 8.701263 158.324371 -10.155014
v 3.895859 133.563141 -19.765594
v 3.895859 172.006241 -5.349594
vn -1.0000 -0.0000 -0.0000
vn -0.3614 0.2299 0.9036
vn -0.4007 0.0923 0.9116
vn -0.4125 -0.0000 0.9109
vn -0.4874 -0.0000 0.8732
vn -0.9609 0.2768 -0.0000
vn -0.0000 -0.0000 1.0000
vn -0.9935 -0.0862 0.0749
vn -0.1222 0.2091 0.9702
vn -0.9071 -0.1242 0.4021
vn 0.2929 -0.0000 0.9561
vn -0.0000 -1.0000 -0.0000
vn -0.1386 -0.3787 -0.9151
vn -0.1225 0.1225 -0.9849
vn -0.4200 0.2625 -0.8687
vn -0.0922 -0.0922 -0.9915
vn 0.0437 0.1072 -0.9933
vn -0.0000 1.0000 -0.0000
vn -0.0000 -0.0000 -1.0000
vn 0.0287 0.1689 -0.9852
vn 0.8944 0.4472 -0.0000
vn 0.0171 0.1582 -0.9873
vn 0.1617 0.1805 0.9702
vn 0.3208 -0.0700 0.9446
vn 0.1970 -0.9506 0.2399
vn 1.0000 -0.0000 -0.0000
vn 0.3783 -0.2008 0.9036
vn -0.0000 0.9561 0.2929
vn 0.1175 -0.0895 0.9890
vn 0.1775 -0.2294 0.9570
vn 0.9566 0.0748 0.2815
vn 0.9110 -0.0000 0.4125
vn 0.0148 -0.9571 -0.2894
vn 0.3019 -0.0078 -0.9533
vn -0.1724 -0.9805 -0.0946
vn 0.9613 -0.0261 0.2742
vn 0.0635 -0.9129 -0.4032
vn 0.3962 0.2099 -0.8938
vn 0.1925 0.9622 0.1925
vn -0.0000 0.2768 -0.9609
vn -0.0000 0.9561 -0.2929
vn 0.9707 0.1043 -0.2166
vn 0.9509 -0.1444 -0.2738
vn 0.9435 0.3314 -0.0000
vn 0.9575 0.1975 -0.2101
vn 0.8913 -0.2223 -0.3951
vn 0.1678 -0.9814 0.0932
vn -0.0000 0.2768 0.9609
vn -0.0000 0.2622 0.9650
vn 0.3433 -0.0000 0.9392
vn -0.0919 0.0258 -0.9954
vn 0.2122 0.0719 -0.9746
vn 0.1403 0.0023 -0.9901
vn 0.0867 0.0505 -0.9950
vn 0.1925 0.9623 0.1925
vn 0.1300 0.2720 -0.9535
vn -0.2340 -0.0245 -0.9719
vn -0.2324 0.2503 -0.9399
vn 0.0112 -0.9881 0.1535
vn -0.1721 -0.9786 0.1127
vn -0.9673 -0.0922 0.2365
vn -0.9810 0.1940 -0.0071
vn -0.9906 -0.0892 0.1033
vn -0.9312 0.3623 0.0401
vn 0.9946 0.0927 -0.0464
vn 0.9851 0.1408 -0.0993
vn 0.9759 -0.2069 -0.0690
vn -0.9734 -0.0778 0.2155
vn 0.9861 0.1531 0.0653
vn 0.9745 0.2081 -0.0840
vn -0.0000 0.2066 -0.9784
vn -0.8913 -0.1134 0.4391
vn 0.0834 -0.9950 0.0556
vt 0.037331 0.619443
vt 0.032164 0.557393
vt 0.085734 0.552902
vt 0.073044 0.616449
vt 0.654695 0.760580
vt 0.615359 0.756002
vt 0.623121 0.693888
vt 0.655665 0.722691
vt 0.686616 0.764231
vt 0.691281 0.726917
vt 0.043139 0.689188
vt 0.078852 0.686194
vt 0.646013 0.830020
vt 0.606678 0.825442
vt 0.677935 0.833671
vt 0.026261 0.495152
vt 0.020358 0.432912
vt 0.091785 0.426923
vt 0.097688 0.489164
vt 0.666473 0.636223
vt 0.613087 0.629549
vt 0.603015 0.565545
vt 0.674197 0.574444
vt 0.015191 0.370862
vt 0.010024 0.308812
vt 0.080847 0.289796
vt 0.086618 0.364873
vt 0.681920 0.512665
vt 0.610739 0.503766
vt 0.631964 0.430374
vt 0.691281 0.437790
vt 0.004857 0.246762
vt 0.000000 0.188435
vt 0.036695 0.185696
vt 0.063876 0.242066
vt 0.381808 0.827599
vt 0.404477 0.789992
vt 0.440316 0.789992
vt 0.444029 0.827599
vt 0.987625 0.773716
vt 0.951760 0.773696
vt 0.951760 0.698284
vt 0.987625 0.698304
vt 0.882604 0.994063
vt 0.882574 0.935523
vt 0.918435 0.935299
vt 0.918465 0.993838
vt 0.937636 0.642285
vt 0.865475 0.620181
vt 0.882622 0.564217
vt 0.937636 0.581069
vt 0.153666 0.323564
vt 0.212230 0.315950
vt 0.212133 0.359117
vt 0.153409 0.358378
vt 0.153666 0.216058
vt 0.212230 0.191521
vt 0.212327 0.254119
vt 0.149963 0.253764
vt 0.000000 0.819455
vt 0.000000 0.757186
vt 0.035866 0.757188
vt 0.035866 0.832659
vt 0.117543 0.215054
vt 0.117736 0.253396
vt 0.951760 0.642285
vt 0.987625 0.666198
vt 0.834754 0.610770
vt 0.834754 0.549554
vt 0.476155 0.789992
vt 0.494054 0.827599
vt 0.381769 0.897585
vt 0.443990 0.897585
vt 0.511935 0.897585
vt 0.117929 0.324091
vt 0.000000 0.689188
vt 0.035866 0.701146
vt 0.727148 0.974431
vt 0.727148 0.914663
vt 0.763009 0.938585
vt 0.763009 0.974446
vt 0.595751 0.358645
vt 0.573146 0.281187
vt 0.635367 0.281187
vt 0.631589 0.358645
vt 0.573181 0.218922
vt 0.560032 0.143458
vt 0.631703 0.156658
vt 0.631670 0.215186
vt 0.691282 0.658643
vt 0.727147 0.664847
vt 0.745080 0.717099
vt 0.691282 0.717124
vt 0.153409 0.065971
vt 0.225140 0.035827
vt 0.212037 0.128542
vt 0.153602 0.128951
vt 0.189271 0.682340
vt 0.153411 0.682355
vt 0.153411 0.646494
vt 0.189271 0.646479
vt 0.667472 0.281187
vt 0.685357 0.343452
vt 0.035861 0.994053
vt 0.000000 0.994068
vt 0.000000 0.940278
vt 0.035861 0.940263
vt 0.153409 0.000025
vt 0.207207 0.000000
vt 0.667509 0.215186
vt 0.117543 0.683162
vt 0.117543 0.646494
vt 0.153411 0.646479
vt 0.153411 0.683147
vt 0.404518 0.718262
vt 0.440356 0.718262
vt 0.631549 0.430374
vt 0.691281 0.430374
vt 0.440334 0.969309
vt 0.404466 0.969309
vt 0.404466 0.897585
vt 0.440334 0.897585
vt 0.691282 0.914679
vt 0.727148 0.914663
vt 0.727148 0.986334
vt 0.691282 0.986350
vt 0.560059 0.094393
vt 0.560094 0.032128
vt 0.631773 0.032128
vt 0.631738 0.094393
vt 0.973506 0.557705
vt 0.937639 0.557705
vt 0.937639 0.495446
vt 0.973506 0.495445
vt 0.691282 0.534214
vt 0.749813 0.534188
vt 0.749813 0.596402
vt 0.691282 0.596429
vt 0.949664 0.680032
vt 0.892009 0.695780
vt 0.882574 0.661183
vt 0.951760 0.642285
vt 0.560112 -0.000000
vt 0.631791 -0.000000
vt 0.937636 0.463095
vt 0.973506 0.463320
vt 0.691282 0.502113
vt 0.727147 0.502096
vt 0.322806 0.904356
vt 0.283198 0.904020
vt 0.283198 0.843672
vt 0.322804 0.843839
vt 0.156851 0.940142
vt 0.156758 0.881672
vt 0.215320 0.868455
vt 0.215566 0.940020
vt 0.440342 0.646604
vt 0.453542 0.586144
vt 0.515813 0.586147
vt 0.515813 0.646608
vt 0.251063 0.903684
vt 0.251064 0.843505
vt 0.547800 0.789996
vt 0.547800 0.718262
vt 0.583666 0.718265
vt 0.583666 0.793735
vt 0.603015 0.941304
vt 0.603015 0.880783
vt 0.674694 0.880743
vt 0.674694 0.941264
vt 0.511935 0.861728
vt 0.511935 0.789994
vt 0.551537 0.843798
vt 0.565880 0.586149
vt 0.547945 0.646609
vt 0.511935 0.861728
vt 0.571650 0.861728
vt 0.571647 0.933464
vt 0.535817 0.933464
vt 0.749815 0.484132
vt 0.691282 0.466202
vt 0.691282 0.430340
vt 0.727149 0.430340
vt 0.404466 0.957355
vt 0.368598 0.969309
vt 0.368598 0.897585
vt 0.404466 0.897585
vt 0.583666 0.825866
vt 0.238347 0.628562
vt 0.238347 0.569096
vt 0.296882 0.538993
vt 0.296882 0.646479
vt 0.727149 0.322755
vt 0.691282 0.322755
vt 0.691282 0.215170
vt 0.749815 0.245303
vt 0.238347 0.506894
vt 0.225146 0.467333
vt 0.296882 0.467336
vt 0.296882 0.506896
vt 0.749815 0.183043
vt 0.691282 0.183044
vt 0.691282 0.143447
vt 0.727149 0.143447
vt 0.286923 0.976077
vt 0.286923 0.904356
vt 0.322782 0.904371
vt 0.322782 0.976092
vt 0.286935 0.796772
vt 0.251066 0.781582
vt 0.251063 0.689189
vt 0.286931 0.689188
vt 0.964134 0.000017
vt 1.000000 0.000000
vt 1.000000 0.107506
vt 0.964134 0.107522
vt 0.942358 0.462414
vt 0.942725 0.403525
vt 0.978586 0.403540
vt 0.978219 0.462429
vt 0.882574 0.886224
vt 0.882574 0.778631
vt 0.954253 0.778591
vt 0.954253 0.886184
vt 0.251063 0.976077
vt 0.251063 0.904356
vt 0.286922 0.904371
vt 0.286923 0.976092
vt 0.512077 0.539121
vt 0.512077 0.431635
vt 0.583814 0.431638
vt 0.583814 0.523947
vt 0.440334 0.969307
vt 0.440334 0.897585
vt 0.476195 0.897600
vt 0.476195 0.969322
vt 0.322802 0.796771
vt 0.453542 0.521204
vt 0.603015 0.833711
vt 0.674694 0.833671
vt 0.440335 0.216090
vt 0.476195 0.180256
vt 0.512085 0.179132
vt 0.512081 0.238440
vt 0.821944 0.925884
vt 0.874955 0.917039
vt 0.864630 0.958930
vt 0.829290 0.964827
vt 0.143465 0.796799
vt 0.161583 0.757071
vt 0.215320 0.760854
vt 0.218933 0.819471
vt 0.297001 0.179646
vt 0.332738 0.179119
vt 0.332738 0.252531
vt 0.274401 0.253324
vt 0.332738 0.648341
vt 0.332738 0.586138
vt 0.391272 0.586141
vt 0.391272 0.648344
vt 0.251063 0.760941
vt 0.251063 0.819473
vt 0.871928 0.135496
vt 0.903165 0.156368
vt 0.885564 0.216040
vt 0.851158 0.205909
vt 0.809926 0.858932
vt 0.882574 0.858932
vt 0.179701 0.700903
vt 0.215566 0.724818
vt 0.954253 0.851990
vt 0.954253 0.778591
vt 0.990122 0.778592
vt 0.990122 0.851991
vt 0.071722 0.988062
vt 0.071722 0.952201
vt 0.107581 0.940263
vt 0.107581 0.988077
vt 0.332738 0.286625
vt 0.297130 0.287662
vt 0.332738 0.718258
vt 0.391272 0.718260
vt 0.954253 0.886077
vt 0.990122 0.909965
vt 0.865780 0.283112
vt 0.834754 0.261524
vt 0.117543 0.646472
vt 0.117543 0.574814
vt 0.153410 0.574816
vt 0.176076 0.628560
vt 0.855805 -0.000000
vt 0.902343 0.032382
vt 0.882066 0.101124
vt 0.834754 0.071367
vt 0.584358 0.987621
vt 0.548498 0.987621
vt 0.548154 0.933464
vt 0.584373 0.951761
vt 0.332751 0.363715
vt 0.332738 0.301512
vt 0.386539 0.301503
vt 0.368618 0.363709
vt 0.846680 0.727937
vt 0.882545 0.728014
vt 0.882574 0.790994
vt 0.846709 0.790917
vt 0.942725 0.341267
vt 0.942358 0.283112
vt 0.978219 0.283127
vt 0.978586 0.341282
vt 0.924132 0.092831
vt 0.916472 -0.000000
vt 0.953747 0.015736
vt 0.959878 0.089877
vt 0.332779 0.412888
vt 0.368633 0.431635
vt 0.882398 0.858932
vt 0.846532 0.858855
vt 0.837523 0.125365
vt 0.332738 0.539113
vt 0.391272 0.521201
vt 0.916472 0.145487
vt 0.964134 0.141547
vt 0.916472 0.111256
vt 0.332741 0.238471
vt 0.332745 0.175430
vt 0.391262 0.176258
vt 0.404466 0.216097
vt 0.332738 0.143334
vt 0.368583 0.144445
vt 0.071732 0.940263
vt 0.071732 0.904396
vt 0.834754 0.432082
vt 0.727149 0.369823
vt 0.834754 0.369823
vt 0.834754 0.502063
vt 0.816820 0.307563
vt 0.798885 0.245303
vt 0.798885 0.183043
vt 0.798885 0.120783
vt 0.798885 0.058523
vt 0.745083 0.058524
vt 0.763017 0.000000
vt 0.798885 -0.000000
vt 0.368598 0.957338
vt 0.332738 0.981260
vt 0.332738 0.897585
vt 0.368598 0.921477
vt 0.942358 0.396762
vt 0.834754 0.396762
vt 0.852684 0.334165
vt 0.924421 0.334165
vt 0.930406 0.463095
vt 0.846713 0.463095
vt 0.870618 0.283112
vt 0.906487 0.283112
vt 0.882604 0.886449
vt 0.918465 0.886224
vt 0.902250 0.500157
vt 0.934863 0.528903
vt 0.297259 0.359844
vt 0.842488 0.463095
vt 0.834745 0.658577
vt 0.834745 0.720791
vt 0.261006 0.035811
vt 0.278939 0.128128
vt 0.816812 0.770819
vt 0.763013 0.752926
vt 0.548154 0.987622
vt 0.511935 0.969325
vt 0.511949 0.933464
vt 0.547810 0.933464
vt 0.798879 0.534165
vt 0.816812 0.596371
vt 0.702408 0.826912
vt 0.780269 0.822405
vt 0.787187 0.914663
vt 0.691282 0.914663
vt 0.951760 0.778591
vt 0.910878 0.764975
vt 0.798879 0.502063
vt 0.725652 0.770819
vt 0.761616 0.770819
vt 0.032130 0.886460
vt 0.094398 0.814730
vt 0.332777 0.827599
vt 0.332798 0.789992
vt 0.332738 0.897585
vt 0.000000 0.868524
vt 0.787187 0.854495
vt 0.787187 0.770819
vt 0.823048 0.770834
vt 0.823048 0.842556
vt 0.524080 0.343452
vt 0.524115 0.281187
vt 0.524150 0.218922
vt 0.524192 0.143458
vt 0.798869 0.974430
vt 0.763009 0.950537
vt 0.763009 0.914678
vt 0.798869 0.914663
vt 0.512085 0.430374
vt 0.595710 0.430374
vt 0.440342 0.718262
vt 0.251063 0.868542
vt 0.153410 0.506890
vt 0.171344 0.444688
vt 0.108304 0.176111
vt 0.113471 0.238161
vt 0.049566 0.118552
vt 0.061520 0.054814
vt 0.115705 0.054818
vt 0.117543 0.143095
vt 0.056547 0.003743
vt 0.101190 0.000000
vt 0.071722 0.988076
vt 0.035861 0.988091
vt 0.035861 0.940278
vt 0.071722 0.940263
vt 0.368569 0.051856
vt 0.440305 0.051844
vt 0.458236 0.114882
vt 0.386509 0.000009
vt 0.440311 0.000000
vt 0.973506 0.606767
vt 0.937639 0.606767
vt 0.440346 0.324137
vt 0.512082 0.324124
vt 0.952339 0.253072
vt 0.916472 0.253072
vt 0.916472 0.145487
vt 0.964295 0.145486
vt 0.834754 0.642285
vt 0.882574 0.642388
vt 0.117543 0.287057
vt 0.189278 0.359844
vt 0.225146 0.359846
vt 0.954253 0.963756
vt 0.954253 0.909965
vt 0.990114 0.918945
vt 0.990114 0.963771
s 0
f 9/1/1 10/2/1 12/3/1 11/4/1
f 7/5/2 11/6/2 12/7/2 8/8/2
f 2/9/3 7/5/3 8/8/3 3/10/3
f 5/11/1 9/1/1 11/4/1 6/12/1
f 4/13/4 6/14/4 11/6/4 7/5/4
f 1/15/5 4/13/5 7/5/5 2/9/5
f 15/16/6 16/17/6 18/18/6 17/19/6
f 13/20/7 17/21/7 18/22/7 14/23/7
f 21/24/8 22/25/8 24/26/8 23/27/8
f 19/28/7 23/29/7 24/30/7 20/31/7
f 16/17/1 21/24/1 23/27/1 18/18/1
f 14/23/7 18/22/7 23/29/7 19/28/7
f 10/2/6 15/16/6 17/19/6 12/3/6
f 8/8/9 12/7/9 17/21/9 13/20/9
f 25/32/10 26/33/10 28/34/10 27/35/10
f 34/36/1 35/37/1 37/38/1 36/39/1
f 41/40/1 42/41/1 44/42/1 43/43/1
f 41/44/11 45/45/11 46/46/11 42/47/11
f 41/48/12 43/49/12 47/50/12 45/51/12
f 51/52/13 53/53/13 52/54/13 50/55/13
f 55/56/14 57/57/14 56/58/14 54/59/14
f 32/60/12 33/61/12 44/62/12 42/63/12
f 40/64/15 55/56/15 54/59/15 39/65/15
f 43/43/1 44/42/1 51/66/1 50/67/1
f 43/49/12 50/68/12 52/69/12 47/50/12
f 36/39/1 37/38/1 40/70/1 39/71/1
f 32/72/1 34/36/1 36/39/1 33/73/1
f 54/59/16 56/58/16 53/53/16 51/52/16
f 33/73/1 36/39/1 39/71/1 38/74/1
f 39/65/17 54/59/17 51/52/17 38/75/17
f 33/61/12 38/76/12 51/77/12 44/62/12
f 49/78/18 55/79/18 40/80/18 37/81/18
f 60/82/1 61/83/1 63/84/1 62/85/1
f 65/86/1 66/87/1 68/88/1 67/89/1
f 68/90/19 71/91/19 70/92/19 67/93/19
f 73/94/20 75/95/20 74/96/20 72/97/20
f 60/98/18 62/99/18 59/100/18 58/101/18
f 62/85/1 63/84/1 73/102/1 72/103/1
f 70/104/18 77/105/18 76/106/18 67/107/18
f 61/83/1 65/86/1 67/89/1 63/84/1
f 76/108/19 77/109/19 75/95/19 73/94/19
f 63/84/1 67/89/1 76/110/1 73/102/1
f 75/111/21 77/112/21 70/113/21 64/114/21
f 35/37/1 58/115/1 59/116/1 37/38/1
f 72/97/22 74/96/22 57/57/22 55/56/22
f 49/117/1 62/85/1 72/103/1 55/118/1
f 35/119/7 48/120/7 60/121/7 58/122/7
f 59/123/19 62/124/19 49/125/19 37/126/19
f 78/127/1 79/128/1 81/129/1 80/130/1
f 78/131/7 82/132/7 83/133/7 79/134/7
f 81/135/19 85/136/19 84/137/19 80/138/19
f 88/139/18 90/140/18 87/141/18 86/142/18
f 79/128/1 86/143/1 87/144/1 81/129/1
f 79/134/23 83/133/23 88/145/23 86/146/23
f 87/147/19 90/148/19 85/136/19 81/135/19
f 92/149/24 94/150/24 95/151/24 93/152/24
f 96/153/25 97/154/25 99/155/25 98/156/25
f 109/157/26 110/158/26 108/159/26 107/160/26
f 94/150/27 104/161/27 105/162/27 95/151/27
f 102/163/12 103/164/12 109/165/12 107/166/12
f 92/167/1 93/168/1 101/169/1 100/170/1
f 92/171/12 100/172/12 102/163/12 94/173/12
f 107/160/26 108/159/26 105/174/26 104/175/26
f 99/176/26 103/177/26 102/178/26 98/179/26
f 96/180/7 98/181/7 102/182/7 100/183/7
f 99/184/7 106/185/7 109/186/7 103/187/7
f 94/173/12 102/163/12 107/166/12 104/188/12
f 118/189/26 119/190/26 117/191/26 116/192/26
f 114/193/7 116/194/7 117/195/7 115/196/7
f 125/197/26 126/198/26 124/199/26 123/200/26
f 120/201/7 123/202/7 124/203/7 121/204/7
f 124/205/18 126/206/18 122/207/18 121/208/18
f 112/209/7 127/210/7 128/211/7 113/212/7
f 117/213/19 130/214/19 129/215/19 116/216/19
f 129/217/28 131/218/28 118/219/28 116/220/28
f 112/221/1 113/222/1 117/223/1 116/224/1
f 112/225/18 116/226/18 114/227/18 111/228/18
f 129/229/26 130/230/26 128/231/26 127/232/26
f 119/190/26 125/197/26 123/200/26 117/191/26
f 115/196/7 117/195/7 123/202/7 120/201/7
f 128/233/18 130/234/18 117/235/18 113/236/18
f 93/152/29 95/151/29 112/209/29 111/237/29
f 110/158/26 131/238/26 129/229/26 108/159/26
f 93/168/1 111/239/1 114/240/1 101/169/1
f 108/159/26 129/229/26 127/232/26 105/174/26
f 95/151/30 105/162/30 127/210/30 112/209/30
f 134/241/31 135/242/31 133/243/31 132/244/31
f 142/245/32 143/246/32 141/247/32 140/248/32
f 141/249/33 143/250/33 145/251/33 144/252/33
f 153/253/34 155/254/34 154/255/34 152/256/34
f 160/257/26 161/258/26 159/259/26 158/260/26
f 144/252/35 145/251/35 157/261/35 156/262/35
f 148/263/19 161/264/19 160/265/19 147/266/19
f 149/267/36 150/268/36 143/246/36 142/245/36
f 143/250/37 150/269/37 151/270/37 145/251/37
f 154/271/26 155/272/26 148/273/26 147/274/26
f 148/275/18 155/276/18 153/277/18 146/278/18
f 152/256/38 154/255/38 151/279/38 150/280/38
f 157/281/26 160/257/26 158/260/26 156/282/26
f 151/283/26 154/271/26 147/274/26 145/284/26
f 147/266/19 160/265/19 157/285/19 145/286/19
f 167/287/26 168/288/26 166/289/26 165/290/26
f 164/291/19 168/292/19 167/293/19 163/294/19
f 166/295/39 168/296/39 164/297/39 162/298/39
f 171/299/26 172/300/26 170/301/26 169/302/26
f 170/303/40 174/304/40 173/305/40 169/306/40
f 177/307/41 178/308/41 167/309/41 165/310/41
f 175/311/42 176/312/42 164/313/42 163/314/42
f 164/315/43 171/299/43 169/302/43 162/316/43
f 169/306/19 173/305/19 166/317/19 162/318/19
f 163/294/19 167/293/19 148/263/19 146/319/19
f 161/258/26 178/320/26 177/321/26 159/259/26
f 153/322/44 175/311/44 163/314/44 146/323/44
f 167/293/19 178/324/19 161/264/19 148/263/19
f 181/325/45 182/326/45 180/327/45 179/328/45
f 182/326/46 186/329/46 184/330/46 180/327/46
f 5/331/47 6/332/47 97/154/47 96/153/47
f 9/333/7 100/183/7 101/334/7 10/335/7
f 5/336/7 96/180/7 100/183/7 9/333/7
f 15/337/7 114/193/7 115/196/7 16/338/7
f 21/339/7 120/201/7 121/204/7 22/340/7
f 16/338/7 115/196/7 120/201/7 21/339/7
f 10/335/7 101/334/7 114/193/7 15/337/7
f 25/341/7 132/342/7 133/343/7 26/344/7
f 133/345/18 135/346/18 28/347/18 26/348/18
f 29/349/48 137/350/48 138/351/48 30/352/48
f 28/353/49 135/354/49 137/350/49 29/349/49
f 30/352/7 138/351/7 139/355/7 31/356/7
f 45/45/50 140/357/50 141/358/50 46/46/50
f 45/51/12 47/50/12 142/359/12 140/360/12
f 53/53/51 150/280/51 149/361/51 52/54/51
f 57/57/52 153/253/52 152/256/52 56/58/52
f 56/58/53 152/256/53 150/280/53 53/53/53
f 47/50/12 52/69/12 149/362/12 142/359/12
f 71/91/19 172/363/19 171/364/19 70/92/19
f 75/95/54 176/365/54 175/366/54 74/96/54
f 70/92/19 171/364/19 164/367/19 64/368/19
f 164/369/55 176/370/55 75/371/55 64/372/55
f 74/96/56 175/366/56 153/253/56 57/57/56
f 85/136/19 182/373/19 181/374/19 84/137/19
f 89/375/57 185/376/57 184/377/57 88/378/57
f 184/379/18 186/380/18 90/140/18 88/139/18
f 90/148/19 186/381/19 182/373/19 85/136/19
f 91/382/58 187/383/58 185/376/58 89/375/58
f 4/384/12 42/63/12 46/385/12 6/332/12
f 2/386/1 3/387/1 35/37/1 34/36/1
f 1/388/1 2/386/1 34/36/1 32/72/1
f 1/389/12 32/60/12 42/63/12 4/384/12
f 8/390/18 48/391/18 35/392/18 3/393/18
f 13/394/1 14/395/1 61/83/1 60/82/1
f 19/396/1 20/397/1 66/87/1 65/86/1
f 24/398/18 69/399/18 66/400/18 20/401/18
f 14/395/1 19/396/1 65/86/1 61/83/1
f 8/402/1 13/394/1 60/82/1 48/403/1
f 97/154/59 141/249/59 144/252/59 99/155/59
f 158/260/26 159/259/26 110/158/26 109/157/26
f 156/282/26 158/260/26 109/157/26 106/404/26
f 99/155/60 144/252/60 156/262/60 106/405/60
f 165/290/26 166/289/26 119/190/26 118/189/26
f 173/406/26 174/407/26 126/198/26 125/197/26
f 166/289/26 173/406/26 125/197/26 119/190/26
f 131/218/18 177/307/18 165/310/18 118/219/18
f 159/259/26 177/321/26 131/238/26 110/158/26
f 27/35/61 28/34/61 83/408/61 82/409/61
f 29/410/62 30/411/62 89/412/62 88/413/62
f 28/34/63 29/410/63 88/413/63 83/408/63
f 30/411/64 31/414/64 91/415/64 89/412/64
f 179/328/65 180/327/65 135/242/65 134/241/65
f 136/416/18 183/417/18 179/418/18 134/419/18
f 184/330/66 185/420/66 138/421/66 137/422/66
f 180/327/67 184/330/67 137/422/67 135/242/67
f 185/420/44 187/423/44 139/424/44 138/421/44
f 22/25/68 25/32/68 27/35/68 24/26/68
f 66/87/1 78/127/1 80/130/1 68/88/1
f 66/425/7 69/426/7 82/132/7 78/131/7
f 80/138/19 84/137/19 71/91/19 68/90/19
f 122/427/69 134/241/69 132/244/69 121/428/69
f 122/429/7 126/430/7 136/431/7 134/432/7
f 172/300/70 181/325/70 179/328/70 170/301/70
f 179/433/71 183/434/71 174/304/71 170/303/71
f 24/26/72 27/35/72 82/409/72 69/435/72
f 174/407/26 183/436/26 136/437/26 126/198/26
f 22/340/7 121/204/7 132/342/7 25/341/7
f 84/137/19 181/374/19 172/363/19 71/91/19
f 6/332/73 46/385/73 141/249/73 97/154/73
f 139/438/18 187/439/18 91/440/18 31/441/18
