# Blender 4.3.2
# www.blender.org
mtllib Mountain.031.mtl
o Mountain.031
v -58.991505 -71.053940 42.356632
v -59.994709 -56.160782 43.252846
v -58.662735 -42.957592 41.017452
v -58.991505 -71.053940 33.312023
v -59.994709 -56.160782 31.192169
v -58.662735 -42.957592 33.981155
v -46.792942 -73.428093 44.813553
v -46.792942 -56.160782 49.271481
v -46.622555 -36.600067 43.069962
v -40.042961 -24.529900 40.135746
v -48.070038 -73.808060 27.650188
v -54.182159 -56.160782 21.493166
v -49.944309 -36.600067 28.051668
v -40.089806 -24.473675 28.856436
v -42.455437 -69.015831 16.176985
v -44.483158 -56.160782 15.310531
v -41.246136 -36.762787 17.112534
v -38.139404 -26.144188 18.579657
v -27.394941 -72.043259 44.200394
v -27.394941 -56.160782 48.587837
v -26.557777 -35.641392 43.013573
v -32.465668 -24.529900 40.135746
v -27.394941 -76.814636 28.856436
v -19.533669 -28.427795 36.959259
v -26.557777 -23.400272 29.838530
v -27.394941 -70.631165 13.904578
v -25.951433 -55.149261 5.906696
v -25.951433 -37.079338 7.084242
v -27.394941 -24.384808 15.376511
v -12.128459 -69.207489 41.539089
v -10.770319 -56.160782 42.569206
v -14.029261 -41.359798 40.923477
v -6.596251 -69.859756 27.440269
v -1.071319 -56.160782 32.589439
v -7.736732 -35.641392 33.429684
v -7.996941 -22.238281 24.220284
v -7.996941 -68.348976 16.051767
v -7.996941 -58.672337 6.352766
v -16.312925 -30.824375 1.761982
v -8.718327 -17.380779 9.451729
v -1.123727 -1.240010 4.209476
v -18.523096 -48.008919 -1.021070
v -18.523096 -43.756374 -1.021070
v -7.996941 -48.973335 -2.559133
v -8.425022 -36.518791 -8.252277
v -7.571585 -17.364782 -9.939566
v -2.092794 3.948881 -8.044209
v -0.537119 -29.281202 -21.247038
v -1.640007 -17.364782 -23.924587
v -2.589161 1.253079 -29.861498
v -1.951004 7.198986 -41.882935
v 0.491084 21.431217 -13.206697
v 1.269692 40.829220 -17.184296
v 1.458143 52.564632 -18.550102
v -4.375518 21.431217 -29.337564
v -1.866402 40.829220 -29.337564
v 0.509834 55.589432 -29.337564
v -3.164543 21.431217 -43.711681
v -1.434034 40.829220 -42.657162
v 0.356341 55.240082 -40.476910
v 2.709388 -65.972908 20.030157
v 10.065656 -54.898705 22.209719
v 13.063934 -37.070511 22.814472
v 7.706519 -23.282148 21.038076
v 2.709388 -65.972908 19.039904
v 10.065656 -58.173050 11.327715
v 20.638517 -30.809664 19.000580
v 13.063934 -17.035603 17.547020
v 9.480064 3.948881 8.240521
v 21.211170 -47.591316 19.267239
v 21.211170 -43.741665 19.267239
v 25.202114 -50.050659 9.458435
v 27.732855 -37.070511 11.304121
v 29.059427 -17.364782 8.957384
v 27.504814 2.033217 7.023263
v 12.344681 21.431217 4.742442
v 14.109632 40.829220 3.735707
v 15.818458 60.227219 2.916562
v 17.471497 79.625221 2.033109
v 19.078426 99.023224 1.080315
v 20.281887 113.828346 0.310545
v 25.843655 21.431217 4.742442
v 24.854122 40.829220 3.735707
v 23.935740 60.227219 2.916562
v 23.040222 79.625221 2.033109
v 22.172203 99.023224 1.080315
v 21.530544 113.828346 0.310545
v 11.401059 -50.554714 -5.599209
v 11.401059 -42.197521 -15.298209
v 1.733402 11.691989 -0.314637
v 11.401059 -32.498520 -23.707310
v 12.046334 -16.227057 -33.116493
v 6.010519 -5.733013 -36.676788
v 18.942518 -9.002574 -39.726421
v 12.046334 1.253079 -42.740318
v 26.458355 -50.117416 -5.074504
v 31.166214 -37.840321 -10.900128
v 37.305428 -17.364782 -9.939566
v 34.456684 2.033217 -9.939566
v 26.933435 -32.092678 -23.455084
v 28.480904 -16.227057 -29.687675
v 30.568878 2.033217 -29.337564
v 22.406801 -9.002574 -39.726421
v 23.617008 2.033217 -41.531479
v 2.645681 21.431217 -3.507696
v 4.410632 40.829220 -7.485295
v 6.154299 59.509266 -11.226287
v 11.863466 79.625221 -9.939566
v 16.898342 99.023224 -9.939566
v 20.212774 113.799423 -9.939566
v 10.379579 65.175461 -30.303755
v 15.492029 79.625221 -25.389977
v 18.919977 99.023224 -21.967300
v 20.735186 110.385719 -19.918312
v 11.401059 21.431217 -47.833801
v 11.401059 40.829220 -46.241234
v 11.401059 57.610958 -41.556297
v 31.386328 21.431217 -9.939566
v 29.216764 40.829220 -9.939566
v 27.128281 60.227219 -9.939566
v 25.046448 79.625221 -9.939566
v 23.002277 99.023224 -9.939566
v 21.538443 113.799423 -9.939566
v 29.793951 21.431217 -29.337564
v 28.247692 40.829220 -29.337564
v 24.590622 61.126488 -30.303755
v 23.106285 79.625221 -25.389977
v 21.930134 99.023224 -21.967300
v 21.254084 110.385719 -19.918312
v 24.251280 21.431217 -43.158684
v 23.885050 40.829220 -42.620636
v 22.660940 55.260002 -40.955864
vn -0.9977 -0.0672 -0.0000
vn -0.9949 0.1004 -0.0000
vn -0.3260 -0.1651 0.9308
vn -0.3512 0.2486 0.9027
vn -0.2132 -0.9767 0.0246
vn -0.6691 -0.3172 -0.6720
vn -0.7566 0.2951 -0.5835
vn -0.5103 0.8566 0.0769
vn -0.8182 0.5651 0.1060
vn -0.6663 -0.3316 -0.6679
vn -0.6534 0.2766 -0.7047
vn -0.7669 0.4796 -0.4264
vn 0.0415 -0.2576 0.9654
vn 0.0112 0.2816 0.9595
vn -0.0065 0.2434 0.9699
vn -0.0423 -0.9865 0.1580
vn 0.3617 0.6830 0.6346
vn -0.0526 0.9978 0.0405
vn -0.1292 -0.9057 -0.4037
vn -0.3189 -0.2889 -0.9027
vn -0.4967 0.1114 -0.8607
vn -0.4366 0.3737 -0.8184
vn -0.1252 0.9858 -0.1114
vn 0.2735 -0.1894 0.9430
vn 0.3001 0.2108 0.9303
vn 0.2789 -0.9337 0.2244
vn 0.7958 -0.3231 0.5121
vn 0.6865 0.2088 0.6966
vn 0.4113 0.4226 0.8076
vn 0.3308 0.6957 0.6376
vn 0.2196 -0.9332 -0.2843
vn 0.0375 -0.5764 -0.8163
vn -0.5158 0.5320 -0.6715
vn -0.1710 0.9755 0.1384
vn -0.7114 0.0370 -0.7019
vn -0.1309 -0.6480 -0.7503
vn -0.2884 -0.3155 -0.9040
vn -0.6398 0.2646 -0.7215
vn -0.8964 0.2935 -0.3321
vn -0.9416 0.3331 0.0495
vn -0.8796 -0.0731 -0.4701
vn -0.9830 0.0957 -0.1564
vn -0.9898 0.0379 0.1372
vn -0.9565 0.1088 0.2706
vn -0.9767 0.1042 0.1876
vn -0.9919 -0.0899 -0.0897
vn -0.9922 0.1100 -0.0589
vn -0.9897 0.1424 -0.0133
vn 0.6358 -0.5036 0.5849
vn 0.5493 0.0210 0.8354
vn 0.3464 0.4120 0.8427
vn 0.2659 -0.9528 -0.1464
vn 0.8007 -0.5775 0.1593
vn 0.2483 -0.7341 -0.6320
vn 0.2877 0.2435 0.9262
vn -0.0508 0.8590 0.5095
vn -0.3806 0.3728 0.8463
vn 0.3201 -0.0706 0.9447
vn 0.5226 -0.7904 0.3198
vn 0.8647 -0.1814 0.4685
vn 0.6167 0.0435 0.7860
vn 0.6022 0.2001 0.7728
vn 0.2827 0.2904 0.9142
vn 0.0474 0.1531 0.9871
vn -0.0000 0.0518 0.9987
vn -0.0000 0.0422 0.9991
vn -0.0000 0.0455 0.9990
vn -0.0000 0.0491 0.9988
vn -0.0000 0.0519 0.9987
vn 0.0047 -0.8308 -0.5566
vn -0.3020 -0.5709 -0.7635
vn -0.7613 0.3575 0.5410
vn -0.3791 -0.6526 -0.6561
vn -0.4098 -0.3651 -0.8359
vn -0.6037 -0.3744 -0.7038
vn -0.3121 -0.4582 -0.8323
vn -0.5389 -0.5783 -0.6124
vn 0.2585 -0.9440 -0.2053
vn 0.9585 -0.2545 0.1282
vn 0.1928 -0.6176 -0.7625
vn 0.9476 -0.1667 0.2724
vn 0.9137 0.1230 0.3873
vn 0.1843 -0.7731 -0.6069
vn 0.8795 -0.2452 -0.4078
vn 0.1082 -0.4410 -0.8909
vn 0.9511 0.0221 -0.3082
vn 0.1117 -0.7532 -0.6482
vn 0.8389 -0.1208 -0.5307
vn 0.0887 -0.1973 -0.9763
vn -0.6039 0.2683 0.7505
vn -0.9510 0.1956 0.2394
vn -0.7001 0.1533 0.6974
vn -0.9581 0.1165 0.2616
vn -0.7886 0.1431 0.5980
vn -0.9195 0.1212 0.3739
vn -0.8547 0.1542 0.4956
vn -0.9337 0.1676 0.3163
vn -0.9828 0.1528 0.1037
vn -0.7654 0.6356 0.1010
vn -0.9335 0.3209 -0.1597
vn -0.9543 0.2255 -0.1962
vn -0.9690 0.2014 -0.1433
vn -0.2091 -0.2037 -0.9564
vn -0.2699 0.0775 -0.9598
vn -0.2081 0.2216 -0.9527
vn -0.4948 0.8131 -0.3066
vn 0.9218 0.1338 0.3639
vn 0.9406 0.0851 0.3286
vn 0.9587 0.0801 0.2730
vn 0.9757 0.0795 0.2043
vn 0.9895 0.0773 0.1221
vn 0.9966 0.0720 0.0392
vn -0.0000 1.0000 -0.0028
vn 0.9854 0.0977 -0.1392
vn 0.9933 0.0951 -0.0656
vn 0.9865 0.1407 -0.0838
vn 0.9867 0.1085 -0.1206
vn 0.0520 0.2802 -0.9585
vn 0.9899 0.0917 -0.1085
vn -0.0000 0.1738 -0.9848
vn 0.9934 0.0872 -0.0748
vn -0.0000 0.1775 -0.9841
vn -0.0000 0.9462 -0.3237
vn 0.9013 -0.0149 -0.4329
vn 0.2360 -0.1626 -0.9580
vn 0.9380 0.0510 -0.3428
vn 0.3107 0.0550 -0.9489
vn 0.9488 0.1391 -0.2835
vn 0.1908 0.2029 -0.9604
vn 0.2201 0.8275 -0.5165
vt 0.001056 0.082277
vt 0.001056 0.001056
vt 0.082277 0.001056
vt 0.082277 0.082277
vt 0.001056 0.165611
vt 0.001056 0.084389
vt 0.082277 0.084389
vt 0.082277 0.165611
vt 0.165611 0.082277
vt 0.084389 0.082277
vt 0.084389 0.001056
vt 0.165611 0.001056
vt 0.165611 0.165611
vt 0.084389 0.165611
vt 0.084389 0.084389
vt 0.165611 0.084389
vt 0.001056 0.248944
vt 0.001056 0.167723
vt 0.082277 0.167723
vt 0.082277 0.248944
vt 0.084389 0.248944
vt 0.084389 0.167723
vt 0.165611 0.167723
vt 0.165611 0.248944
vt 0.248944 0.082277
vt 0.167723 0.082277
vt 0.167723 0.001056
vt 0.248944 0.001056
vt 0.248944 0.165611
vt 0.167723 0.165611
vt 0.167723 0.084389
vt 0.248944 0.084389
vt 0.248944 0.248944
vt 0.167723 0.248944
vt 0.167723 0.167723
vt 0.248944 0.167723
vt 0.001056 0.332277
vt 0.001056 0.251056
vt 0.082277 0.251056
vt 0.082277 0.332277
vt 0.084389 0.332277
vt 0.084389 0.251056
vt 0.165611 0.251056
vt 0.165611 0.332277
vt 0.167723 0.332277
vt 0.167723 0.251056
vt 0.248944 0.251056
vt 0.248944 0.332277
vt 0.332277 0.082277
vt 0.251056 0.082277
vt 0.251056 0.001056
vt 0.332277 0.001056
vt 0.332277 0.165611
vt 0.251056 0.165611
vt 0.251056 0.084389
vt 0.332277 0.084389
vt 0.332277 0.248944
vt 0.251056 0.248944
vt 0.251056 0.167723
vt 0.332277 0.167723
vt 0.332277 0.332277
vt 0.251056 0.332277
vt 0.251056 0.251056
vt 0.332277 0.251056
vt 0.001056 0.415611
vt 0.001056 0.334389
vt 0.082277 0.334389
vt 0.082277 0.415611
vt 0.084389 0.415611
vt 0.084389 0.334389
vt 0.165611 0.334389
vt 0.165611 0.415611
vt 0.167723 0.415611
vt 0.167723 0.334389
vt 0.248944 0.334389
vt 0.248944 0.415611
vt 0.251056 0.415611
vt 0.251056 0.334389
vt 0.332277 0.334389
vt 0.332277 0.415611
vt 0.415611 0.082277
vt 0.334389 0.082277
vt 0.334389 0.001056
vt 0.415611 0.001056
vt 0.415611 0.165611
vt 0.334389 0.165611
vt 0.334389 0.084389
vt 0.415611 0.084389
vt 0.415611 0.248944
vt 0.334389 0.248944
vt 0.334389 0.167723
vt 0.415611 0.167723
vt 0.415611 0.332277
vt 0.334389 0.332277
vt 0.334389 0.251056
vt 0.415611 0.251056
vt 0.415611 0.415611
vt 0.334389 0.415611
vt 0.334389 0.334389
vt 0.415611 0.334389
vt 0.001056 0.498944
vt 0.001056 0.417723
vt 0.082277 0.417723
vt 0.082277 0.498944
vt 0.084389 0.498944
vt 0.084389 0.417723
vt 0.165611 0.417723
vt 0.165611 0.498944
vt 0.167723 0.498944
vt 0.167723 0.417723
vt 0.248944 0.417723
vt 0.248944 0.498944
vt 0.251056 0.498944
vt 0.251056 0.417723
vt 0.332277 0.417723
vt 0.332277 0.498944
vt 0.334389 0.498944
vt 0.334389 0.417723
vt 0.415611 0.417723
vt 0.415611 0.498944
vt 0.498944 0.082277
vt 0.417723 0.082277
vt 0.417723 0.001056
vt 0.498944 0.001056
vt 0.498944 0.165611
vt 0.417723 0.165611
vt 0.417723 0.084389
vt 0.498944 0.084389
vt 0.498944 0.248944
vt 0.417723 0.248944
vt 0.417723 0.167723
vt 0.498944 0.167723
vt 0.498944 0.332277
vt 0.417723 0.332277
vt 0.417723 0.251056
vt 0.498944 0.251056
vt 0.498944 0.415611
vt 0.417723 0.415611
vt 0.417723 0.334389
vt 0.498944 0.334389
vt 0.498944 0.498944
vt 0.417723 0.498944
vt 0.417723 0.417723
vt 0.498944 0.417723
vt 0.001056 0.582277
vt 0.001056 0.501056
vt 0.082277 0.501056
vt 0.082277 0.582277
vt 0.084389 0.582277
vt 0.084389 0.501056
vt 0.165611 0.501056
vt 0.165611 0.582277
vt 0.167723 0.582277
vt 0.167723 0.501056
vt 0.248944 0.501056
vt 0.248944 0.582277
vt 0.251056 0.582277
vt 0.251056 0.501056
vt 0.332277 0.501056
vt 0.332277 0.582277
vt 0.334389 0.582277
vt 0.334389 0.501056
vt 0.415611 0.501056
vt 0.415611 0.582277
vt 0.417723 0.582277
vt 0.417723 0.501056
vt 0.498944 0.501056
vt 0.498944 0.582277
vt 0.582277 0.082277
vt 0.501056 0.082277
vt 0.501056 0.001056
vt 0.582277 0.001056
vt 0.582277 0.165611
vt 0.501056 0.165611
vt 0.501056 0.084389
vt 0.582277 0.084389
vt 0.582277 0.248944
vt 0.501056 0.248944
vt 0.501056 0.167723
vt 0.582277 0.167723
vt 0.582277 0.332277
vt 0.501056 0.332277
vt 0.501056 0.251056
vt 0.582277 0.251056
vt 0.582277 0.415611
vt 0.501056 0.415611
vt 0.501056 0.334389
vt 0.582277 0.334389
vt 0.582277 0.498944
vt 0.501056 0.498944
vt 0.501056 0.417723
vt 0.582277 0.417723
vt 0.582277 0.582277
vt 0.501056 0.582277
vt 0.501056 0.501056
vt 0.582277 0.501056
vt 0.001056 0.665611
vt 0.001056 0.584389
vt 0.082277 0.584389
vt 0.082277 0.665611
vt 0.084389 0.665611
vt 0.084389 0.584389
vt 0.165611 0.584389
vt 0.165611 0.665611
vt 0.167723 0.665611
vt 0.167723 0.584389
vt 0.248944 0.584389
vt 0.248944 0.665611
vt 0.251056 0.665611
vt 0.251056 0.584389
vt 0.332277 0.584389
vt 0.332277 0.665611
vt 0.334389 0.665611
vt 0.334389 0.584389
vt 0.415611 0.584389
vt 0.415611 0.665611
vt 0.417723 0.665611
vt 0.417723 0.584389
vt 0.498944 0.584389
vt 0.498944 0.665611
vt 0.501056 0.665611
vt 0.501056 0.584389
vt 0.582277 0.584389
vt 0.582277 0.665611
vt 0.665611 0.082277
vt 0.584389 0.082277
vt 0.584389 0.001056
vt 0.665611 0.001056
vt 0.665611 0.165611
vt 0.584389 0.165611
vt 0.584389 0.084389
vt 0.665611 0.084389
vt 0.665611 0.248944
vt 0.584389 0.248944
vt 0.584389 0.167723
vt 0.665611 0.167723
vt 0.665611 0.332277
vt 0.584389 0.332277
vt 0.584389 0.251056
vt 0.665611 0.251056
vt 0.665611 0.415611
vt 0.584389 0.415611
vt 0.584389 0.334389
vt 0.665611 0.334389
vt 0.665611 0.498944
vt 0.584389 0.498944
vt 0.584389 0.417723
vt 0.665611 0.417723
vt 0.665611 0.582277
vt 0.584389 0.582277
vt 0.584389 0.501056
vt 0.665611 0.501056
vt 0.665611 0.665611
vt 0.584389 0.665611
vt 0.584389 0.584389
vt 0.665611 0.584389
vt 0.001056 0.748944
vt 0.001056 0.667723
vt 0.082277 0.667723
vt 0.082277 0.748944
vt 0.084389 0.748944
vt 0.084389 0.667723
vt 0.165611 0.667723
vt 0.165611 0.748944
vt 0.167723 0.748944
vt 0.167723 0.667723
vt 0.248944 0.667723
vt 0.248944 0.748944
vt 0.251056 0.748944
vt 0.251056 0.667723
vt 0.332277 0.667723
vt 0.332277 0.748944
vt 0.334389 0.748944
vt 0.334389 0.667723
vt 0.415611 0.667723
vt 0.415611 0.748944
vt 0.417723 0.748944
vt 0.417723 0.667723
vt 0.498944 0.667723
vt 0.498944 0.748944
vt 0.501056 0.748944
vt 0.501056 0.667723
vt 0.582277 0.667723
vt 0.582277 0.748944
vt 0.584389 0.748944
vt 0.584389 0.667723
vt 0.665611 0.667723
vt 0.665611 0.748944
vt 0.748944 0.082277
vt 0.667723 0.082277
vt 0.667723 0.001056
vt 0.748944 0.001056
vt 0.748944 0.165611
vt 0.667723 0.165611
vt 0.667723 0.084389
vt 0.748944 0.084389
vt 0.748944 0.248944
vt 0.667723 0.248944
vt 0.667723 0.167723
vt 0.748944 0.167723
vt 0.748944 0.332277
vt 0.667723 0.332277
vt 0.667723 0.251056
vt 0.748944 0.251056
vt 0.748944 0.415611
vt 0.667723 0.415611
vt 0.667723 0.334389
vt 0.748944 0.334389
vt 0.748944 0.498944
vt 0.667723 0.498944
vt 0.667723 0.417723
vt 0.748944 0.417723
vt 0.748944 0.582277
vt 0.667723 0.582277
vt 0.667723 0.501056
vt 0.748944 0.501056
vt 0.748944 0.665611
vt 0.667723 0.665611
vt 0.667723 0.584389
vt 0.748944 0.584389
vt 0.748944 0.748944
vt 0.667723 0.748944
vt 0.667723 0.667723
vt 0.748944 0.667723
vt 0.001056 0.832277
vt 0.001056 0.751056
vt 0.082277 0.751056
vt 0.082277 0.832277
vt 0.084389 0.832277
vt 0.084389 0.751056
vt 0.165611 0.751056
vt 0.165611 0.832277
vt 0.167723 0.832277
vt 0.167723 0.751056
vt 0.248944 0.751056
vt 0.248944 0.832277
vt 0.251056 0.832277
vt 0.251056 0.751056
vt 0.332277 0.751056
vt 0.332277 0.832277
vt 0.334389 0.832277
vt 0.334389 0.751056
vt 0.415611 0.751056
vt 0.415611 0.832277
vt 0.417723 0.832277
vt 0.417723 0.751056
vt 0.498944 0.751056
vt 0.498944 0.832277
vt 0.501056 0.832277
vt 0.501056 0.751056
vt 0.582277 0.751056
vt 0.582277 0.832277
vt 0.584389 0.832277
vt 0.584389 0.751056
vt 0.665611 0.751056
vt 0.665611 0.832277
vt 0.667723 0.832277
vt 0.667723 0.751056
vt 0.748944 0.751056
vt 0.748944 0.832277
vt 0.832277 0.082277
vt 0.751056 0.082277
vt 0.751056 0.001056
vt 0.832277 0.001056
vt 0.832277 0.165611
vt 0.751056 0.165611
vt 0.751056 0.084389
vt 0.832277 0.084389
vt 0.832277 0.248944
vt 0.751056 0.248944
vt 0.751056 0.167723
vt 0.832277 0.167723
vt 0.832277 0.332277
vt 0.751056 0.332277
vt 0.751056 0.251056
vt 0.832277 0.251056
vt 0.832277 0.415611
vt 0.751056 0.415611
vt 0.751056 0.334389
vt 0.832277 0.334389
vt 0.832277 0.498944
vt 0.751056 0.498944
vt 0.751056 0.417723
vt 0.832277 0.417723
vt 0.832277 0.582277
vt 0.751056 0.582277
vt 0.751056 0.501056
vt 0.832277 0.501056
vt 0.832277 0.665611
vt 0.751056 0.665611
vt 0.751056 0.584389
vt 0.832277 0.584389
vt 0.832277 0.748944
vt 0.751056 0.748944
vt 0.751056 0.667723
vt 0.832277 0.667723
vt 0.832278 0.832277
vt 0.751056 0.832277
vt 0.751056 0.751056
vt 0.832277 0.751056
vt 0.001056 0.915611
vt 0.001056 0.834389
vt 0.082277 0.834389
vt 0.082277 0.915611
vt 0.084389 0.915611
vt 0.084389 0.834389
vt 0.165611 0.834389
vt 0.165611 0.915611
vt 0.167723 0.915611
vt 0.167723 0.834389
vt 0.248944 0.834389
vt 0.248944 0.915611
vt 0.251056 0.915611
vt 0.251056 0.834389
vt 0.332277 0.834389
vt 0.332277 0.915611
vt 0.334389 0.915611
vt 0.334389 0.834389
vt 0.415611 0.834389
vt 0.415611 0.915611
vt 0.417723 0.915611
vt 0.417723 0.834389
vt 0.498944 0.834389
vt 0.498944 0.915611
vt 0.501056 0.915611
vt 0.501056 0.834389
vt 0.582277 0.834389
vt 0.582277 0.915611
vt 0.584389 0.915611
vt 0.584389 0.834389
vt 0.665611 0.834389
vt 0.665611 0.915611
vt 0.667723 0.915611
vt 0.667723 0.834389
vt 0.748944 0.834389
vt 0.748944 0.915611
vt 0.751056 0.915611
vt 0.751056 0.834389
vt 0.832277 0.834389
vt 0.832277 0.915611
vt 0.915611 0.082277
vt 0.834389 0.082277
vt 0.834389 0.001056
vt 0.915611 0.001056
vt 0.915611 0.165611
vt 0.834389 0.165611
vt 0.834389 0.084389
vt 0.915611 0.084389
vt 0.915611 0.248944
vt 0.834389 0.248944
vt 0.834389 0.167723
vt 0.915611 0.167723
vt 0.915611 0.332277
vt 0.834389 0.332277
vt 0.834389 0.251056
vt 0.915611 0.251056
vt 0.915611 0.415611
vt 0.834389 0.415611
vt 0.834389 0.334389
vt 0.915611 0.334389
vt 0.915611 0.498944
vt 0.834389 0.498944
vt 0.834389 0.417723
vt 0.915611 0.417723
vt 0.915611 0.582277
vt 0.834389 0.582277
vt 0.834389 0.501056
vt 0.915611 0.501056
vt 0.915611 0.665611
vt 0.834389 0.665611
vt 0.834389 0.584389
vt 0.915611 0.584389
vt 0.915611 0.748944
vt 0.834389 0.748944
vt 0.834389 0.667723
vt 0.915611 0.667723
vt 0.915611 0.832277
vt 0.834389 0.832277
vt 0.834389 0.751056
vt 0.915611 0.751056
vt 0.915611 0.915611
vt 0.834389 0.915611
vt 0.834389 0.834389
vt 0.915611 0.834389
vt 0.001056 0.998944
vt 0.001056 0.917723
vt 0.082277 0.917723
vt 0.082277 0.998944
vt 0.084389 0.998944
vt 0.084389 0.917723
vt 0.165611 0.917723
vt 0.165611 0.998944
vt 0.167723 0.998944
vt 0.167723 0.917723
vt 0.248944 0.917723
vt 0.248944 0.998944
vt 0.251056 0.998944
vt 0.251056 0.917723
vt 0.332277 0.917723
vt 0.332277 0.998944
vt 0.334389 0.998944
vt 0.334389 0.917723
vt 0.415611 0.917723
vt 0.415611 0.998944
vt 0.417723 0.998944
vt 0.417723 0.917723
vt 0.498944 0.917723
vt 0.498944 0.998944
vt 0.501056 0.998944
vt 0.501056 0.917723
vt 0.582277 0.917723
vt 0.582277 0.998944
vt 0.584389 0.998944
vt 0.584389 0.917723
vt 0.665611 0.917723
vt 0.665611 0.998944
vt 0.667723 0.998944
vt 0.667723 0.917723
vt 0.748944 0.917723
vt 0.748944 0.998944
s 0
f 5/1/1 4/2/1 1/3/1 2/4/1
f 6/5/2 5/6/2 2/7/2 3/8/2
f 8/9/3 2/10/3 1/11/3 7/12/3
f 9/13/4 3/14/4 2/15/4 8/16/4
f 4/17/5 11/18/5 7/19/5 1/20/5
f 5/21/6 12/22/6 11/23/6 4/24/6
f 6/25/7 13/26/7 12/27/7 5/28/7
f 13/29/8 6/30/8 3/31/8 9/32/8
f 14/33/9 13/34/9 9/35/9 10/36/9
f 16/37/10 15/38/10 11/39/10 12/40/10
f 17/41/11 16/42/11 12/43/11 13/44/11
f 18/45/12 17/46/12 13/47/12 14/48/12
f 20/49/13 8/50/13 7/51/13 19/52/13
f 21/53/14 9/54/14 8/55/14 20/56/14
f 22/57/15 10/58/15 9/59/15 21/60/15
f 11/61/16 23/62/16 19/63/16 7/64/16
f 24/65/17 25/66/17 22/67/17 21/68/17
f 25/69/18 14/70/18 10/71/18 22/72/18
f 15/73/19 26/74/19 23/75/19 11/76/19
f 16/77/20 27/78/20 26/79/20 15/80/20
f 17/81/21 28/82/21 27/83/21 16/84/21
f 18/85/22 29/86/22 28/87/22 17/88/22
f 29/89/23 18/90/23 14/91/23 25/92/23
f 31/93/24 20/94/24 19/95/24 30/96/24
f 32/97/25 21/98/25 20/99/25 31/100/25
f 23/101/26 33/102/26 30/103/26 19/104/26
f 33/105/27 34/106/27 31/107/27 30/108/27
f 34/109/28 35/110/28 32/111/28 31/112/28
f 35/113/29 24/114/29 21/115/29 32/116/29
f 36/117/30 25/118/30 24/119/30 35/120/30
f 26/121/31 37/122/31 33/123/31 23/124/31
f 27/125/32 38/126/32 37/127/32 26/128/32
f 29/129/33 40/130/33 39/131/33 28/132/33
f 40/133/34 29/134/34 25/135/34 36/136/34
f 43/137/35 42/138/35 27/139/35 28/140/35
f 42/141/36 44/142/36 38/143/36 27/144/36
f 43/145/37 45/146/37 44/147/37 42/148/37
f 45/149/38 43/150/38 28/151/38 39/152/38
f 46/153/39 45/154/39 39/155/39 40/156/39
f 47/157/40 46/158/40 40/159/40 41/160/40
f 49/161/41 48/162/41 45/163/41 46/164/41
f 50/165/42 49/166/42 46/167/42 47/168/42
f 55/169/43 50/170/43 47/171/43 52/172/43
f 56/173/44 55/174/44 52/175/44 53/176/44
f 57/177/45 56/178/45 53/179/45 54/180/45
f 58/181/46 51/182/46 50/183/46 55/184/46
f 59/185/47 58/186/47 55/187/47 56/188/47
f 60/189/48 59/190/48 56/191/48 57/192/48
f 62/193/49 34/194/49 33/195/49 61/196/49
f 63/197/50 35/198/50 34/199/50 62/200/50
f 64/201/51 36/202/51 35/203/51 63/204/51
f 37/205/52 65/206/52 61/207/52 33/208/52
f 65/209/53 66/210/53 62/211/53 61/212/53
f 38/213/54 66/214/54 65/215/54 37/216/54
f 67/217/55 68/218/55 64/219/55 63/220/55
f 68/221/56 40/222/56 36/223/56 64/224/56
f 69/225/57 41/226/57 40/227/57 68/228/57
f 71/229/58 63/230/58 62/231/58 70/232/58
f 66/233/59 72/234/59 70/235/59 62/236/59
f 72/237/60 73/238/60 71/239/60 70/240/60
f 73/241/61 67/242/61 63/243/61 71/244/61
f 74/245/62 68/246/62 67/247/62 73/248/62
f 75/249/63 69/250/63 68/251/63 74/252/63
f 82/253/64 76/254/64 69/255/64 75/256/64
f 83/257/65 77/258/65 76/259/65 82/260/65
f 84/261/66 78/262/66 77/263/66 83/264/66
f 85/265/67 79/266/67 78/267/67 84/268/67
f 86/269/68 80/270/68 79/271/68 85/272/68
f 87/273/69 81/274/69 80/275/69 86/276/69
f 44/277/70 88/278/70 66/279/70 38/280/70
f 45/281/71 89/282/71 88/283/71 44/284/71
f 90/285/72 47/286/72 41/287/72 69/288/72
f 48/289/73 91/290/73 89/291/73 45/292/73
f 49/293/74 92/294/74 91/295/74 48/296/74
f 50/297/75 93/298/75 92/299/75 49/300/75
f 95/301/76 94/302/76 92/303/76 93/304/76
f 51/305/77 95/306/77 93/307/77 50/308/77
f 88/309/78 96/310/78 72/311/78 66/312/78
f 96/313/79 97/314/79 73/315/79 72/316/79
f 89/317/80 97/318/80 96/319/80 88/320/80
f 97/321/81 98/322/81 74/323/81 73/324/81
f 98/325/82 99/326/82 75/327/82 74/328/82
f 91/329/83 100/330/83 97/331/83 89/332/83
f 100/333/84 101/334/84 98/335/84 97/336/84
f 92/337/85 101/338/85 100/339/85 91/340/85
f 101/341/86 102/342/86 99/343/86 98/344/86
f 94/345/87 103/346/87 101/347/87 92/348/87
f 103/349/88 104/350/88 102/351/88 101/352/88
f 95/353/89 104/354/89 103/355/89 94/356/89
f 105/357/90 90/358/90 69/359/90 76/360/90
f 105/361/91 52/362/91 47/363/91 90/364/91
f 106/365/92 105/366/92 76/367/92 77/368/92
f 106/369/93 53/370/93 52/371/93 105/372/93
f 107/373/94 106/374/94 77/375/94 78/376/94
f 107/377/95 54/378/95 53/379/95 106/380/95
f 108/381/96 107/382/96 78/383/96 79/384/96
f 109/385/97 108/386/97 79/387/97 80/388/97
f 110/389/98 109/390/98 80/391/98 81/392/98
f 111/393/99 57/394/99 54/395/99 107/396/99
f 112/397/100 111/398/100 107/399/100 108/400/100
f 113/401/101 112/402/101 108/403/101 109/404/101
f 114/405/102 113/406/102 109/407/102 110/408/102
f 58/409/103 115/410/103 95/411/103 51/412/103
f 59/413/104 116/414/104 115/415/104 58/416/104
f 60/417/105 117/418/105 116/419/105 59/420/105
f 117/421/106 60/422/106 57/423/106 111/424/106
f 99/425/107 118/426/107 82/427/107 75/428/107
f 118/429/108 119/430/108 83/431/108 82/432/108
f 119/433/109 120/434/109 84/435/109 83/436/109
f 120/437/110 121/438/110 85/439/110 84/440/110
f 121/441/111 122/442/111 86/443/111 85/444/111
f 122/445/112 123/446/112 87/447/112 86/448/112
f 123/449/113 110/450/113 81/451/113 87/452/113
f 102/453/114 124/454/114 118/455/114 99/456/114
f 124/457/115 125/458/115 119/459/115 118/460/115
f 125/461/116 126/462/116 120/463/116 119/464/116
f 126/465/117 127/466/117 121/467/117 120/468/117
f 112/469/118 127/470/118 126/471/118 111/472/118
f 127/473/119 128/474/119 122/475/119 121/476/119
f 113/477/120 128/478/120 127/479/120 112/480/120
f 128/481/121 129/482/121 123/483/121 122/484/121
f 114/485/122 129/486/122 128/487/122 113/488/122
f 129/489/123 114/490/123 110/491/123 123/492/123
f 104/493/124 130/494/124 124/495/124 102/496/124
f 115/497/125 130/498/125 104/499/125 95/500/125
f 130/501/126 131/502/126 125/503/126 124/504/126
f 116/505/127 131/506/127 130/507/127 115/508/127
f 131/509/128 132/510/128 126/511/128 125/512/128
f 117/513/129 132/514/129 131/515/129 116/516/129
f 132/517/130 117/518/130 111/519/130 126/520/130
