# Blender 4.3.2
# www.blender.org
mtllib Mountain.003.mtl
o Mountain.003
v -20.311825 -4.748223 16.233519
v -20.311825 -2.894096 16.233519
v -9.975262 -7.027825 17.397940
v -9.975262 -0.254923 17.397940
v 9.422734 -6.924029 17.352640
v 9.422734 -0.314556 17.352640
v 19.529581 -4.609829 16.173140
v 19.529581 -2.973605 16.173140
v -21.086395 -6.076237 6.103978
v -21.086395 -0.451284 6.103978
v -20.919546 -5.946784 -5.429983
v -20.919546 -0.300974 -5.429983
v -9.975262 -12.577560 6.103978
v -11.177995 8.930693 7.188887
v -5.513817 21.209894 1.446158
v -8.128569 -8.425852 -12.455195
v -9.438626 4.476357 -13.082788
v -5.513817 21.209894 -7.803604
v -0.431441 -4.050082 -23.069635
v -0.431441 -3.678313 -23.069635
v 9.422734 -14.187719 6.103978
v 11.347182 10.586517 7.188887
v 6.164148 21.209894 1.446158
v 7.674336 -9.797016 -13.912052
v 9.569444 5.895965 -14.296829
v 6.164148 21.209894 -7.803604
v 0.042737 -4.050082 -23.069635
v 0.042737 -3.678313 -23.069635
v 21.520376 -7.686396 6.103978
v 21.520376 1.618497 6.103978
v 21.912083 -8.232058 -7.858068
v 21.912083 2.538243 -7.858068
vn -0.1119 -0.0000 0.9937
vn 0.0023 -0.0000 1.0000
vn 0.1159 -0.0000 0.9933
vn -0.9971 -0.0000 0.0762
vn -0.9999 -0.0000 -0.0145
vn -0.3757 -0.8784 0.2956
vn -0.4890 0.7359 0.4683
vn -0.3871 -0.9089 -0.1552
vn -0.5118 -0.0651 -0.8566
vn -0.5765 0.8044 -0.1434
vn -0.9450 0.3107 -0.1026
vn -0.7818 -0.1062 -0.6144
vn -0.0332 -0.8689 0.4939
vn -0.0264 0.7123 0.7014
vn -0.0217 0.4485 0.8935
vn -0.0913 -0.9722 -0.2155
vn 0.9434 0.3153 -0.1027
vn -0.0530 0.3451 -0.9371
vn -0.0000 1.0000 -0.0000
vn -0.1150 -0.8841 -0.4530
vn 0.7295 -0.1023 -0.6763
vn -0.0000 -0.0000 -1.0000
vn -0.0953 0.7248 -0.6823
vn 0.3521 -0.8288 0.4349
vn 0.9810 -0.0000 0.1940
vn 0.4483 0.6657 0.5965
vn 0.3157 -0.9413 -0.1191
vn 0.9996 -0.0000 0.0280
vn 0.4226 -0.0434 -0.9053
vn 0.4974 0.8604 -0.1110
vt 0.000497 0.166170
vt 0.000497 0.000497
vt 0.166170 0.000497
vt 0.166170 0.166170
vt 0.000497 0.332836
vt 0.000497 0.167164
vt 0.166170 0.167164
vt 0.166170 0.332836
vt 0.332836 0.166170
vt 0.167164 0.166170
vt 0.167164 0.000497
vt 0.332836 0.000497
vt 0.332836 0.332836
vt 0.167164 0.332836
vt 0.167164 0.167164
vt 0.332836 0.167164
vt 0.000497 0.499503
vt 0.000497 0.333830
vt 0.166170 0.333830
vt 0.166170 0.499503
vt 0.167164 0.499503
vt 0.167164 0.333830
vt 0.332836 0.333830
vt 0.332836 0.499503
vt 0.499503 0.166170
vt 0.333830 0.166170
vt 0.333830 0.000497
vt 0.499503 0.000497
vt 0.499503 0.332836
vt 0.333830 0.332836
vt 0.333830 0.167164
vt 0.499503 0.167164
vt 0.499503 0.499503
vt 0.333830 0.499503
vt 0.333830 0.333830
vt 0.499503 0.333830
vt 0.000497 0.666170
vt 0.000497 0.500497
vt 0.166170 0.500497
vt 0.166170 0.666170
vt 0.167164 0.666170
vt 0.167164 0.500497
vt 0.332836 0.500497
vt 0.332836 0.666170
vt 0.333830 0.666170
vt 0.333830 0.500497
vt 0.499503 0.500497
vt 0.499503 0.666170
vt 0.666170 0.166170
vt 0.500497 0.166170
vt 0.500497 0.000497
vt 0.666170 0.000497
vt 0.666170 0.332836
vt 0.500497 0.332836
vt 0.500497 0.167164
vt 0.666170 0.167164
vt 0.666170 0.499503
vt 0.500497 0.499503
vt 0.500497 0.333830
vt 0.666170 0.333830
vt 0.666170 0.666170
vt 0.500497 0.666170
vt 0.500497 0.500497
vt 0.666170 0.500497
vt 0.000497 0.832836
vt 0.000497 0.667164
vt 0.166170 0.667164
vt 0.166170 0.832836
vt 0.167164 0.832836
vt 0.167164 0.667164
vt 0.332836 0.667164
vt 0.332836 0.832836
vt 0.333830 0.832836
vt 0.333830 0.667164
vt 0.499503 0.667164
vt 0.499503 0.832836
vt 0.500497 0.832836
vt 0.500497 0.667164
vt 0.666170 0.667164
vt 0.666170 0.832836
vt 0.832836 0.166170
vt 0.667164 0.166170
vt 0.667164 0.000497
vt 0.832836 0.000497
vt 0.832836 0.332836
vt 0.667164 0.332836
vt 0.667164 0.167164
vt 0.832836 0.167164
vt 0.832836 0.499503
vt 0.667164 0.499503
vt 0.667164 0.333830
vt 0.832836 0.333830
vt 0.832836 0.666170
vt 0.667164 0.666170
vt 0.667164 0.500497
vt 0.832836 0.500497
vt 0.832836 0.832836
vt 0.667164 0.832836
vt 0.667164 0.667164
vt 0.832836 0.667164
vt 0.000497 0.999503
vt 0.000497 0.833830
vt 0.166170 0.833830
vt 0.166170 0.999503
vt 0.167164 0.999503
vt 0.167164 0.833830
vt 0.332836 0.833830
vt 0.332836 0.999503
vt 0.333830 0.999503
vt 0.333830 0.833830
vt 0.499503 0.833830
vt 0.499503 0.999503
vt 0.500497 0.999503
vt 0.500497 0.833830
vt 0.666170 0.833830
vt 0.666170 0.999503
vt 0.667164 0.999503
vt 0.667164 0.833830
vt 0.832836 0.833830
vt 0.832836 0.999503
s 0
f 4/1/1 2/2/1 1/3/1 3/4/1
f 6/5/2 4/6/2 3/7/2 5/8/2
f 8/9/3 6/10/3 5/11/3 7/12/3
f 10/13/4 9/14/4 1/15/4 2/16/4
f 12/17/5 11/18/5 9/19/5 10/20/5
f 9/21/6 13/22/6 3/23/6 1/24/6
f 14/25/7 10/26/7 2/27/7 4/28/7
f 11/29/8 16/30/8 13/31/8 9/32/8
f 12/33/9 17/34/9 16/35/9 11/36/9
f 17/37/10 12/38/10 10/39/10 14/40/10
f 18/41/11 17/42/11 14/43/11 15/44/11
f 20/45/12 19/46/12 16/47/12 17/48/12
f 13/49/13 21/50/13 5/51/13 3/52/13
f 22/53/14 14/54/14 4/55/14 6/56/14
f 23/57/15 15/58/15 14/59/15 22/60/15
f 16/61/16 24/62/16 21/63/16 13/64/16
f 25/65/17 26/66/17 23/67/17 22/68/17
f 18/69/18 26/70/18 25/71/18 17/72/18
f 26/73/19 18/74/19 15/75/19 23/76/19
f 19/77/20 27/78/20 24/79/20 16/80/20
f 27/81/21 28/82/21 25/83/21 24/84/21
f 20/85/22 28/86/22 27/87/22 19/88/22
f 28/89/23 20/90/23 17/91/23 25/92/23
f 21/93/24 29/94/24 7/95/24 5/96/24
f 29/97/25 30/98/25 8/99/25 7/100/25
f 30/101/26 22/102/26 6/103/26 8/104/26
f 24/105/27 31/106/27 29/107/27 21/108/27
f 31/109/28 32/110/28 30/111/28 29/112/28
f 25/113/29 32/114/29 31/115/29 24/116/29
f 32/117/30 25/118/30 22/119/30 30/120/30
