# Blender 4.3.2
# www.blender.org
mtllib Mountain.017.mtl
o Mountain.017
v -22.257359 -7.430477 7.881790
v -22.257359 -3.004283 7.881790
v -22.257359 -7.430477 1.650840
v -22.257359 -3.004283 1.650840
v -5.460560 -6.973041 25.423288
v -5.460560 -2.127934 25.423288
v 0.607133 -6.973041 25.423288
v 0.607133 -2.127934 25.423288
v -11.595577 -10.926384 14.143348
v -10.773301 3.899891 13.683855
v -3.154039 17.344357 6.553918
v -11.514843 -12.027680 -5.113602
v -13.669670 4.195673 -5.113602
v -4.093587 18.456743 -5.561292
v -5.326033 -8.808536 -19.501865
v -5.722582 5.296610 -19.664377
v -3.237486 17.261707 -16.890823
v 7.563442 -9.393515 12.173057
v 7.202059 3.449952 12.041956
v 0.865012 17.344357 6.553918
v 8.298903 -14.764737 -5.561292
v 11.620670 7.177856 -5.561292
v 1.921684 18.456743 -5.561292
v 8.298903 -10.453819 -20.862400
v 7.657468 4.562870 -20.720303
v 0.763834 17.261707 -16.890823
v 18.257767 -4.875695 4.597962
v 18.257767 -3.904162 4.597962
v 19.207150 -7.504189 -5.561292
v 19.207150 -2.521144 -5.561292
v 19.350349 -8.064817 -18.488199
v 19.350349 -2.392290 -18.488199
vn -1.0000 -0.0000 -0.0000
vn -0.0000 -0.0000 1.0000
vn -0.8926 0.0478 0.4482
vn -0.4829 0.0415 0.8747
vn -0.3526 -0.9350 0.0393
vn -0.5670 -0.0592 -0.8216
vn -0.5709 0.8176 0.0757
vn -0.8267 0.5480 0.1275
vn -0.8912 -0.0774 -0.4469
vn -0.8584 0.4208 -0.2935
vn 0.0784 -0.9642 0.2532
vn 0.8900 0.0216 0.4554
vn 0.0457 0.9060 0.4209
vn 0.0762 0.4149 0.9067
vn -0.0198 -0.9849 0.1719
vn 0.7950 0.5582 0.2374
vn -0.0000 0.9958 0.0914
vn -0.1395 -0.9525 -0.2707
vn -0.0895 -0.0039 -0.9960
vn 0.7815 0.5782 -0.2343
vn -0.0482 0.2503 -0.9670
vn -0.0000 0.9945 -0.1049
vn 0.5701 0.0227 0.8213
vn 0.5313 -0.8053 0.2630
vn 0.9957 -0.0000 0.0930
vn 0.7062 0.6594 0.2579
vn 0.4102 -0.9043 -0.1181
vn 0.9999 -0.0000 0.0111
vn 0.2010 0.0130 -0.9795
vn 0.6560 0.7387 -0.1546
vt 0.000497 0.166170
vt 0.000497 0.000497
vt 0.166170 0.000497
vt 0.166170 0.166170
vt 0.000497 0.332836
vt 0.000497 0.167164
vt 0.166170 0.167164
vt 0.166170 0.332836
vt 0.332836 0.166170
vt 0.167164 0.166170
vt 0.167164 0.000497
vt 0.332836 0.000497
vt 0.332836 0.332836
vt 0.167164 0.332836
vt 0.167164 0.167164
vt 0.332836 0.167164
vt 0.000497 0.499503
vt 0.000497 0.333830
vt 0.166170 0.333830
vt 0.166170 0.499503
vt 0.167164 0.499503
vt 0.167164 0.333830
vt 0.332836 0.333830
vt 0.332836 0.499503
vt 0.499503 0.166170
vt 0.333830 0.166170
vt 0.333830 0.000497
vt 0.499503 0.000497
vt 0.499503 0.332836
vt 0.333830 0.332836
vt 0.333830 0.167164
vt 0.499503 0.167164
vt 0.499503 0.499503
vt 0.333830 0.499503
vt 0.333830 0.333830
vt 0.499503 0.333830
vt 0.000497 0.666170
vt 0.000497 0.500497
vt 0.166170 0.500497
vt 0.166170 0.666170
vt 0.167164 0.666170
vt 0.167164 0.500497
vt 0.332836 0.500497
vt 0.332836 0.666170
vt 0.333830 0.666170
vt 0.333830 0.500497
vt 0.499503 0.500497
vt 0.499503 0.666170
vt 0.666170 0.166170
vt 0.500497 0.166170
vt 0.500497 0.000497
vt 0.666170 0.000497
vt 0.666170 0.332836
vt 0.500497 0.332836
vt 0.500497 0.167164
vt 0.666170 0.167164
vt 0.666170 0.499503
vt 0.500497 0.499503
vt 0.500497 0.333830
vt 0.666170 0.333830
vt 0.666170 0.666170
vt 0.500497 0.666170
vt 0.500497 0.500497
vt 0.666170 0.500497
vt 0.000497 0.832836
vt 0.000497 0.667164
vt 0.166170 0.667164
vt 0.166170 0.832836
vt 0.167164 0.832836
vt 0.167164 0.667164
vt 0.332836 0.667164
vt 0.332836 0.832836
vt 0.333830 0.832836
vt 0.333830 0.667164
vt 0.499503 0.667164
vt 0.499503 0.832836
vt 0.500497 0.832836
vt 0.500497 0.667164
vt 0.666170 0.667164
vt 0.666170 0.832836
vt 0.832836 0.166170
vt 0.667164 0.166170
vt 0.667164 0.000497
vt 0.832836 0.000497
vt 0.832836 0.332836
vt 0.667164 0.332836
vt 0.667164 0.167164
vt 0.832836 0.167164
vt 0.832836 0.499503
vt 0.667164 0.499503
vt 0.667164 0.333830
vt 0.832836 0.333830
vt 0.832836 0.666170
vt 0.667164 0.666170
vt 0.667164 0.500497
vt 0.832836 0.500497
vt 0.832836 0.832836
vt 0.667164 0.832836
vt 0.667164 0.667164
vt 0.832836 0.667164
vt 0.000497 0.999503
vt 0.000497 0.833830
vt 0.166170 0.833830
vt 0.166170 0.999503
vt 0.167164 0.999503
vt 0.167164 0.833830
vt 0.332836 0.833830
vt 0.332836 0.999503
vt 0.333830 0.999503
vt 0.333830 0.833830
vt 0.499503 0.833830
vt 0.499503 0.999503
vt 0.500497 0.999503
vt 0.500497 0.833830
vt 0.666170 0.833830
vt 0.666170 0.999503
vt 0.667164 0.999503
vt 0.667164 0.833830
vt 0.832836 0.833830
vt 0.832836 0.999503
s 0
f 4/1/1 3/2/1 1/3/1 2/4/1
f 8/5/2 6/6/2 5/7/2 7/8/2
f 10/9/3 9/10/3 5/11/3 6/12/3
f 10/13/4 2/14/4 1/15/4 9/16/4
f 3/17/5 12/18/5 9/19/5 1/20/5
f 4/21/6 13/22/6 12/23/6 3/24/6
f 13/25/7 4/26/7 2/27/7 10/28/7
f 14/29/8 13/30/8 10/31/8 11/32/8
f 16/33/9 15/34/9 12/35/9 13/36/9
f 17/37/10 16/38/10 13/39/10 14/40/10
f 9/41/11 18/42/11 7/43/11 5/44/11
f 18/45/12 19/46/12 8/47/12 7/48/12
f 19/49/13 10/50/13 6/51/13 8/52/13
f 20/53/14 11/54/14 10/55/14 19/56/14
f 12/57/15 21/58/15 18/59/15 9/60/15
f 22/61/16 23/62/16 20/63/16 19/64/16
f 23/65/17 14/66/17 11/67/17 20/68/17
f 15/69/18 24/70/18 21/71/18 12/72/18
f 16/73/19 25/74/19 24/75/19 15/76/19
f 25/77/20 26/78/20 23/79/20 22/80/20
f 17/81/21 26/82/21 25/83/21 16/84/21
f 26/85/22 17/86/22 14/87/22 23/88/22
f 28/89/23 19/90/23 18/91/23 27/92/23
f 21/93/24 29/94/24 27/95/24 18/96/24
f 29/97/25 30/98/25 28/99/25 27/100/25
f 30/101/26 22/102/26 19/103/26 28/104/26
f 24/105/27 31/106/27 29/107/27 21/108/27
f 31/109/28 32/110/28 30/111/28 29/112/28
f 25/113/29 32/114/29 31/115/29 24/116/29
f 32/117/30 25/118/30 22/119/30 30/120/30
