# Blender 4.3.2
# www.blender.org
mtllib Mountain.026.mtl
o Mountain.026
v -15.302765 7.461815 9.935501
v -21.393768 21.336098 11.965851
v -21.393768 45.023476 18.056854
v -21.393768 68.710884 18.056854
v -21.393768 92.398262 18.056854
v -15.302765 116.085670 18.056854
v -9.211761 139.773041 11.965851
v -9.211761 163.460449 5.874847
v -9.211761 190.193329 5.874847
v -33.575760 1.370819 -12.398529
v -33.575760 21.336098 -6.307526
v -33.575760 -4.720184 -30.671539
v -33.575760 21.336098 -30.671539
v -15.302765 4.416321 -12.398529
v -21.393768 21.336098 -6.307526
v -14.964081 1.370819 -30.671539
v -14.964081 21.336098 -33.717041
v -33.575760 45.023476 -12.398529
v -33.575760 68.372200 -18.489532
v -33.575760 45.023476 -30.671539
v -33.575760 68.372200 -30.671539
v -21.393768 45.023476 -12.398529
v -21.393768 68.372200 -18.489532
v -14.964081 45.023476 -36.762543
v -21.393768 68.372200 -38.792862
v -21.393768 92.398262 -12.060211
v -18.348267 116.085670 -12.060211
v -21.393768 92.398262 -42.853546
v -21.393768 116.085670 -42.853546
v -15.302765 139.773041 -12.060211
v -15.302765 153.646973 -18.489532
v -21.393768 139.773041 -36.762543
v -21.393768 153.646973 -30.671539
v -15.302765 190.193329 -18.489532
v 2.970612 7.461815 8.920349
v 2.970612 19.643822 11.965851
v 27.334625 19.643822 11.965851
v 2.970612 45.023476 18.056854
v 2.970612 68.710884 18.056854
v 27.334625 45.023476 18.056854
v 27.334625 68.710884 18.056854
v 2.970612 92.398262 18.056854
v 7.031281 104.918587 18.056854
v 27.334625 92.398262 18.056854
v 27.334625 104.918587 18.056854
v 9.061615 139.773041 11.965851
v 11.091934 161.091705 5.874847
v 9.061615 190.193329 5.874847
v 2.970612 7.461815 -12.060211
v 7.031281 19.643822 -6.307526
v 2.970612 7.461815 -30.671539
v 9.061615 21.336098 -36.762543
v 27.334625 19.643822 -6.307526
v 15.152618 45.023476 -6.307526
v 15.152618 68.710884 -6.307526
v 15.152618 45.023476 -42.853546
v 15.152618 68.710884 -42.853546
v 27.334625 45.023476 -6.307526
v 27.334625 68.710884 -6.307526
v 15.152618 92.398262 -6.307526
v 11.091965 104.918587 -6.307526
v 15.152618 92.398262 -42.853546
v 9.061615 116.085670 -42.853546
v 27.334625 92.398262 -6.307526
v 27.334625 104.918587 -6.307526
v 9.061615 139.773041 -12.060211
v 11.091934 153.646973 -18.489532
v 2.970612 139.773041 -36.762543
v 2.970612 153.646973 -30.671539
v 9.061615 190.193329 -18.489532
vn -1.0000 -0.0000 -0.0000
vn 0.0309 -0.3089 0.9506
vn -0.0707 -0.0659 -0.9953
vn 0.2335 -0.9428 0.2379
vn -0.0000 0.2524 0.9676
vn -0.4171 -0.0967 -0.9037
vn -0.0000 1.0000 -0.0000
vn -0.0000 0.2490 0.9685
vn -0.2379 -0.0623 -0.9693
vn -0.9967 0.0641 0.0493
vn -0.9495 0.0038 0.3136
vn -0.9858 0.0425 0.1623
vn -0.0000 -0.0000 1.0000
vn -0.0000 -0.2334 0.9724
vn 0.9316 -0.3626 0.0260
vn 1.0000 -0.0000 -0.0000
vn -0.0000 -0.0000 -1.0000
vn 0.9610 -0.2756 0.0222
vn 0.9628 0.2699 0.0145
vn 0.9307 -0.0725 -0.3586
vn 0.9849 0.1372 -0.1056
vn 0.0159 -0.1876 0.9821
vn -0.0084 -0.2409 0.9705
vn 0.0160 0.2606 0.9653
vn 0.0540 0.1962 0.9791
vn -0.0331 -0.2550 -0.9664
vn 0.2431 -0.9665 0.0820
vn -0.1499 -0.0631 -0.9867
vn -0.1641 -0.1664 -0.9723
vn -0.0000 0.4020 -0.9156
vn -0.0000 0.2490 -0.9685
vn -0.9270 -0.3741 0.0281
vn 0.9748 -0.1989 0.1008
vn -0.0000 -1.0000 -0.0000
vn -0.9807 0.1891 0.0496
vn -0.9705 0.0763 0.2288
vn -0.9647 0.2070 0.1628
vn -0.9701 -0.0000 0.2425
vn 0.9939 -0.1087 0.0167
vn 0.9964 0.0142 0.0836
vn 0.9980 0.0617 -0.0094
vn -0.0549 -0.0847 -0.9949
vn 0.0841 -0.9940 0.0699
vt 0.826255 0.925233
vt 0.801336 0.843304
vt 0.901011 0.843186
vt 0.901011 0.950148
vt 0.976056 0.925149
vt 0.901011 0.912814
vt 0.926045 0.843273
vt 0.976056 0.843161
vt 0.701319 0.543133
vt 0.778462 0.543069
vt 0.777504 0.625152
vt 0.701319 0.650101
vt 0.653214 0.842842
vt 0.656770 0.919932
vt 0.577581 0.918566
vt 0.577180 0.842674
vt 0.826255 0.746037
vt 0.851173 0.650160
vt 0.901011 0.650101
vt 0.901011 0.745948
vt 0.975654 0.745936
vt 0.925643 0.746048
vt 0.925244 0.650212
vt 0.975256 0.650101
vt 0.701319 0.350038
vt 0.753740 0.349752
vt 0.779420 0.445705
vt 0.701319 0.445890
vt 0.409336 0.850830
vt 0.409336 0.934184
vt 0.359323 0.900843
vt 0.359323 0.850830
vt 0.125302 0.402069
vt 0.124257 0.304655
vt 0.251280 0.304682
vt 0.251280 0.401920
vt 0.123211 0.207242
vt 0.149514 0.150258
vt 0.201442 0.150550
vt 0.226361 0.207474
vt 0.601295 0.595971
vt 0.501273 0.596023
vt 0.501222 0.498775
vt 0.601244 0.498723
vt 0.601166 0.700187
vt 0.501144 0.700239
vt 0.601193 0.401476
vt 0.501171 0.401528
vt 0.501144 0.350126
vt 0.584496 0.350083
vt 0.300384 0.750520
vt 0.275807 0.692647
vt 0.400699 0.700110
vt 0.376784 0.750653
vt 0.251280 0.594513
vt 0.251399 0.497330
vt 0.401421 0.497591
vt 0.401302 0.594774
vt 0.937709 0.148642
vt 0.987574 0.148642
vt 0.987647 0.245885
vt 0.937781 0.245885
vt 0.987725 0.350075
vt 0.904615 0.350075
vt 0.251518 0.400147
vt 0.251280 0.303870
vt 0.401365 0.349645
vt 0.401540 0.400408
vt 0.920976 -0.000000
vt 0.987463 -0.000000
vt 0.987502 0.051399
vt 0.937636 0.051399
vt 0.276045 0.207638
vt 0.301119 0.150760
vt 0.351602 0.149638
vt 0.377806 0.206907
vt 0.676150 0.750168
vt 0.601101 0.750210
vt 0.701187 0.693188
vt 0.701319 0.595919
vt 0.701268 0.498672
vt 0.701217 0.401424
vt 0.676161 0.304190
vt 0.650920 0.206977
vt 0.575902 0.207016
vt 0.567337 0.119519
vt 0.650685 0.109751
vt 0.575609 0.000039
vt 0.650628 0.000000
vt 0.877766 0.543021
vt 0.850917 0.600202
vt 0.501144 0.917161
vt 0.501144 0.841124
vt 0.904615 0.348312
vt 0.904615 0.445555
vt 0.755017 0.153714
vt 0.879683 0.153807
vt 0.904615 0.251069
vt 0.755017 0.250957
vt 0.751185 0.000000
vt 0.850917 0.000074
vt 0.852834 0.056788
vt 0.753101 0.056714
vt 0.158004 0.762885
vt 0.208016 0.796227
vt 0.208016 0.896254
vt 0.158004 0.871248
vt 0.251280 0.750803
vt 0.351012 0.750878
vt 0.359323 0.900916
vt 0.251280 0.900835
vt 0.033225 0.750492
vt 0.027009 0.693898
vt 0.101767 0.693810
vt 0.124595 0.762885
vt 0.002090 0.596690
vt 0.002090 0.499452
vt 0.151605 0.500666
vt 0.126686 0.596543
vt 0.475473 0.700845
vt 0.462910 0.750803
vt 0.158004 0.862959
vt 0.083354 0.845401
vt 0.083354 0.762885
vt 0.158003 0.763940
vt 0.701319 0.895835
vt 0.701319 0.798652
vt 0.801336 0.798703
vt 0.801336 0.895887
vt 0.701319 0.999961
vt 0.776332 1.000000
vt 0.002090 0.402215
vt -0.000000 0.304625
vt 0.022828 0.207007
vt 0.047747 0.109740
vt 0.047747 0.000000
vt 0.149514 0.000233
vt 0.701319 0.701468
vt 0.701319 0.650101
vt 0.801336 0.650152
vt 0.801336 0.701520
vt 0.083354 0.762886
vt 0.083354 0.862912
vt 0.016671 0.862912
vt 0.000000 0.762886
vt 0.451656 0.119268
vt 0.476434 0.207079
vt 0.501144 0.350424
vt 0.351667 -0.000000
vt 0.451684 0.000174
vt 0.234667 0.500567
vt 0.575402 0.750210
vt 0.501144 0.755407
vt 0.359323 0.750803
vt 0.459350 0.750803
vt 0.459350 0.850830
vt 0.359323 0.825824
s 0
f 10/1/1 11/2/1 13/3/1 12/4/1
f 10/5/2 14/6/2 15/7/2 11/8/2
f 13/9/3 17/10/3 16/11/3 12/12/3
f 10/13/4 12/14/4 16/15/4 14/16/4
f 18/17/1 19/18/1 21/19/1 20/20/1
f 18/21/5 22/22/5 23/23/5 19/24/5
f 21/25/6 25/26/6 24/27/6 20/28/6
f 23/29/7 25/30/7 21/31/7 19/32/7
f 11/2/1 18/17/1 20/20/1 13/3/1
f 11/8/8 15/7/8 22/22/8 18/21/8
f 20/28/9 24/27/9 17/10/9 13/9/9
f 26/33/10 27/34/10 29/35/10 28/36/10
f 30/37/11 31/38/11 33/39/11 32/40/11
f 27/34/12 30/37/12 32/40/12 29/35/12
f 38/41/13 40/42/13 41/43/13 39/44/13
f 36/45/14 37/46/14 40/42/14 38/41/14
f 42/47/13 44/48/13 45/49/13 43/50/13
f 51/51/15 52/52/15 50/53/15 49/54/15
f 56/55/16 57/56/16 55/57/16 54/58/16
f 55/59/17 59/60/17 58/61/17 54/62/17
f 52/52/18 56/55/18 54/58/18 50/53/18
f 54/62/17 58/61/17 53/63/17 50/64/17
f 62/65/19 63/66/19 61/67/19 60/68/19
f 61/69/17 65/70/17 64/71/17 60/72/17
f 68/73/20 69/74/20 67/75/20 66/76/20
f 63/66/21 68/73/21 66/76/21 61/67/21
f 1/77/22 35/78/22 36/45/22 2/79/22
f 3/80/13 38/41/13 39/44/13 4/81/13
f 2/79/23 36/45/23 38/41/23 3/80/23
f 5/82/13 42/47/13 43/50/13 6/83/13
f 7/84/24 46/85/24 47/86/24 8/87/24
f 6/83/25 43/50/25 46/85/25 7/84/25
f 8/87/13 47/86/13 48/88/13 9/89/13
f 17/10/26 52/90/26 51/91/26 16/11/26
f 14/16/27 16/15/27 51/92/27 49/93/27
f 25/26/28 57/94/28 56/95/28 24/27/28
f 24/27/29 56/95/29 52/90/29 17/10/29
f 29/96/17 63/97/17 62/98/17 28/99/17
f 33/100/30 69/101/30 68/102/30 32/103/30
f 67/104/7 69/105/7 33/106/7 31/107/7
f 32/103/31 68/102/31 63/97/31 29/96/31
f 34/108/17 70/109/17 67/110/17 31/111/17
f 1/112/32 2/113/32 15/114/32 14/115/32
f 3/116/1 4/117/1 23/118/1 22/119/1
f 2/113/1 3/116/1 22/119/1 15/114/1
f 49/54/33 50/53/33 36/120/33 35/121/33
f 36/122/34 50/123/34 53/124/34 37/125/34
f 58/126/16 59/127/16 41/128/16 40/129/16
f 53/130/16 58/126/16 40/129/16 37/131/16
f 5/132/35 6/133/35 27/34/35 26/33/35
f 7/134/36 8/135/36 31/38/36 30/37/36
f 6/133/37 7/134/37 30/37/37 27/34/37
f 8/135/38 9/136/38 34/137/38 31/38/38
f 64/138/16 65/139/16 45/140/16 44/141/16
f 45/142/7 65/143/7 61/144/7 43/145/7
f 66/76/39 67/75/39 47/146/39 46/147/39
f 61/67/40 66/76/40 46/147/40 43/148/40
f 67/75/41 70/149/41 48/150/41 47/146/41
f 23/118/1 26/33/1 28/36/1 25/151/1
f 39/44/13 41/43/13 44/48/13 42/47/13
f 57/56/16 62/65/16 60/68/16 55/57/16
f 60/72/17 64/71/17 59/60/17 55/59/17
f 4/117/1 5/132/1 26/33/1 23/118/1
f 59/127/16 64/138/16 44/141/16 41/128/16
f 4/81/13 39/44/13 42/47/13 5/82/13
f 28/99/42 62/98/42 57/94/42 25/26/42
f 1/152/43 14/16/43 49/93/43 35/153/43
f 48/154/7 70/155/7 34/156/7 9/157/7
