# Blender 4.3.2
# www.blender.org
mtllib Mountain.030.mtl
o Mountain.030
v -28.744682 -8.064498 30.301384
v -28.744682 0.584574 30.301384
v -28.744682 -8.064498 8.438904
v -28.744682 0.584574 13.003754
v -6.882202 -8.064498 30.301384
v -6.882202 3.707787 28.139183
v -6.882202 -8.064498 8.438904
v -28.744682 20.525040 25.976974
v -28.744682 37.342297 21.652565
v -28.744682 20.525040 13.003754
v -28.744682 35.660572 13.003754
v -6.882202 20.525040 23.814774
v -6.882202 37.342297 21.652565
v -28.744682 61.126541 21.652565
v -28.744682 61.126541 13.003754
v -28.744682 70.976807 13.003754
v -11.447052 61.126541 21.652565
v -11.447052 61.126541 13.003754
v -11.447052 69.295082 13.003754
v -24.420273 87.794060 13.003754
v -20.095863 104.611313 13.003754
v -6.882202 87.794060 13.003754
v -6.882202 104.611313 13.003754
v -20.095863 121.428574 13.003754
v -20.095863 138.245819 13.003754
v -6.882202 121.428574 13.003754
v -6.882202 138.245819 13.003754
v -20.095863 155.063080 8.679344
v -20.095863 171.880341 4.354935
v -6.882202 155.063080 8.679344
v -6.882202 171.880341 4.354935
v -20.095863 188.697586 4.354935
v -20.095863 205.514847 4.354935
v -6.882202 188.697586 4.354935
v -6.882202 205.514847 4.354935
v -20.095863 216.806244 4.354935
v -11.447052 216.806244 4.354935
v -11.447052 234.104126 4.354935
v -28.744682 -8.064498 -12.942947
v -25.861748 0.584574 -12.942947
v -20.095863 0.584574 -21.591766
v -11.447052 -8.064498 -12.942947
v -11.447052 0.584574 -12.942947
v -11.447052 -8.064498 -21.591766
v -11.447052 0.584574 -21.591766
v -24.420273 20.525040 -8.378357
v -25.861748 43.828911 -12.942947
v -20.095863 20.525040 -21.591766
v -20.095863 43.828911 -21.591766
v -11.447052 43.828911 -12.942947
v -6.882202 20.525040 -21.591766
v -11.447052 43.828911 -21.591766
v -28.744682 54.159554 -12.942947
v -28.744682 70.976807 -12.942947
v -11.447052 54.159554 -12.942947
v -11.447052 69.775352 -12.942947
v -11.447052 54.159554 -21.591766
v -11.447052 69.775352 -21.591766
v -24.420273 87.794060 -12.942947
v -20.095863 104.611313 -12.942947
v -6.882202 87.794060 -12.942947
v -6.882202 104.611313 -12.942947
v -20.095863 121.428574 -8.618546
v -20.095863 138.245819 -4.294128
v -6.882202 121.428574 -10.780746
v -6.882202 138.245819 -8.618546
v -20.095863 155.063080 -4.294128
v -20.095863 171.880341 -4.294128
v -6.882202 155.063080 -6.456345
v -6.882202 171.880341 -4.294128
v -20.095863 188.697586 -4.294128
v -20.095863 205.514847 -4.294128
v -6.882202 188.697586 -4.294128
v -6.882202 205.514847 -4.294128
v -20.095863 216.806244 -4.294128
v -11.447052 216.806244 -4.294128
v -11.447052 234.104126 -4.294128
v 9.935059 -8.064498 25.976974
v 9.935059 3.707787 23.814774
v 9.935059 -8.064498 8.438904
v 23.148468 -8.064498 21.652565
v 23.148468 3.707787 21.652565
v 23.148468 -8.064498 4.354935
v 23.148468 3.707787 4.354935
v 14.499649 26.531021 21.652565
v 10.175247 37.342297 21.652565
v 14.499649 26.531021 13.003754
v 10.175247 37.342297 13.003754
v 23.148468 26.531021 21.652565
v 27.472870 26.531021 8.679344
v 31.797287 37.342297 13.003754
v 40.446350 -8.064498 4.354935
v 40.446350 3.707787 4.354935
v 40.446350 26.531021 4.354935
v 5.850830 61.126541 21.652565
v 5.850830 61.126541 13.003754
v 9.935059 70.976807 10.841553
v 31.797287 54.159554 13.003754
v 27.472870 70.976807 8.679344
v 14.499649 87.073242 10.120811
v 14.499649 104.611313 13.003754
v 23.148468 87.073242 4.354935
v 14.499649 121.428574 13.003754
v 14.499649 138.245819 13.003754
v 14.499649 155.063080 8.679344
v 10.175247 171.880341 4.354935
v 5.850830 188.697586 4.354935
v 5.850830 205.514847 4.354935
v 5.850830 222.332108 4.354935
v 5.850830 234.104126 4.354935
v 9.935059 -8.064498 -8.378357
v 9.935059 -8.064498 -25.916168
v 9.935059 3.707787 -23.753967
v 26.752304 -8.064498 -8.378357
v 31.797287 9.233389 -12.942947
v 26.752304 -8.064498 -25.916168
v 31.797287 9.233389 -24.474716
v 9.935059 20.525040 -21.591766
v 9.935059 37.342297 -21.591766
v 31.797287 26.531021 -12.942947
v 29.635071 37.342297 -8.378357
v 31.797287 20.525040 -21.591766
v 27.472870 37.342297 -21.591766
v 40.446350 -8.064498 -8.378357
v 40.446350 9.233389 -12.942947
v 40.446350 -8.064498 -21.591766
v 40.446350 9.233389 -21.591766
v 40.446350 26.531021 -12.942947
v 14.499649 61.126541 -12.942947
v 14.499649 69.775352 -12.942947
v 14.499649 61.126541 -21.591766
v 14.499649 69.775352 -21.591766
v 28.914337 61.126541 -12.942947
v 27.472870 70.976807 -12.942947
v 23.148468 61.126541 -21.591766
v 14.499649 87.073242 -12.942947
v 14.499649 104.611313 -12.942947
v 23.148468 87.073242 -12.942947
v 14.499649 121.428574 -12.942947
v 14.499649 138.245819 -12.942947
v 14.499649 155.063080 -8.618546
v 10.175247 171.880341 -4.294128
v 5.850830 188.697586 -4.294128
v 5.850830 205.514847 -4.294128
v 5.850830 222.332108 -4.294128
v 5.850830 234.104126 -4.294128
vn -1.0000 -0.0000 -0.0000
vn 0.0416 0.1052 0.9936
vn -0.0000 -1.0000 -0.0000
vn 0.0485 0.1891 0.9808
vn 0.0797 0.2283 0.9703
vn -0.0000 -0.0000 1.0000
vn -0.0000 1.0000 -0.0000
vn -0.0000 0.2490 0.9685
vn -0.0000 -0.0000 -1.0000
vn -0.9058 -0.0690 -0.4181
vn -0.9050 0.0805 -0.4177
vn -0.2343 0.1841 -0.9546
vn -0.0814 0.0639 -0.9946
vn -0.2379 0.0623 -0.9693
vn 1.0000 -0.0000 -0.0000
vn 0.2374 0.0888 0.9673
vn 0.9285 0.3714 -0.0000
vn 0.1217 -0.1947 0.9733
vn 0.9843 -0.1066 0.1406
vn 0.0984 0.0373 0.9945
vn 0.1406 -0.1066 0.9843
vn 0.0860 0.2362 0.9679
vn 0.2866 0.1462 0.9468
vn 0.9839 0.1789 -0.0000
vn -0.0369 0.1292 -0.9909
vn 0.9541 0.2510 -0.1633
vn 0.3070 -0.0051 -0.9517
vn -0.0385 0.1765 -0.9835
vn 0.9380 0.0668 -0.3402
vn 0.2452 0.1751 0.9535
vn 0.0428 0.0846 0.9955
vn 0.1437 0.1437 0.9791
vn 0.0508 0.1076 0.9929
vn 0.0656 -0.0834 0.9943
vn 0.1174 -0.0103 0.9930
vn -0.1566 0.1040 -0.9822
vn -0.0618 0.0663 -0.9959
vn -0.1497 0.0634 -0.9867
vn -0.0552 0.1822 -0.9817
vn -0.1473 0.1873 -0.9712
vn -0.9819 0.1794 -0.0598
vn -0.9856 -0.0559 -0.1597
vn -0.9872 0.0529 -0.1503
vn -0.9685 0.2490 -0.0000
vn -0.9951 -0.0801 -0.0571
vn 0.9916 -0.1196 0.0499
vn 0.9780 0.2067 -0.0290
vn 0.9658 0.2595 -0.0000
vn 0.9944 0.0058 -0.1051
vn 0.9685 0.2490 -0.0000
vn -0.0801 0.1888 -0.9788
vn -0.0504 0.0641 -0.9967
vt 0.219342 0.838164
vt 0.219298 0.805958
vt 0.283638 0.805958
vt 0.300661 0.838164
vt 0.824939 0.807273
vt 0.743603 0.807273
vt 0.743333 0.763026
vt 0.825032 0.775111
vt 0.630294 0.290374
vt 0.711729 0.290374
vt 0.711729 0.371809
vt 0.630294 0.371809
vt 0.235282 0.731706
vt 0.251282 0.669085
vt 0.283461 0.675347
vt 0.283537 0.731706
vt 0.824454 0.700020
vt 0.742722 0.699549
vt 0.742506 0.636543
vt 0.823842 0.636543
vt 0.219298 0.629323
vt 0.155605 0.638519
vt 0.151352 0.608444
vt 0.214169 0.593056
vt 0.855719 0.195298
vt 0.887934 0.195298
vt 0.887934 0.259729
vt 0.855719 0.259729
vt 0.189488 0.533436
vt 0.124910 0.542760
vt 0.116153 0.480841
vt 0.164808 0.473816
vt 0.251161 0.580521
vt 0.283332 0.580521
vt 0.759745 0.548101
vt 0.824098 0.548101
vt 0.156051 0.411898
vt 0.107396 0.418922
vt 0.098638 0.357004
vt 0.147293 0.349979
vt 0.137618 0.287240
vt 0.088963 0.294265
vt 0.079287 0.231526
vt 0.127942 0.224501
vt 0.119185 0.162583
vt 0.070530 0.169607
vt 0.061773 0.107689
vt 0.110427 0.100664
vt 0.072701 0.063688
vt 0.104548 0.059091
vt 0.380378 0.870370
vt 0.380378 0.838164
vt 0.412548 0.838208
vt 0.412548 0.870414
vt 0.807436 0.860945
vt 0.807436 0.807273
vt 0.839627 0.807309
vt 0.839627 0.871715
vt 0.251514 0.838164
vt 0.283729 0.859641
vt 0.283729 0.891857
vt 0.251514 0.891857
vt 0.363927 0.731295
vt 0.380502 0.644656
vt 0.413814 0.644107
vt 0.413932 0.730883
vt 0.630294 0.096713
vt 0.662497 0.096678
vt 0.679494 0.183393
vt 0.630294 0.183448
vt 0.219298 0.838164
vt 0.251514 0.870380
vt 0.219298 0.891857
vt 0.380721 0.805683
vt 0.414033 0.805134
vt 0.662497 0.257629
vt 0.630294 0.257665
vt 0.662510 0.865421
vt 0.662510 0.807273
vt 0.694680 0.807317
vt 0.694680 0.865464
vt 0.422378 0.594600
vt 0.485623 0.607548
vt 0.477874 0.665150
vt 0.414033 0.656633
vt 0.470990 0.474791
vt 0.519758 0.481297
vt 0.511412 0.543331
vt 0.446684 0.534696
vt 0.662510 0.903888
vt 0.694680 0.903932
vt 0.472747 0.703256
vt 0.419546 0.696159
vt 0.486963 0.349332
vt 0.536090 0.356534
vt 0.527924 0.418916
vt 0.478976 0.412062
vt 0.503654 0.225265
vt 0.552422 0.231771
vt 0.544256 0.294153
vt 0.495308 0.287299
vt 0.520345 0.101198
vt 0.569113 0.107704
vt 0.560767 0.169738
vt 0.511999 0.163232
vt 0.525948 0.059548
vt 0.557868 0.063806
vt 0.547997 0.831905
vt 0.547997 0.788156
vt 0.612416 0.788073
vt 0.612416 0.831822
vt 0.680245 0.806330
vt 0.630294 0.805387
vt 0.630421 0.761612
vt 0.679975 0.762084
vt 0.646402 0.434451
vt 0.711729 0.434451
vt 0.726941 0.483669
vt 0.662510 0.483669
vt 0.855831 0.130757
vt 0.855719 0.089483
vt 0.887929 0.089592
vt 0.888041 0.130865
vt 0.078080 0.779689
vt 0.029392 0.785766
vt 0.008757 0.749079
vt 0.088373 0.737584
vt 0.759111 0.807273
vt 0.775219 0.855596
vt 0.726896 0.839488
vt 0.726896 0.807273
vt 0.160985 0.914223
vt 0.096631 0.914409
vt 0.096631 0.870634
vt 0.160985 0.870448
vt 0.564406 0.704413
vt 0.612416 0.703256
vt 0.630666 0.676744
vt 0.662842 0.676744
vt 0.096631 0.785766
vt 0.145691 0.786567
vt 0.091911 0.647715
vt 0.000000 0.687160
vt 0.006248 0.622123
vt 0.071284 0.613209
vt 0.012870 0.559739
vt 0.045941 0.556234
vt 0.855831 0.000000
vt 0.888041 0.000109
vt 0.742336 0.246237
vt 0.823813 0.225688
vt 0.805178 0.290304
vt 0.742561 0.290374
vt 0.774371 0.434451
vt 0.839697 0.434451
vt 0.839697 0.497093
vt 0.774371 0.497093
vt 0.422578 0.957523
vt 0.418977 0.894033
vt 0.468297 0.891957
vt 0.453586 0.933522
vt 0.742112 0.120732
vt 0.807413 0.120659
vt 0.823515 0.183234
vt 0.742112 0.183324
vt 0.000000 0.914456
vt 0.000000 0.850172
vt 0.032210 0.850131
vt 0.049209 0.914392
vt 0.855719 0.225224
vt 0.855719 0.289605
vt 0.823590 0.548101
vt 0.774371 0.548101
vt 0.348162 0.838164
vt 0.348162 0.870380
vt 0.315945 0.881118
vt 0.315945 0.838164
vt 0.414033 1.000000
vt 0.456919 0.997718
vt 0.547996 0.831941
vt 0.580201 0.831905
vt 0.580201 0.896285
vt 0.547996 0.896321
vt 0.871839 0.871302
vt 0.839697 0.871260
vt 0.839697 0.839050
vt 0.871839 0.839092
vt 0.581385 0.620323
vt 0.629862 0.622279
vt 0.630294 0.659323
vt 0.577093 0.652226
vt 0.283729 0.838164
vt 0.315945 0.859641
vt 0.315945 0.891857
vt 0.283729 0.891857
vt 0.589969 0.556517
vt 0.621890 0.560775
vt 0.414033 0.804686
vt 0.446678 0.804411
vt 0.759108 0.032190
vt 0.791311 0.032154
vt 0.679047 0.636543
vt 0.855719 0.130865
vt 0.887934 0.130865
vt 0.037421 0.492208
vt 0.695390 0.548101
vt 0.028664 0.430289
vt 0.019907 0.368371
vt 0.010231 0.305632
vt 0.016478 0.240594
vt 0.023645 0.176377
vt 0.014887 0.114458
vt 0.006130 0.052539
vt 0.000000 0.009196
vt 0.063694 0.000000
vt 0.662497 0.289820
vt 0.791374 0.354805
vt 0.823590 0.354805
vt 0.662497 0.000107
vt 0.759108 0.000000
vt 0.662497 0.058228
vt 0.630294 0.807273
vt 0.662510 0.807273
vt 0.662510 0.903921
vt 0.630294 0.903921
vt 0.598672 0.491824
vt 0.615363 0.367758
vt 0.607018 0.429791
vt 0.615376 0.240169
vt 0.623350 0.305028
vt 0.616107 0.113973
vt 0.607762 0.176007
vt 0.566452 0.000000
vt 0.630294 0.008517
vt 0.624452 0.051940
vt 0.380193 0.838164
vt 0.791374 0.290374
vt 0.283282 0.543842
vt 0.379793 0.543842
vt 0.379878 0.606463
vt 0.284053 0.480808
vt 0.284824 0.417775
vt 0.381336 0.417775
vt 0.380564 0.480808
vt 0.096631 0.870583
vt 0.096631 0.914331
vt 0.547997 0.888264
vt 0.533637 0.928166
vt 0.032210 0.785848
vt 0.096631 0.785766
vt 0.726941 0.548101
vt 0.209309 0.801874
vt 0.209309 0.866306
vt 0.177093 0.866306
vt 0.160985 0.785766
vt 0.444660 0.767495
vt 0.525072 0.763216
vt 0.544756 0.825851
vt 0.839697 0.839050
vt 0.839697 0.773874
vt 0.936328 0.773750
vt 0.925592 0.838940
vt 0.726896 0.828750
vt 0.726896 0.893182
vt 0.694680 0.893182
vt 0.694680 0.807273
vt 0.441197 0.706679
vt 0.505527 0.703256
vt 0.284739 0.355153
vt 0.284654 0.292532
vt 0.348995 0.292532
vt 0.365166 0.355153
vt 0.300654 0.229910
vt 0.316654 0.167288
vt 0.348825 0.167288
vt 0.348910 0.229910
vt 0.316569 0.104667
vt 0.316483 0.042045
vt 0.348655 0.042045
vt 0.348740 0.104667
vt 0.580201 0.896316
vt 0.580201 0.831905
vt 0.612372 0.831949
vt 0.612372 0.896360
vt 0.380378 0.838164
vt 0.380378 0.870381
vt 0.348162 0.870381
vt 0.348162 0.838164
vt 0.316426 -0.000000
vt 0.348597 -0.000000
vt 0.839697 0.711377
vt 0.839697 0.648880
vt 0.936328 0.648756
vt 0.936328 0.711253
vt 0.855802 0.586362
vt 0.871603 0.522749
vt 0.903814 0.522708
vt 0.920223 0.586279
vt 0.871299 0.459157
vt 0.871299 0.396660
vt 0.903509 0.396619
vt 0.903509 0.459116
vt 0.871299 0.334163
vt 0.871299 0.290415
vt 0.903509 0.290374
vt 0.903509 0.334122
vt 0.775219 0.807273
vt 0.807436 0.807273
vt 0.807436 0.871705
vt 0.775219 0.871705
s 0
f 1/1/1 2/2/1 4/3/1 3/4/1
f 1/5/2 5/6/2 6/7/2 2/8/2
f 1/9/3 3/10/3 7/11/3 5/12/3
f 8/13/1 9/14/1 11/15/1 10/16/1
f 8/17/4 12/18/4 13/19/4 9/20/4
f 2/2/1 8/13/1 10/16/1 4/3/1
f 2/8/5 6/7/5 12/18/5 8/17/5
f 15/21/6 18/22/6 19/23/6 16/24/6
f 17/25/7 18/26/7 15/27/7 14/28/7
f 20/29/6 22/30/6 23/31/6 21/32/6
f 16/24/6 19/23/6 22/30/6 20/29/6
f 9/14/1 14/33/1 15/34/1 11/15/1
f 9/20/6 13/19/6 17/35/6 14/36/6
f 24/37/6 26/38/6 27/39/6 25/40/6
f 28/41/8 30/42/8 31/43/8 29/44/8
f 25/40/8 27/39/8 30/42/8 28/41/8
f 32/45/6 34/46/6 35/47/6 33/48/6
f 33/48/6 35/47/6 37/49/6 36/50/6
f 29/44/6 31/43/6 34/46/6 32/45/6
f 42/51/1 43/52/1 45/53/1 44/54/1
f 40/55/9 43/56/9 42/57/9 39/58/9
f 40/59/3 41/60/3 45/61/3 43/62/3
f 46/63/10 47/64/10 49/65/10 48/66/10
f 49/67/9 52/68/9 51/69/9 48/70/9
f 50/71/7 52/59/7 49/72/7 47/73/7
f 40/74/11 46/63/11 48/66/11 41/75/11
f 48/70/9 51/69/9 45/76/9 41/77/9
f 55/78/1 56/79/1 58/80/1 57/81/1
f 54/82/9 56/83/9 55/84/9 53/85/9
f 60/86/9 62/87/9 61/88/9 59/89/9
f 59/89/9 61/88/9 56/83/9 54/82/9
f 50/90/1 55/78/1 57/81/1 52/91/1
f 53/85/9 55/84/9 50/92/9 47/93/9
f 64/94/12 66/95/12 65/96/12 63/97/12
f 68/98/13 70/99/13 69/100/13 67/101/13
f 67/101/14 69/100/14 66/95/14 64/94/14
f 72/102/9 74/103/9 73/104/9 71/105/9
f 75/106/9 76/107/9 74/103/9 72/102/9
f 71/105/9 73/104/9 70/99/9 68/98/9
f 83/108/15 84/109/15 82/110/15 81/111/15
f 78/112/16 81/113/16 82/114/16 79/115/16
f 78/116/3 80/117/3 83/118/3 81/119/3
f 87/120/17 88/121/17 86/122/17 85/123/17
f 87/124/18 90/125/18 91/126/18 88/127/18
f 89/128/7 90/129/7 87/130/7 85/131/7
f 83/132/6 92/133/6 93/134/6 84/135/6
f 84/109/19 90/136/19 89/137/19 82/110/19
f 79/115/20 82/114/20 89/138/20 85/139/20
f 84/135/21 93/134/21 94/140/21 90/141/21
f 96/142/22 98/143/22 99/144/22 97/145/22
f 97/145/23 99/144/23 102/146/23 100/147/23
f 88/121/24 96/148/24 95/149/24 86/122/24
f 88/127/6 91/126/6 98/143/6 96/142/6
f 113/150/25 117/151/25 116/152/25 112/153/25
f 111/154/3 112/155/3 116/156/3 114/157/3
f 122/158/26 123/159/26 121/160/26 120/161/26
f 119/162/9 123/163/9 122/164/9 118/165/9
f 126/166/15 127/167/15 125/168/15 124/169/15
f 117/151/27 127/170/27 126/171/27 116/152/27
f 114/157/3 116/156/3 126/172/3 124/173/3
f 125/174/7 127/175/7 117/176/7 115/177/7
f 117/178/15 122/158/15 120/161/15 115/179/15
f 118/165/28 122/164/28 117/151/28 113/150/28
f 120/180/9 128/181/9 125/182/9 115/183/9
f 131/184/15 132/185/15 130/186/15 129/187/15
f 130/188/9 134/189/9 133/190/9 129/191/9
f 133/192/7 135/193/7 131/194/7 129/195/7
f 136/196/9 138/197/9 134/189/9 130/188/9
f 123/159/29 135/198/29 133/199/29 121/160/29
f 131/200/9 135/201/9 123/163/9 119/162/9
f 5/6/30 78/112/30 79/115/30 6/7/30
f 5/12/3 7/11/3 80/117/3 78/116/3
f 12/18/31 85/139/31 86/202/31 13/19/31
f 6/7/32 79/115/32 85/139/32 12/18/32
f 18/22/33 96/142/33 97/145/33 19/23/33
f 95/203/7 96/204/7 18/26/7 17/25/7
f 22/30/34 100/147/34 101/205/34 23/31/34
f 19/23/35 97/145/35 100/147/35 22/30/35
f 13/19/6 86/202/6 95/206/6 17/35/6
f 26/38/6 103/207/6 104/208/6 27/39/6
f 30/42/8 105/209/8 106/210/8 31/43/8
f 27/39/8 104/208/8 105/209/8 30/42/8
f 34/46/6 107/211/6 108/212/6 35/47/6
f 37/49/6 109/213/6 110/214/6 38/215/6
f 35/47/6 108/212/6 109/213/6 37/49/6
f 31/43/6 106/210/6 107/211/6 34/46/6
f 45/76/36 113/150/36 112/153/36 44/216/36
f 42/217/3 44/218/3 112/155/3 111/154/3
f 52/68/9 119/162/9 118/165/9 51/69/9
f 51/69/37 118/165/37 113/150/37 45/76/37
f 58/219/9 132/220/9 131/200/9 57/221/9
f 130/222/7 132/223/7 58/224/7 56/225/7
f 62/87/9 137/226/9 136/196/9 61/88/9
f 61/88/9 136/196/9 130/188/9 56/83/9
f 57/221/9 131/200/9 119/162/9 52/68/9
f 66/95/38 140/227/38 139/228/38 65/96/38
f 70/99/39 142/229/39 141/230/39 69/100/39
f 69/100/40 141/230/40 140/227/40 66/95/40
f 74/103/9 144/231/9 143/232/9 73/104/9
f 77/233/9 146/234/9 145/235/9 76/107/9
f 76/107/9 145/235/9 144/231/9 74/103/9
f 73/104/9 143/232/9 142/229/9 70/99/9
f 3/4/41 4/3/41 40/74/41 39/236/41
f 3/10/3 39/237/3 42/217/3 7/11/3
f 10/16/42 11/15/42 47/64/42 46/63/42
f 4/3/43 10/16/43 46/63/43 40/74/43
f 15/34/1 16/238/1 54/239/1 53/240/1
f 20/241/44 21/242/44 60/243/44 59/244/44
f 16/238/44 20/241/44 59/244/44 54/239/44
f 11/15/45 15/34/45 53/240/45 47/64/45
f 80/117/3 111/154/3 114/157/3 83/118/3
f 124/169/15 125/168/15 93/245/15 92/246/15
f 120/161/46 121/160/46 91/247/46 90/248/46
f 125/168/15 128/249/15 94/250/15 93/245/15
f 83/118/3 114/157/3 124/173/3 92/251/3
f 94/252/7 128/253/7 120/254/7 90/255/7
f 133/199/47 134/256/47 99/257/47 98/258/47
f 136/259/15 137/260/15 101/261/15 100/262/15
f 102/263/7 138/264/7 136/265/7 100/266/7
f 134/256/48 138/267/48 102/268/48 99/257/48
f 121/160/49 133/199/49 98/258/49 91/247/49
f 24/269/1 25/270/1 64/271/1 63/272/1
f 28/273/1 29/274/1 68/275/1 67/276/1
f 25/270/1 28/273/1 67/276/1 64/271/1
f 32/277/1 33/278/1 72/279/1 71/280/1
f 37/281/1 38/282/1 77/283/1 76/284/1
f 37/285/7 76/286/7 75/287/7 36/288/7
f 33/278/1 36/289/1 75/290/1 72/279/1
f 29/274/1 32/277/1 71/280/1 68/275/1
f 139/291/15 140/292/15 104/293/15 103/294/15
f 141/295/50 142/296/50 106/297/50 105/298/50
f 140/292/15 141/295/15 105/298/15 104/293/15
f 143/299/15 144/300/15 108/301/15 107/302/15
f 145/303/15 146/304/15 110/305/15 109/306/15
f 144/300/15 145/303/15 109/306/15 108/301/15
f 142/296/50 143/299/50 107/302/50 106/297/50
f 21/32/6 23/31/6 26/38/6 24/37/6
f 63/97/51 65/96/51 62/87/51 60/86/51
f 21/242/1 24/269/1 63/272/1 60/243/1
f 137/260/15 139/291/15 103/294/15 101/261/15
f 23/31/6 101/205/6 103/207/6 26/38/6
f 65/96/52 139/228/52 137/226/52 62/87/52
f 7/11/3 42/217/3 111/154/3 80/117/3
f 110/307/7 146/308/7 77/309/7 38/310/7
