# Blender 4.3.2
# www.blender.org
mtllib Mountain.026.mtl
o Mountain.026
v -22.888363 -75.731682 21.283304
v -24.121166 -62.274395 22.157452
v -21.752327 -42.876392 20.559494
v -19.729912 -32.840336 19.152691
v -24.869024 -78.150833 9.346021
v -29.415400 -62.274395 9.346021
v -26.288465 -42.876392 9.346021
v -22.387371 -25.215961 9.519027
v -21.948978 -4.080392 4.058030
v -21.411388 15.317604 2.787905
v -21.001011 34.715599 2.008697
v -20.590633 54.113605 1.269210
v -9.895176 -77.584076 22.338669
v -9.895176 -62.274395 24.716818
v -9.895176 -42.876392 21.594860
v -9.895176 -32.299435 19.216707
v -9.895176 -84.623367 9.346021
v -9.895176 -22.600435 16.213701
v -9.895176 -4.080392 11.942588
v -9.895176 15.317604 9.691073
v -9.895176 34.715599 8.088680
v -9.895176 54.113605 6.537431
v -20.180269 73.511604 0.574092
v -19.848108 89.212364 0.041255
v -9.895176 73.511604 5.052241
v -11.798024 94.570869 2.841640
v -8.958101 112.307602 2.397415
v -5.174354 131.705612 1.140957
v -1.555607 144.508209 0.175708
v 9.502829 -76.183121 21.099272
v 9.913683 -62.659069 21.443966
v 3.001585 -42.876392 20.080385
v 0.149742 -32.343834 19.166265
v 9.502829 -83.591858 9.346021
v 16.653597 -56.449516 18.105505
v 12.700587 -42.876392 16.651520
v 7.770568 -24.918056 15.153030
v 9.502829 -4.080392 10.145716
v 10.822669 14.422536 5.423904
v 7.340148 34.715599 5.727003
v 6.196037 54.113605 4.915242
v 20.155132 -73.863747 19.630777
v 20.155132 -69.381523 19.630777
v 27.533010 -76.708687 7.722303
v 29.036909 -63.140339 9.139666
v 27.152136 -42.876392 6.952522
v 25.684357 -23.478395 5.103858
v 22.355631 -4.080392 2.261157
v 19.579098 7.359818 0.070936
v 38.876400 -73.004318 0.173824
v 38.876400 -69.831161 0.173824
v 5.188689 73.511604 4.125169
v 4.249349 92.909615 3.344619
v 3.135592 112.307602 2.397415
v 1.701042 131.705612 1.140957
v 0.545919 144.508209 0.175708
v -23.333103 -76.451698 -5.749519
v -24.888411 -62.274395 -8.007045
v -24.130314 -42.876392 -6.783244
v -22.983879 -23.478395 -5.167180
v -21.948978 -4.080392 -3.792255
v -21.411388 15.317604 -2.916472
v -21.001011 34.715599 -2.272853
v -20.590633 54.113605 -1.673391
v -10.932625 -79.954704 -11.350103
v -16.750292 -62.274395 -17.706045
v -14.936820 -42.876392 -16.482244
v -9.481848 -22.146194 -15.681883
v -9.895176 -4.080392 -12.196276
v -9.895176 15.317604 -9.965834
v -9.895176 34.715599 -8.433455
v -9.895176 54.113605 -6.992788
v -5.158260 -75.889847 -21.964912
v -7.051304 -62.274395 -22.860825
v -5.237818 -42.876392 -22.162865
v -2.740294 -27.724058 -21.034296
v -20.180269 73.511604 -1.109580
v -19.848108 89.212364 -0.674644
v -9.895176 73.511604 -5.583362
v -11.798024 94.570869 -3.423595
v -8.958101 112.307602 -2.918323
v -5.174354 131.705612 -1.722684
v -1.555607 144.508209 -0.859199
v 9.502829 -85.036789 -10.051980
v 9.502829 -17.430305 -18.341312
v 9.502829 -4.080392 -12.865662
v 10.822669 14.422536 -6.366275
v 7.340148 34.715599 -6.513582
v 6.196037 54.113605 -5.672377
v 9.502829 -77.628052 -23.032032
v 9.502829 -62.274395 -25.647520
v 9.502829 -42.876392 -23.818192
v 9.502829 -27.129299 -21.202705
v 29.710011 -77.748344 -9.062284
v 34.733997 -62.928856 -9.062284
v 29.827251 -42.876392 -10.051980
v 24.974867 -23.851723 -11.025302
v 22.355631 -4.080392 -4.461641
v 19.579098 7.359818 -0.975991
v 23.783476 -75.596489 -21.911785
v 24.579391 -62.274395 -22.537674
v 21.876945 -42.876392 -21.406309
v 20.180195 -30.566607 -20.403297
v 38.876400 -73.004318 -1.936486
v 38.876400 -69.831161 -1.936486
v 5.188689 73.511604 -4.826761
v 4.249349 92.909615 -3.950001
v 3.135592 112.307602 -2.918323
v 1.701042 131.705612 -1.722684
v 0.545919 144.508209 -0.859199
vn -0.9361 -0.1932 0.2940
vn -0.9157 0.1452 0.3747
vn -0.8982 0.2093 0.3865
vn -0.1386 -0.1171 0.9834
vn -0.1354 0.1278 0.9825
vn -0.0544 0.1855 0.9811
vn -0.2786 -0.8904 0.3600
vn -0.3136 0.5277 0.7894
vn -0.5157 0.2096 0.8307
vn -0.5296 0.0840 0.8441
vn -0.4969 0.0584 0.8658
vn -0.4610 0.0572 0.8856
vn -0.4207 0.0553 0.9055
vn -0.3817 0.0526 0.9228
vn 0.1162 -0.0950 0.9887
vn 0.1450 0.1378 0.9798
vn 0.0675 0.1626 0.9844
vn 0.0701 -0.8615 0.5030
vn 0.3150 0.1813 0.9316
vn 0.3274 0.1682 0.9298
vn 0.0675 0.3524 0.9334
vn 0.0889 0.2248 0.9703
vn 0.1510 0.1738 0.9731
vn 0.1729 0.0474 0.9838
vn 0.1185 0.0638 0.9909
vn 0.1505 -0.0224 0.9884
vn 0.3159 -0.8307 0.4585
vn 0.8122 -0.1126 0.5725
vn 0.5296 0.2394 0.8138
vn 0.5919 0.1865 0.7841
vn 0.5086 0.1629 0.8454
vn 0.4883 0.1857 0.8527
vn 0.5600 0.2121 0.8009
vn 0.5997 -0.1208 0.7911
vn 0.0814 0.0605 0.9949
vn 0.0176 0.0749 0.9970
vn -0.0156 0.0382 0.9991
vn -0.0000 0.0646 0.9979
vn -0.0000 0.0752 0.9972
vn -0.9592 -0.2090 -0.1902
vn -0.9753 0.1038 -0.1947
vn -0.9897 0.1368 -0.0424
vn -0.9988 0.0393 0.0295
vn -0.9996 0.0277 -0.0000
vn -0.9998 0.0212 -0.0000
vn -0.3677 -0.9147 -0.1679
vn -0.5989 -0.3352 -0.7273
vn -0.7426 0.0911 -0.6635
vn -0.6623 0.1531 -0.7335
vn -0.5950 0.1131 -0.7957
vn -0.5468 0.0743 -0.8340
vn -0.5035 0.0537 -0.8623
vn -0.4653 0.0514 -0.8837
vn -0.6339 -0.3194 -0.7044
vn -0.4857 0.0885 -0.8696
vn -0.5124 0.1589 -0.8439
vn -0.4224 0.0505 -0.9050
vn -0.3785 0.0491 -0.9243
vn -0.5541 0.8324 -0.0000
vn -0.9874 0.1581 -0.0000
vn -0.9815 0.1915 -0.0000
vn -0.9623 0.2720 -0.0000
vn -0.0984 -0.9921 -0.0772
vn -0.1162 0.2710 -0.9555
vn 0.0760 0.2213 -0.9722
vn 0.9856 0.1691 -0.0000
vn 0.1448 0.0472 -0.9883
vn 0.9983 0.0589 -0.0000
vn 0.0966 0.0613 -0.9934
vn -0.1661 -0.8702 -0.4638
vn -0.1285 -0.1276 -0.9835
vn -0.1402 0.0709 -0.9876
vn -0.0697 0.1255 -0.9896
vn -0.1518 0.4152 -0.8969
vn 0.3475 -0.9338 0.0850
vn 0.9569 0.1792 0.2286
vn 0.9845 0.1661 0.0565
vn 0.9876 0.1531 -0.0332
vn 0.5142 0.3286 -0.7922
vn 0.9718 0.2359 -0.0000
vn 0.5801 0.2829 -0.7638
vn 0.6278 0.7784 -0.0000
vn 0.2625 -0.8838 -0.3874
vn 0.8301 -0.1834 -0.5266
vn 0.1495 -0.1152 -0.9820
vn 0.8000 0.1564 -0.5792
vn 0.1964 0.0882 -0.9765
vn 0.8138 0.1706 -0.5555
vn 0.1565 0.1356 -0.9783
vn 0.4171 0.4619 -0.7828
vn 0.3808 -0.9198 0.0945
vn 1.0000 -0.0000 -0.0000
vn 0.7017 -0.1959 -0.6850
vn 0.6962 0.6887 0.2024
vn 0.9987 0.0519 -0.0000
vn 0.0664 0.0596 -0.9960
vn 0.9988 0.0484 -0.0000
vn 0.0114 0.0756 -0.9971
vn 0.9984 0.0573 -0.0000
vn -0.0162 0.0421 -0.9990
vn 0.9973 0.0738 -0.0000
vn -0.0000 0.0615 -0.9981
vn 0.9960 0.0899 -0.0000
vn -0.0000 0.0673 -0.9977
vn -0.0000 1.0000 -0.0000
vt 0.000961 0.089948
vt 0.000961 0.000961
vt 0.089948 0.000961
vt 0.089948 0.089948
vt 0.000961 0.180857
vt 0.000961 0.091870
vt 0.089948 0.091870
vt 0.089948 0.180857
vt 0.180857 0.089948
vt 0.091870 0.089948
vt 0.091870 0.000961
vt 0.180857 0.000961
vt 0.180857 0.180857
vt 0.091870 0.180857
vt 0.091870 0.091870
vt 0.180857 0.091870
vt 0.000961 0.271766
vt 0.000961 0.182779
vt 0.089948 0.182779
vt 0.089948 0.271766
vt 0.091870 0.271766
vt 0.091870 0.182779
vt 0.180857 0.182779
vt 0.180857 0.271766
vt 0.271766 0.089948
vt 0.182779 0.089948
vt 0.182779 0.000961
vt 0.271766 0.000961
vt 0.271766 0.180857
vt 0.182779 0.180857
vt 0.182779 0.091870
vt 0.271766 0.091870
vt 0.271766 0.271766
vt 0.182779 0.271766
vt 0.182779 0.182779
vt 0.271766 0.182779
vt 0.000961 0.362675
vt 0.000961 0.273688
vt 0.089948 0.273688
vt 0.089948 0.362675
vt 0.091870 0.362675
vt 0.091870 0.273688
vt 0.180857 0.273688
vt 0.180857 0.362675
vt 0.182779 0.362675
vt 0.182779 0.273688
vt 0.271766 0.273688
vt 0.271766 0.362675
vt 0.362675 0.089948
vt 0.273688 0.089948
vt 0.273688 0.000961
vt 0.362675 0.000961
vt 0.362675 0.180857
vt 0.273688 0.180857
vt 0.273688 0.091870
vt 0.362675 0.091870
vt 0.362675 0.271766
vt 0.273688 0.271766
vt 0.273688 0.182779
vt 0.362675 0.182779
vt 0.362675 0.362675
vt 0.273688 0.362675
vt 0.273688 0.273688
vt 0.362675 0.273688
vt 0.000961 0.453584
vt 0.000961 0.364597
vt 0.089948 0.364597
vt 0.089948 0.453584
vt 0.091870 0.453584
vt 0.091870 0.364597
vt 0.180857 0.364597
vt 0.180857 0.453584
vt 0.182779 0.453584
vt 0.182779 0.364597
vt 0.271766 0.364597
vt 0.271766 0.453584
vt 0.273688 0.453584
vt 0.273688 0.364597
vt 0.362675 0.364597
vt 0.362675 0.453584
vt 0.453584 0.089948
vt 0.364597 0.089948
vt 0.364597 0.000961
vt 0.453584 0.000961
vt 0.453584 0.180857
vt 0.364597 0.180857
vt 0.364597 0.091870
vt 0.453584 0.091870
vt 0.453584 0.271766
vt 0.364597 0.271766
vt 0.364597 0.182779
vt 0.453584 0.182779
vt 0.453584 0.362675
vt 0.364597 0.362675
vt 0.364597 0.273688
vt 0.453584 0.273688
vt 0.453584 0.453584
vt 0.364597 0.453584
vt 0.364597 0.364597
vt 0.453584 0.364597
vt 0.000961 0.544494
vt 0.000961 0.455507
vt 0.089948 0.455507
vt 0.089948 0.544494
vt 0.091870 0.544494
vt 0.091870 0.455507
vt 0.180857 0.455507
vt 0.180857 0.544494
vt 0.182779 0.544494
vt 0.182779 0.455507
vt 0.271766 0.455507
vt 0.271766 0.544494
vt 0.273688 0.544494
vt 0.273688 0.455507
vt 0.362675 0.455507
vt 0.362675 0.544493
vt 0.364597 0.544493
vt 0.364597 0.455507
vt 0.453584 0.455507
vt 0.453584 0.544493
vt 0.544494 0.089948
vt 0.455507 0.089948
vt 0.455507 0.000961
vt 0.544494 0.000961
vt 0.544494 0.180857
vt 0.455507 0.180857
vt 0.455507 0.091870
vt 0.544494 0.091870
vt 0.544494 0.271766
vt 0.455507 0.271766
vt 0.455507 0.182779
vt 0.544494 0.182779
vt 0.544494 0.362675
vt 0.455507 0.362675
vt 0.455507 0.273688
vt 0.544494 0.273688
vt 0.544494 0.453584
vt 0.455507 0.453584
vt 0.455507 0.364597
vt 0.544494 0.364597
vt 0.544493 0.544494
vt 0.455507 0.544494
vt 0.455507 0.455507
vt 0.544493 0.455507
vt 0.000961 0.635403
vt 0.000961 0.546416
vt 0.089948 0.546416
vt 0.089948 0.635403
vt 0.091870 0.635403
vt 0.091870 0.546416
vt 0.180857 0.546416
vt 0.180857 0.635403
vt 0.182779 0.635403
vt 0.182779 0.546416
vt 0.271766 0.546416
vt 0.271766 0.635403
vt 0.273688 0.635403
vt 0.273688 0.546416
vt 0.362675 0.546416
vt 0.362675 0.635403
vt 0.364597 0.635403
vt 0.364597 0.546416
vt 0.453584 0.546416
vt 0.453584 0.635403
vt 0.455507 0.635403
vt 0.455507 0.546416
vt 0.544493 0.546416
vt 0.544493 0.635403
vt 0.635403 0.089948
vt 0.546416 0.089948
vt 0.546416 0.000961
vt 0.635403 0.000961
vt 0.635403 0.180857
vt 0.546416 0.180857
vt 0.546416 0.091870
vt 0.635403 0.091870
vt 0.635403 0.271766
vt 0.546416 0.271766
vt 0.546416 0.182779
vt 0.635403 0.182779
vt 0.635403 0.362675
vt 0.546416 0.362675
vt 0.546416 0.273688
vt 0.635403 0.273688
vt 0.635403 0.453584
vt 0.546416 0.453584
vt 0.546416 0.364597
vt 0.635403 0.364597
vt 0.635403 0.544494
vt 0.546416 0.544494
vt 0.546416 0.455507
vt 0.635403 0.455507
vt 0.635403 0.635403
vt 0.546416 0.635403
vt 0.546416 0.546416
vt 0.635403 0.546416
vt 0.000961 0.726312
vt 0.000961 0.637325
vt 0.089948 0.637325
vt 0.089948 0.726312
vt 0.091870 0.726312
vt 0.091870 0.637325
vt 0.180857 0.637325
vt 0.180857 0.726312
vt 0.182779 0.726312
vt 0.182779 0.637325
vt 0.271766 0.637325
vt 0.271766 0.726312
vt 0.273688 0.726312
vt 0.273688 0.637325
vt 0.362675 0.637325
vt 0.362675 0.726312
vt 0.364597 0.726312
vt 0.364597 0.637325
vt 0.453584 0.637325
vt 0.453584 0.726312
vt 0.455507 0.726312
vt 0.455507 0.637325
vt 0.544493 0.637325
vt 0.544494 0.726312
vt 0.546416 0.726312
vt 0.546416 0.637325
vt 0.635403 0.637325
vt 0.635403 0.726312
vt 0.726312 0.089948
vt 0.637325 0.089948
vt 0.637325 0.000961
vt 0.726312 0.000961
vt 0.726312 0.180857
vt 0.637325 0.180857
vt 0.637325 0.091870
vt 0.726312 0.091870
vt 0.726312 0.271766
vt 0.637325 0.271766
vt 0.637325 0.182779
vt 0.726312 0.182779
vt 0.726312 0.362675
vt 0.637325 0.362675
vt 0.637325 0.273688
vt 0.726312 0.273688
vt 0.726312 0.453584
vt 0.637325 0.453584
vt 0.637325 0.364597
vt 0.726312 0.364597
vt 0.726312 0.544494
vt 0.637325 0.544494
vt 0.637325 0.455507
vt 0.726312 0.455507
vt 0.726312 0.635403
vt 0.637325 0.635403
vt 0.637325 0.546416
vt 0.726312 0.546416
vt 0.726312 0.726312
vt 0.637325 0.726312
vt 0.637325 0.637325
vt 0.726312 0.637325
vt 0.000961 0.817221
vt 0.000961 0.728234
vt 0.089948 0.728234
vt 0.089948 0.817221
vt 0.091870 0.817221
vt 0.091870 0.728234
vt 0.180857 0.728234
vt 0.180857 0.817221
vt 0.182779 0.817221
vt 0.182779 0.728234
vt 0.271766 0.728234
vt 0.271766 0.817221
vt 0.273688 0.817221
vt 0.273688 0.728234
vt 0.362675 0.728234
vt 0.362675 0.817221
vt 0.364597 0.817221
vt 0.364597 0.728234
vt 0.453584 0.728234
vt 0.453584 0.817221
vt 0.455507 0.817221
vt 0.455507 0.728234
vt 0.544494 0.728234
vt 0.544494 0.817221
vt 0.546416 0.817221
vt 0.546416 0.728234
vt 0.635403 0.728234
vt 0.635403 0.817221
vt 0.637325 0.817221
vt 0.637325 0.728234
vt 0.726312 0.728234
vt 0.726312 0.817221
vt 0.817221 0.089948
vt 0.728234 0.089948
vt 0.728234 0.000961
vt 0.817221 0.000961
vt 0.817221 0.180857
vt 0.728234 0.180857
vt 0.728234 0.091870
vt 0.817221 0.091870
vt 0.817221 0.271766
vt 0.728234 0.271766
vt 0.728234 0.182779
vt 0.817221 0.182779
vt 0.817221 0.362675
vt 0.728234 0.362675
vt 0.728234 0.273688
vt 0.817221 0.273688
vt 0.817221 0.453584
vt 0.728234 0.453584
vt 0.728234 0.364597
vt 0.817221 0.364597
vt 0.817221 0.544494
vt 0.728234 0.544494
vt 0.728234 0.455507
vt 0.817221 0.455507
vt 0.817221 0.635403
vt 0.728234 0.635403
vt 0.728234 0.546416
vt 0.817221 0.546416
vt 0.817221 0.726312
vt 0.728234 0.726312
vt 0.728234 0.637325
vt 0.817221 0.637325
vt 0.817221 0.817221
vt 0.728234 0.817221
vt 0.728234 0.728234
vt 0.817221 0.728234
vt 0.000961 0.908130
vt 0.000961 0.819143
vt 0.089948 0.819143
vt 0.089948 0.908130
vt 0.091870 0.908130
vt 0.091870 0.819143
vt 0.180857 0.819143
vt 0.180857 0.908130
vt 0.182779 0.908130
vt 0.182779 0.819143
vt 0.271766 0.819143
vt 0.271766 0.908130
vt 0.273688 0.908130
vt 0.273688 0.819143
vt 0.362675 0.819143
vt 0.362675 0.908130
vt 0.364597 0.908130
vt 0.364597 0.819143
vt 0.453584 0.819143
vt 0.453584 0.908130
vt 0.455507 0.908130
vt 0.455507 0.819143
vt 0.544494 0.819143
vt 0.544494 0.908130
vt 0.546416 0.908130
vt 0.546416 0.819143
vt 0.635403 0.819143
vt 0.635403 0.908130
vt 0.637325 0.908130
vt 0.637325 0.819143
vt 0.726312 0.819143
vt 0.726312 0.908130
vt 0.728234 0.908130
vt 0.728234 0.819143
vt 0.817221 0.819143
vt 0.817221 0.908130
vt 0.908130 0.089948
vt 0.819143 0.089948
vt 0.819143 0.000961
vt 0.908130 0.000961
vt 0.908130 0.180857
vt 0.819143 0.180857
vt 0.819143 0.091870
vt 0.908130 0.091870
vt 0.908130 0.271766
vt 0.819143 0.271766
vt 0.819143 0.182779
vt 0.908130 0.182779
vt 0.908130 0.362675
vt 0.819143 0.362675
vt 0.819143 0.273688
vt 0.908130 0.273688
vt 0.908130 0.453584
vt 0.819143 0.453584
vt 0.819143 0.364597
vt 0.908130 0.364597
vt 0.908130 0.544494
vt 0.819143 0.544494
vt 0.819143 0.455507
vt 0.908130 0.455507
vt 0.908130 0.635403
vt 0.819143 0.635403
vt 0.819143 0.546416
vt 0.908130 0.546416
vt 0.908130 0.726312
vt 0.819143 0.726312
vt 0.819143 0.637325
vt 0.908130 0.637325
vt 0.908130 0.817221
vt 0.819143 0.817221
vt 0.819143 0.728234
vt 0.908130 0.728234
vt 0.908130 0.908130
vt 0.819143 0.908130
vt 0.819143 0.819143
vt 0.908130 0.819143
vt 0.000961 0.999039
vt 0.000961 0.910052
vt 0.089948 0.910052
vt 0.089948 0.999039
vt 0.091870 0.999039
vt 0.091870 0.910052
vt 0.180857 0.910052
vt 0.180857 0.999039
vt 0.182779 0.999039
vt 0.182779 0.910052
vt 0.271766 0.910052
vt 0.271766 0.999039
vt 0.273688 0.999039
vt 0.273688 0.910052
vt 0.362675 0.910052
vt 0.362675 0.999039
vt 0.364597 0.999039
vt 0.364597 0.910052
vt 0.453584 0.910052
vt 0.453584 0.999039
vt 0.455507 0.999039
vt 0.455507 0.910052
vt 0.544494 0.910052
vt 0.544494 0.999039
vt 0.546416 0.999039
vt 0.546416 0.910052
vt 0.635403 0.910052
vt 0.635403 0.999039
vt 0.637325 0.999039
vt 0.637325 0.910052
vt 0.726312 0.910052
vt 0.726312 0.999039
s 0
f 6/1/1 5/2/1 1/3/1 2/4/1
f 7/5/2 6/6/2 2/7/2 3/8/2
f 8/9/3 7/10/3 3/11/3 4/12/3
f 14/13/4 2/14/4 1/15/4 13/16/4
f 15/17/5 3/18/5 2/19/5 14/20/5
f 16/21/6 4/22/6 3/23/6 15/24/6
f 5/25/7 17/26/7 13/27/7 1/28/7
f 18/29/8 8/30/8 4/31/8 16/32/8
f 19/33/9 9/34/9 8/35/9 18/36/9
f 20/37/10 10/38/10 9/39/10 19/40/10
f 21/41/11 11/42/11 10/43/11 20/44/11
f 22/45/12 12/46/12 11/47/12 21/48/12
f 25/49/13 23/50/13 12/51/13 22/52/13
f 26/53/14 24/54/14 23/55/14 25/56/14
f 31/57/15 14/58/15 13/59/15 30/60/15
f 32/61/16 15/62/16 14/63/16 31/64/16
f 33/65/17 16/66/17 15/67/17 32/68/17
f 17/69/18 34/70/18 30/71/18 13/72/18
f 35/73/19 36/74/19 32/75/19 31/76/19
f 36/77/20 37/78/20 33/79/20 32/80/20
f 37/81/21 18/82/21 16/83/21 33/84/21
f 38/85/22 19/86/22 18/87/22 37/88/22
f 39/89/23 20/90/23 19/91/23 38/92/23
f 40/93/24 21/94/24 20/95/24 39/96/24
f 41/97/25 22/98/25 21/99/25 40/100/25
f 43/101/26 31/102/26 30/103/26 42/104/26
f 34/105/27 44/106/27 42/107/27 30/108/27
f 44/109/28 45/110/28 43/111/28 42/112/28
f 45/113/29 35/114/29 31/115/29 43/116/29
f 46/117/30 36/118/30 35/119/30 45/120/30
f 47/121/31 37/122/31 36/123/31 46/124/31
f 48/125/32 38/126/32 37/127/32 47/128/32
f 49/129/33 39/130/33 38/131/33 48/132/33
f 51/133/34 45/134/34 44/135/34 50/136/34
f 52/137/35 25/138/35 22/139/35 41/140/35
f 53/141/36 26/142/36 25/143/36 52/144/36
f 54/145/37 27/146/37 26/147/37 53/148/37
f 55/149/38 28/150/38 27/151/38 54/152/38
f 56/153/39 29/154/39 28/155/39 55/156/39
f 58/157/40 57/158/40 5/159/40 6/160/40
f 59/161/41 58/162/41 6/163/41 7/164/41
f 60/165/42 59/166/42 7/167/42 8/168/42
f 61/169/43 60/170/43 8/171/43 9/172/43
f 62/173/44 61/174/44 9/175/44 10/176/44
f 63/177/45 62/178/45 10/179/45 11/180/45
f 64/181/45 63/182/45 11/183/45 12/184/45
f 57/185/46 65/186/46 17/187/46 5/188/46
f 58/189/47 66/190/47 65/191/47 57/192/47
f 59/193/48 67/194/48 66/195/48 58/196/48
f 60/197/49 68/198/49 67/199/49 59/200/49
f 61/201/50 69/202/50 68/203/50 60/204/50
f 62/205/51 70/206/51 69/207/51 61/208/51
f 63/209/52 71/210/52 70/211/52 62/212/52
f 64/213/53 72/214/53 71/215/53 63/216/53
f 74/217/54 73/218/54 65/219/54 66/220/54
f 75/221/55 74/222/55 66/223/55 67/224/55
f 76/225/56 75/226/56 67/227/56 68/228/56
f 77/229/45 64/230/45 12/231/45 23/232/45
f 78/233/45 77/234/45 23/235/45 24/236/45
f 77/237/57 79/238/57 72/239/57 64/240/57
f 78/241/58 80/242/58 79/243/58 77/244/58
f 80/245/59 78/246/59 24/247/59 26/248/59
f 81/249/60 80/250/60 26/251/60 27/252/60
f 82/253/61 81/254/61 27/255/61 28/256/61
f 83/257/62 82/258/62 28/259/62 29/260/62
f 65/261/63 84/262/63 34/263/63 17/264/63
f 69/265/64 86/266/64 85/267/64 68/268/64
f 70/269/65 87/270/65 86/271/65 69/272/65
f 87/273/66 88/274/66 40/275/66 39/276/66
f 71/277/67 88/278/67 87/279/67 70/280/67
f 88/281/68 89/282/68 41/283/68 40/284/68
f 72/285/69 89/286/69 88/287/69 71/288/69
f 73/289/70 90/290/70 84/291/70 65/292/70
f 74/293/71 91/294/71 90/295/71 73/296/71
f 75/297/72 92/298/72 91/299/72 74/300/72
f 76/301/73 93/302/73 92/303/73 75/304/73
f 93/305/74 76/306/74 68/307/74 85/308/74
f 84/309/75 94/310/75 44/311/75 34/312/75
f 95/313/76 96/314/76 46/315/76 45/316/76
f 96/317/77 97/318/77 47/319/77 46/320/77
f 97/321/78 98/322/78 48/323/78 47/324/78
f 86/325/79 98/326/79 97/327/79 85/328/79
f 98/329/80 99/330/80 49/331/80 48/332/80
f 87/333/81 99/334/81 98/335/81 86/336/81
f 99/337/82 87/338/82 39/339/82 49/340/82
f 90/341/83 100/342/83 94/343/83 84/344/83
f 100/345/84 101/346/84 95/347/84 94/348/84
f 91/349/85 101/350/85 100/351/85 90/352/85
f 101/353/86 102/354/86 96/355/86 95/356/86
f 92/357/87 102/358/87 101/359/87 91/360/87
f 102/361/88 103/362/88 97/363/88 96/364/88
f 93/365/89 103/366/89 102/367/89 92/368/89
f 103/369/90 93/370/90 85/371/90 97/372/90
f 94/373/91 104/374/91 50/375/91 44/376/91
f 104/377/92 105/378/92 51/379/92 50/380/92
f 95/381/93 105/382/93 104/383/93 94/384/93
f 105/385/94 95/386/94 45/387/94 51/388/94
f 89/389/95 106/390/95 52/391/95 41/392/95
f 79/393/96 106/394/96 89/395/96 72/396/96
f 106/397/97 107/398/97 53/399/97 52/400/97
f 80/401/98 107/402/98 106/403/98 79/404/98
f 107/405/99 108/406/99 54/407/99 53/408/99
f 81/409/100 108/410/100 107/411/100 80/412/100
f 108/413/101 109/414/101 55/415/101 54/416/101
f 82/417/102 109/418/102 108/419/102 81/420/102
f 109/421/103 110/422/103 56/423/103 55/424/103
f 83/425/104 110/426/104 109/427/104 82/428/104
f 110/429/105 83/430/105 29/431/105 56/432/105
