# Blender 4.3.2
# www.blender.org
mtllib Mountain.010.mtl
o Mountain.010
v -31.795889 -48.692760 29.546066
v -31.795889 -44.198273 29.546066
v -31.593115 -48.260189 18.857420
v -32.595932 -37.543846 19.489006
v -32.773315 -17.863207 13.254807
v -31.495363 -5.642056 10.334656
v -30.983479 -46.960964 9.157122
v -33.988506 -37.545681 1.398444
v -36.444782 -17.863207 -0.540584
v -32.688171 -2.104871 -0.540584
v -34.116863 -31.269335 -15.791573
v -34.654289 -17.863207 -18.394627
v -32.744049 -2.607249 -15.560985
v -21.283834 -50.263893 31.150892
v -22.353857 -37.543846 32.928123
v -17.819136 -17.863207 33.435211
v -15.452087 1.534797 31.641678
v -13.375580 20.932793 29.923872
v -12.112170 33.149391 28.944180
v -9.535730 -49.632568 31.026066
v -2.596170 -36.580776 33.711346
v -1.885831 -17.863207 38.229824
v -1.885831 1.534797 38.114311
v -1.885831 20.932793 36.007538
v -3.045052 39.901546 32.382294
v 2.148479 59.728794 31.081453
v 11.971206 -29.661156 30.851454
v 18.067181 -17.080494 32.750397
v 19.388468 2.831355 34.092815
v 16.179264 20.932793 34.640087
v 13.763041 40.330791 33.047928
v 11.402756 59.728794 31.081453
v 27.652948 -10.092690 29.153542
v 27.652948 -2.770267 29.153542
v 5.425304 74.803848 29.513628
v 9.460747 74.803848 29.513628
v -21.283834 -50.387608 18.857420
v -29.533237 -31.266272 26.376053
v -27.518124 -17.863207 22.953808
v -25.845587 1.108289 17.623365
v -20.980030 20.932793 18.857420
v -16.528099 39.901546 20.234138
v -15.151888 59.728794 15.484110
v -21.283834 -47.083923 8.799985
v -21.283834 -43.582291 -0.899017
v -29.976875 7.594123 -0.540584
v -25.097937 20.932793 -0.540584
v -17.391951 41.929848 -2.377898
v -15.151888 59.728794 0.714853
v -14.204174 -48.419235 -26.990316
v -21.656216 -38.242260 -21.390945
v -22.098869 -17.738455 -27.586184
v -22.890717 2.929166 -18.509001
v -17.493486 20.932793 -13.554774
v -13.551891 36.529877 -11.304482
v -14.204174 -48.419235 -31.466446
v -16.992897 -37.261204 -32.087257
v -16.176224 -24.121284 -31.074949
v -9.833992 -49.087620 18.857420
v -0.134975 -41.210155 18.857420
v -10.283888 46.081387 27.617962
v -7.550538 59.728794 25.183111
v -11.299461 -47.124397 8.681804
v -3.654391 -41.718044 1.113251
v -1.885831 45.394176 -7.635236
v -1.885831 59.728794 -2.975754
v -1.885831 -48.344704 -27.061462
v -1.885831 -42.882267 -17.362461
v -10.006070 -11.189281 -28.277189
v -7.288188 1.534797 -26.284307
v -1.335561 20.452559 -21.166384
v -1.885831 35.695171 -11.682570
v -0.723958 -48.884323 -38.494095
v -0.723958 -36.843159 -42.837463
v -2.878368 -17.738455 -36.794849
v 2.410799 1.534797 -35.047688
v 5.497277 13.666407 -32.161213
v 6.516605 -48.321072 -50.070354
v 6.516605 -43.030460 -50.070354
v 18.067181 -31.650505 18.875599
v 24.903208 -23.024693 25.353714
v 27.105301 10.161736 23.934872
v 25.220753 19.086071 18.024296
v 19.794672 40.330791 18.857420
v 15.255719 59.728794 18.857420
v 17.773479 -32.055393 -0.140518
v 24.125725 -17.863207 -5.596802
v 23.388237 1.534797 -3.721535
v 20.457745 19.086071 1.359701
v 12.957215 38.902847 -0.499383
v 11.666149 59.728794 5.467817
v 8.652597 -47.347176 -28.850019
v 16.533136 -36.182465 -21.692894
v 24.435699 -17.135530 -20.576492
v 20.460218 1.534797 -19.938581
v 11.587322 20.452559 -18.514231
v 8.344441 31.484886 -11.098660
v 10.851502 -48.271084 -39.336578
v 20.550520 -40.470863 -39.336578
v 10.809392 -30.098461 -48.371151
v 18.754364 -18.001982 -41.349285
v 14.584154 1.534797 -35.047688
v 10.887027 13.666407 -32.161213
v 11.024862 -48.321072 -50.070354
v 17.383129 -36.668728 -49.860806
v 23.741394 -25.819548 -49.651264
v 28.458893 -29.110775 12.421712
v 29.324024 -17.080494 18.875599
v 28.594881 2.831355 18.024296
v 27.243673 11.388920 11.002869
v 28.458893 -29.110775 6.592199
v 29.520884 -17.863207 4.102201
v 28.609455 1.534797 5.977467
v 27.243673 11.388920 9.092554
v 28.004677 -29.096958 -27.467772
v 28.004677 -23.116417 -27.467772
v 28.372824 -30.771866 -39.336578
v 28.372824 -22.920870 -39.336578
v 27.966530 -30.307003 -49.651264
v 27.966530 -25.819548 -49.651264
v -13.089150 73.952400 12.065143
v -13.089150 73.952400 4.195526
v -0.193954 80.844124 17.925009
v 7.118792 89.213203 10.852888
v -0.362635 79.901764 5.072668
v 7.118792 89.213203 9.068192
v 10.076612 80.412636 17.934292
v 7.916987 89.213203 10.852888
v 9.406805 79.126801 7.773399
v 7.916987 89.213203 9.068192
vn -0.9978 -0.0660 0.0062
vn -0.9818 -0.1888 0.0188
vn -0.9871 -0.0335 0.1568
vn -0.9567 0.1947 0.2165
vn -0.9930 -0.0987 -0.0648
vn -0.9814 0.1843 -0.0546
vn -0.2136 -0.1135 0.9703
vn -0.0121 -0.1679 0.9857
vn -0.1507 -0.1080 0.9827
vn -0.3560 0.0676 0.9320
vn -0.4452 0.1114 0.8885
vn -0.4519 0.1318 0.8823
vn 0.2798 -0.2509 0.9267
vn 0.2262 -0.0380 0.9733
vn 0.1338 0.0526 0.9896
vn 0.0183 0.1364 0.9905
vn -0.0268 0.0849 0.9960
vn 0.4346 -0.0654 0.8982
vn -0.0000 0.1034 0.9946
vn -0.1738 -0.9847 -0.0148
vn -0.7643 0.2765 0.5825
vn -0.6600 0.1946 0.7257
vn -0.9053 0.1646 0.3917
vn -0.7600 0.1951 0.6199
vn -0.8587 0.2054 0.4696
vn -0.8046 0.1495 0.5747
vn -0.8231 0.1439 0.5494
vn -0.1128 -0.9669 -0.2287
vn -0.2821 -0.7938 -0.5388
vn -0.9002 0.3334 0.2801
vn -0.9314 0.2644 0.2502
vn -0.9486 0.2900 0.1265
vn -0.9949 0.0969 0.0282
vn -0.5052 -0.8266 -0.2481
vn -0.5409 -0.2259 -0.8102
vn -0.5112 0.2848 -0.8109
vn -0.7695 0.5852 -0.2557
vn -0.8282 0.3418 -0.4442
vn -0.8255 0.2683 -0.4966
vn -0.8863 -0.3565 -0.2955
vn -0.8132 -0.0798 -0.5765
vn 0.0829 -0.9964 -0.0182
vn 0.7634 -0.6269 0.1559
vn -0.6598 0.1684 0.7323
vn -0.4662 0.2064 0.8602
vn -0.7953 0.2190 0.5653
vn 0.0553 -0.9653 -0.2553
vn 0.5618 -0.8149 -0.1428
vn 0.0887 -0.9007 -0.4254
vn -0.3146 0.2433 -0.9175
vn -0.1850 -0.7308 0.6570
vn -0.0562 -0.9925 -0.1084
vn -0.3305 0.3141 -0.8900
vn -0.3911 0.3522 -0.8503
vn -0.2405 0.3682 -0.8981
vn -0.2175 0.6037 -0.7670
vn -0.0059 -0.9994 0.0335
vn -0.4985 -0.2383 -0.8335
vn -0.5086 0.1638 -0.8453
vn -0.4010 0.3724 -0.8370
vn -0.6461 0.2461 -0.7224
vn -0.6502 0.3616 -0.6682
vn -0.8045 -0.1444 -0.5762
vn 0.4453 -0.8259 0.3458
vn 0.5519 -0.5751 0.6039
vn 0.7940 0.2588 0.5500
vn 0.8879 0.1792 0.4237
vn 0.9211 0.1813 0.3447
vn 0.4357 -0.8998 -0.0229
vn 0.9107 0.2791 -0.3044
vn 0.9348 0.1808 -0.3056
vn 0.5097 0.2660 -0.8182
vn 0.3215 -0.7450 0.5845
vn 0.3919 -0.9114 0.1256
vn 0.9196 -0.3927 0.0131
vn 0.9886 0.1277 -0.0800
vn 0.8974 0.3405 -0.2805
vn 0.8224 0.3650 -0.4364
vn 0.2129 0.5501 -0.8075
vn 0.4445 0.5102 -0.7363
vn 0.0818 -0.9935 0.0789
vn 0.6512 -0.7074 0.2750
vn -0.3381 0.4162 -0.8441
vn 0.9196 0.2510 -0.3023
vn -0.1291 0.2049 -0.9702
vn 0.8717 0.3935 -0.2922
vn -0.0000 0.2315 -0.9728
vn 0.0678 0.8809 -0.4683
vn 0.0375 -0.9992 -0.0105
vn 0.7542 -0.6202 -0.2157
vn 0.0101 0.0086 -0.9999
vn -0.3534 0.2362 -0.9052
vn -0.2254 0.4179 -0.8801
vn 0.7063 -0.5457 0.4510
vn 0.7329 -0.3306 0.5946
vn 0.9924 0.0303 0.1192
vn 0.8442 0.2309 0.4837
vn 0.9787 0.2032 0.0298
vn 0.2516 -0.9677 0.0128
vn 0.9963 -0.0847 0.0127
vn 0.6918 -0.3912 -0.6069
vn 0.9991 0.0416 0.0047
vn 0.8742 0.0834 -0.4784
vn 0.9896 0.1434 -0.0123
vn 0.8445 0.2706 -0.4622
vn 0.8513 0.4771 -0.2183
vn 0.6363 -0.2337 0.7352
vn 0.6771 -0.6953 0.2411
vn 0.9995 -0.0000 0.0310
vn 0.6072 0.7862 -0.1150
vn 0.6369 -0.7265 -0.2580
vn 0.9992 -0.0000 -0.0394
vn 0.0101 0.0095 -0.9999
vn 0.3580 0.8446 -0.3981
vn -0.9896 0.1435 -0.0000
vn -0.6394 0.3543 0.6824
vn -0.6373 0.3735 0.6741
vn -0.1758 0.3293 -0.9277
vn -0.4399 0.8973 -0.0372
vn -0.7693 0.6381 -0.0322
vn 0.9520 0.2054 0.2271
vn 0.0267 0.8954 0.4444
vn 0.0240 0.6316 0.7749
vn 0.9651 0.1855 -0.1847
vn 0.4253 0.2365 -0.8736
vn 0.9831 0.1676 -0.0732
vn 0.2559 0.1800 -0.9498
vn -0.0000 1.0000 -0.0000
vt 0.001040 0.082293
vt 0.001040 0.001040
vt 0.082293 0.001040
vt 0.082293 0.082293
vt 0.001040 0.165627
vt 0.001040 0.084373
vt 0.082293 0.084373
vt 0.082293 0.165627
vt 0.165627 0.082293
vt 0.084373 0.082293
vt 0.084373 0.001040
vt 0.165627 0.001040
vt 0.165627 0.165627
vt 0.084373 0.165627
vt 0.084373 0.084373
vt 0.165627 0.084373
vt 0.001040 0.248960
vt 0.001040 0.167707
vt 0.082293 0.167707
vt 0.082293 0.248960
vt 0.084373 0.248960
vt 0.084373 0.167707
vt 0.165627 0.167707
vt 0.165627 0.248960
vt 0.248960 0.082293
vt 0.167707 0.082293
vt 0.167707 0.001040
vt 0.248960 0.001040
vt 0.248960 0.165627
vt 0.167707 0.165627
vt 0.167707 0.084373
vt 0.248960 0.084373
vt 0.248960 0.248960
vt 0.167707 0.248960
vt 0.167707 0.167707
vt 0.248960 0.167707
vt 0.001040 0.332293
vt 0.001040 0.251040
vt 0.082293 0.251040
vt 0.082293 0.332293
vt 0.084373 0.332293
vt 0.084373 0.251040
vt 0.165627 0.251040
vt 0.165627 0.332293
vt 0.167707 0.332293
vt 0.167707 0.251040
vt 0.248960 0.251040
vt 0.248960 0.332293
vt 0.332293 0.082293
vt 0.251040 0.082293
vt 0.251040 0.001040
vt 0.332293 0.001040
vt 0.332293 0.165627
vt 0.251040 0.165627
vt 0.251040 0.084373
vt 0.332293 0.084373
vt 0.332293 0.248960
vt 0.251040 0.248960
vt 0.251040 0.167707
vt 0.332293 0.167707
vt 0.332293 0.332293
vt 0.251040 0.332293
vt 0.251040 0.251040
vt 0.332293 0.251040
vt 0.001040 0.415627
vt 0.001040 0.334373
vt 0.082293 0.334373
vt 0.082293 0.415627
vt 0.084373 0.415627
vt 0.084373 0.334373
vt 0.165627 0.334373
vt 0.165627 0.415627
vt 0.167707 0.415627
vt 0.167707 0.334373
vt 0.248960 0.334373
vt 0.248960 0.415627
vt 0.251040 0.415627
vt 0.251040 0.334373
vt 0.332293 0.334373
vt 0.332293 0.415627
vt 0.415627 0.082293
vt 0.334373 0.082293
vt 0.334373 0.001040
vt 0.415627 0.001040
vt 0.415627 0.165627
vt 0.334373 0.165627
vt 0.334373 0.084373
vt 0.415627 0.084373
vt 0.415627 0.248960
vt 0.334373 0.248960
vt 0.334373 0.167707
vt 0.415627 0.167707
vt 0.415627 0.332293
vt 0.334373 0.332293
vt 0.334373 0.251040
vt 0.415627 0.251040
vt 0.415627 0.415627
vt 0.334373 0.415627
vt 0.334373 0.334373
vt 0.415627 0.334373
vt 0.001040 0.498960
vt 0.001040 0.417707
vt 0.082293 0.417707
vt 0.082293 0.498960
vt 0.084373 0.498960
vt 0.084373 0.417707
vt 0.165627 0.417707
vt 0.165627 0.498960
vt 0.167707 0.498960
vt 0.167707 0.417707
vt 0.248960 0.417707
vt 0.248960 0.498960
vt 0.251040 0.498960
vt 0.251040 0.417707
vt 0.332293 0.417707
vt 0.332293 0.498960
vt 0.334373 0.498960
vt 0.334373 0.417707
vt 0.415627 0.417707
vt 0.415627 0.498960
vt 0.498960 0.082293
vt 0.417707 0.082293
vt 0.417707 0.001040
vt 0.498960 0.001040
vt 0.498960 0.165627
vt 0.417707 0.165627
vt 0.417707 0.084373
vt 0.498960 0.084373
vt 0.498960 0.248960
vt 0.417707 0.248960
vt 0.417707 0.167707
vt 0.498960 0.167707
vt 0.498960 0.332293
vt 0.417707 0.332293
vt 0.417707 0.251040
vt 0.498960 0.251040
vt 0.498960 0.415627
vt 0.417707 0.415627
vt 0.417707 0.334373
vt 0.498960 0.334373
vt 0.498960 0.498960
vt 0.417707 0.498960
vt 0.417707 0.417707
vt 0.498960 0.417707
vt 0.001040 0.582293
vt 0.001040 0.501040
vt 0.082293 0.501040
vt 0.082293 0.582293
vt 0.084373 0.582293
vt 0.084373 0.501040
vt 0.165627 0.501040
vt 0.165627 0.582293
vt 0.167707 0.582293
vt 0.167707 0.501040
vt 0.248960 0.501040
vt 0.248960 0.582293
vt 0.251040 0.582293
vt 0.251040 0.501040
vt 0.332293 0.501040
vt 0.332293 0.582293
vt 0.334373 0.582293
vt 0.334373 0.501040
vt 0.415627 0.501040
vt 0.415627 0.582293
vt 0.417707 0.582293
vt 0.417707 0.501040
vt 0.498960 0.501040
vt 0.498960 0.582293
vt 0.582293 0.082293
vt 0.501040 0.082293
vt 0.501040 0.001040
vt 0.582293 0.001040
vt 0.582293 0.165627
vt 0.501040 0.165627
vt 0.501040 0.084373
vt 0.582293 0.084373
vt 0.582293 0.248960
vt 0.501040 0.248960
vt 0.501040 0.167707
vt 0.582293 0.167707
vt 0.582293 0.332293
vt 0.501040 0.332293
vt 0.501040 0.251040
vt 0.582293 0.251040
vt 0.582293 0.415627
vt 0.501040 0.415627
vt 0.501040 0.334373
vt 0.582293 0.334373
vt 0.582293 0.498960
vt 0.501040 0.498960
vt 0.501040 0.417707
vt 0.582293 0.417707
vt 0.582293 0.582293
vt 0.501040 0.582293
vt 0.501040 0.501040
vt 0.582293 0.501040
vt 0.001040 0.665626
vt 0.001040 0.584373
vt 0.082293 0.584373
vt 0.082293 0.665626
vt 0.084373 0.665626
vt 0.084373 0.584373
vt 0.165627 0.584373
vt 0.165627 0.665626
vt 0.167707 0.665626
vt 0.167707 0.584373
vt 0.248960 0.584373
vt 0.248960 0.665626
vt 0.251040 0.665626
vt 0.251040 0.584373
vt 0.332293 0.584373
vt 0.332293 0.665626
vt 0.334373 0.665626
vt 0.334373 0.584373
vt 0.415627 0.584373
vt 0.415627 0.665626
vt 0.417707 0.665626
vt 0.417707 0.584373
vt 0.498960 0.584373
vt 0.498960 0.665626
vt 0.501040 0.665626
vt 0.501040 0.584373
vt 0.582293 0.584373
vt 0.582293 0.665626
vt 0.665626 0.082293
vt 0.584373 0.082293
vt 0.584373 0.001040
vt 0.665626 0.001040
vt 0.665626 0.165627
vt 0.584373 0.165627
vt 0.584373 0.084373
vt 0.665626 0.084373
vt 0.665627 0.248960
vt 0.584373 0.248960
vt 0.584373 0.167707
vt 0.665626 0.167707
vt 0.665627 0.332293
vt 0.584373 0.332293
vt 0.584373 0.251040
vt 0.665627 0.251040
vt 0.665627 0.415627
vt 0.584373 0.415627
vt 0.584373 0.334373
vt 0.665627 0.334373
vt 0.665627 0.498960
vt 0.584373 0.498960
vt 0.584373 0.417707
vt 0.665627 0.417707
vt 0.665627 0.582293
vt 0.584373 0.582293
vt 0.584373 0.501040
vt 0.665627 0.501040
vt 0.665627 0.665626
vt 0.584373 0.665626
vt 0.584373 0.584373
vt 0.665627 0.584373
vt 0.001040 0.748960
vt 0.001040 0.667707
vt 0.082293 0.667707
vt 0.082293 0.748960
vt 0.084373 0.748960
vt 0.084373 0.667707
vt 0.165627 0.667707
vt 0.165627 0.748960
vt 0.167707 0.748960
vt 0.167707 0.667707
vt 0.248960 0.667707
vt 0.248960 0.748960
vt 0.251040 0.748960
vt 0.251040 0.667707
vt 0.332293 0.667707
vt 0.332293 0.748960
vt 0.334373 0.748960
vt 0.334373 0.667707
vt 0.415627 0.667707
vt 0.415627 0.748960
vt 0.417707 0.748960
vt 0.417707 0.667707
vt 0.498960 0.667707
vt 0.498960 0.748960
vt 0.501040 0.748960
vt 0.501040 0.667707
vt 0.582293 0.667707
vt 0.582293 0.748960
vt 0.584373 0.748960
vt 0.584373 0.667707
vt 0.665626 0.667707
vt 0.665626 0.748960
vt 0.748960 0.082293
vt 0.667707 0.082293
vt 0.667707 0.001040
vt 0.748960 0.001040
vt 0.748960 0.165627
vt 0.667707 0.165627
vt 0.667707 0.084373
vt 0.748960 0.084373
vt 0.748960 0.248960
vt 0.667707 0.248960
vt 0.667707 0.167707
vt 0.748960 0.167707
vt 0.748960 0.332293
vt 0.667707 0.332293
vt 0.667707 0.251040
vt 0.748960 0.251040
vt 0.748960 0.415627
vt 0.667707 0.415627
vt 0.667707 0.334373
vt 0.748960 0.334373
vt 0.748960 0.498960
vt 0.667707 0.498960
vt 0.667707 0.417707
vt 0.748960 0.417707
vt 0.748960 0.582293
vt 0.667707 0.582293
vt 0.667707 0.501040
vt 0.748960 0.501040
vt 0.748960 0.665626
vt 0.667707 0.665626
vt 0.667707 0.584373
vt 0.748960 0.584373
vt 0.748960 0.748960
vt 0.667707 0.748960
vt 0.667707 0.667707
vt 0.748960 0.667707
vt 0.001040 0.832293
vt 0.001040 0.751040
vt 0.082293 0.751040
vt 0.082293 0.832293
vt 0.084373 0.832293
vt 0.084373 0.751040
vt 0.165627 0.751040
vt 0.165627 0.832293
vt 0.167707 0.832293
vt 0.167707 0.751040
vt 0.248960 0.751040
vt 0.248960 0.832293
vt 0.251040 0.832293
vt 0.251040 0.751040
vt 0.332293 0.751040
vt 0.332293 0.832293
vt 0.334373 0.832293
vt 0.334373 0.751040
vt 0.415627 0.751040
vt 0.415627 0.832293
vt 0.417707 0.832293
vt 0.417707 0.751040
vt 0.498960 0.751040
vt 0.498960 0.832293
vt 0.501040 0.832293
vt 0.501040 0.751040
vt 0.582293 0.751040
vt 0.582293 0.832293
vt 0.584373 0.832293
vt 0.584373 0.751040
vt 0.665626 0.751040
vt 0.665626 0.832293
vt 0.667707 0.832293
vt 0.667707 0.751040
vt 0.748960 0.751040
vt 0.748960 0.832293
vt 0.832293 0.082293
vt 0.751040 0.082293
vt 0.751040 0.001040
vt 0.832293 0.001040
vt 0.832293 0.165627
vt 0.751040 0.165627
vt 0.751040 0.084373
vt 0.832293 0.084373
vt 0.832293 0.248960
vt 0.751040 0.248960
vt 0.751040 0.167707
vt 0.832293 0.167707
vt 0.832293 0.332293
vt 0.751040 0.332293
vt 0.751040 0.251040
vt 0.832293 0.251040
vt 0.832293 0.415627
vt 0.751040 0.415627
vt 0.751040 0.334373
vt 0.832293 0.334373
vt 0.832293 0.498960
vt 0.751040 0.498960
vt 0.751040 0.417707
vt 0.832293 0.417707
vt 0.832293 0.582293
vt 0.751040 0.582293
vt 0.751040 0.501040
vt 0.832293 0.501040
vt 0.832293 0.665626
vt 0.751040 0.665626
vt 0.751040 0.584373
vt 0.832293 0.584373
vt 0.832293 0.748960
vt 0.751040 0.748960
vt 0.751040 0.667707
vt 0.832293 0.667707
vt 0.832293 0.832293
vt 0.751040 0.832293
vt 0.751040 0.751040
vt 0.832293 0.751040
vt 0.001040 0.915627
vt 0.001040 0.834373
vt 0.082293 0.834373
vt 0.082293 0.915627
vt 0.084373 0.915627
vt 0.084373 0.834373
vt 0.165627 0.834373
vt 0.165627 0.915627
vt 0.167707 0.915627
vt 0.167707 0.834373
vt 0.248960 0.834373
vt 0.248960 0.915627
vt 0.251040 0.915627
vt 0.251040 0.834373
vt 0.332293 0.834373
vt 0.332293 0.915627
vt 0.334373 0.915627
vt 0.334373 0.834373
vt 0.415627 0.834373
vt 0.415627 0.915627
vt 0.417707 0.915627
vt 0.417707 0.834373
vt 0.498960 0.834373
vt 0.498960 0.915627
vt 0.501040 0.915627
vt 0.501040 0.834373
vt 0.582293 0.834373
vt 0.582293 0.915627
vt 0.584373 0.915627
vt 0.584373 0.834373
vt 0.665626 0.834373
vt 0.665626 0.915627
vt 0.667707 0.915627
vt 0.667707 0.834373
vt 0.748960 0.834373
vt 0.748960 0.915627
vt 0.751040 0.915627
vt 0.751040 0.834373
vt 0.832293 0.834373
vt 0.832293 0.915627
vt 0.915627 0.082293
vt 0.834373 0.082293
vt 0.834373 0.001040
vt 0.915627 0.001040
vt 0.915627 0.165627
vt 0.834373 0.165627
vt 0.834373 0.084373
vt 0.915627 0.084373
vt 0.915627 0.248960
vt 0.834373 0.248960
vt 0.834373 0.167707
vt 0.915627 0.167707
vt 0.915627 0.332293
vt 0.834373 0.332293
vt 0.834373 0.251040
vt 0.915627 0.251040
vt 0.915627 0.415627
vt 0.834373 0.415627
vt 0.834373 0.334373
vt 0.915627 0.334373
vt 0.915627 0.498960
vt 0.834373 0.498960
vt 0.834373 0.417707
vt 0.915627 0.417707
vt 0.915627 0.582293
vt 0.834373 0.582293
vt 0.834373 0.501040
vt 0.915627 0.501040
vt 0.915627 0.665626
vt 0.834373 0.665626
vt 0.834373 0.584373
vt 0.915627 0.584373
vt 0.915627 0.748960
vt 0.834373 0.748960
vt 0.834373 0.667707
vt 0.915627 0.667707
vt 0.915627 0.832293
vt 0.834373 0.832293
vt 0.834373 0.751040
vt 0.915627 0.751040
vt 0.915627 0.915627
vt 0.834373 0.915627
vt 0.834373 0.834373
vt 0.915627 0.834373
vt 0.001040 0.998960
vt 0.001040 0.917707
vt 0.082293 0.917707
vt 0.082293 0.998960
vt 0.084373 0.998960
vt 0.084373 0.917707
vt 0.165627 0.917707
vt 0.165627 0.998960
vt 0.167707 0.998960
vt 0.167707 0.917707
vt 0.248960 0.917707
vt 0.248960 0.998960
vt 0.251040 0.998960
vt 0.251040 0.917707
vt 0.332293 0.917707
vt 0.332293 0.998960
vt 0.334373 0.998960
vt 0.334373 0.917707
vt 0.415627 0.917707
vt 0.415627 0.998960
vt 0.417707 0.998960
vt 0.417707 0.917707
vt 0.498960 0.917707
vt 0.498960 0.998960
vt 0.501040 0.998960
vt 0.501040 0.917707
vt 0.582293 0.917707
vt 0.582293 0.998960
s 0
f 4/1/1 3/2/1 1/3/1 2/4/1
f 8/5/2 7/6/2 3/7/2 4/8/2
f 9/9/3 8/10/3 4/11/3 5/12/3
f 10/13/4 9/14/4 5/15/4 6/16/4
f 12/17/5 11/18/5 8/19/5 9/20/5
f 13/21/6 12/22/6 9/23/6 10/24/6
f 15/25/7 2/26/7 1/27/7 14/28/7
f 21/29/8 15/30/8 14/31/8 20/32/8
f 22/33/9 16/34/9 15/35/9 21/36/9
f 23/37/10 17/38/10 16/39/10 22/40/10
f 24/41/11 18/42/11 17/43/11 23/44/11
f 25/45/12 19/46/12 18/47/12 24/48/12
f 28/49/13 22/50/13 21/51/13 27/52/13
f 29/53/14 23/54/14 22/55/14 28/56/14
f 30/57/15 24/58/15 23/59/15 29/60/15
f 31/61/16 25/62/16 24/63/16 30/64/16
f 32/65/17 26/66/17 25/67/17 31/68/17
f 34/69/18 29/70/18 28/71/18 33/72/18
f 36/73/19 35/74/19 26/75/19 32/76/19
f 3/77/20 37/78/20 14/79/20 1/80/20
f 38/81/21 4/82/21 2/83/21 15/84/21
f 39/85/22 38/86/22 15/87/22 16/88/22
f 39/89/23 5/90/23 4/91/23 38/92/23
f 40/93/24 39/94/24 16/95/24 17/96/24
f 40/97/25 6/98/25 5/99/25 39/100/25
f 41/101/26 40/102/26 17/103/26 18/104/26
f 42/105/27 41/106/27 18/107/27 19/108/27
f 7/109/28 44/110/28 37/111/28 3/112/28
f 8/113/29 45/114/29 44/115/29 7/116/29
f 46/117/30 10/118/30 6/119/30 40/120/30
f 47/121/31 46/122/31 40/123/31 41/124/31
f 48/125/32 47/126/32 41/127/32 42/128/32
f 49/129/33 48/130/33 42/131/33 43/132/33
f 11/133/34 51/134/34 45/135/34 8/136/34
f 12/137/35 52/138/35 51/139/35 11/140/35
f 13/141/36 53/142/36 52/143/36 12/144/36
f 53/145/37 13/146/37 10/147/37 46/148/37
f 54/149/38 53/150/38 46/151/38 47/152/38
f 55/153/39 54/154/39 47/155/39 48/156/39
f 57/157/40 56/158/40 50/159/40 51/160/40
f 58/161/41 57/162/41 51/163/41 52/164/41
f 37/165/42 59/166/42 20/167/42 14/168/42
f 59/169/43 60/170/43 21/171/43 20/172/43
f 61/173/44 42/174/44 19/175/44 25/176/44
f 62/177/45 61/178/45 25/179/45 26/180/45
f 62/181/46 43/182/46 42/183/46 61/184/46
f 44/185/47 63/186/47 59/187/47 37/188/47
f 63/189/48 64/190/48 60/191/48 59/192/48
f 45/193/49 64/194/49 63/195/49 44/196/49
f 49/197/50 66/198/50 65/199/50 48/200/50
f 68/201/51 51/202/51 50/203/51 67/204/51
f 51/205/52 68/206/52 64/207/52 45/208/52
f 53/209/53 70/210/53 69/211/53 52/212/53
f 54/213/54 71/214/54 70/215/54 53/216/54
f 55/217/55 72/218/55 71/219/55 54/220/55
f 72/221/56 55/222/56 48/223/56 65/224/56
f 56/225/57 73/226/57 67/227/57 50/228/57
f 57/229/58 74/230/58 73/231/58 56/232/58
f 58/233/59 75/234/59 74/235/59 57/236/59
f 75/237/60 58/238/60 52/239/60 69/240/60
f 76/241/61 75/242/61 69/243/61 70/244/61
f 77/245/62 76/246/62 70/247/62 71/248/62
f 79/249/63 78/250/63 73/251/63 74/252/63
f 60/253/64 80/254/64 27/255/64 21/256/64
f 80/257/65 81/258/65 28/259/65 27/260/65
f 82/261/66 83/262/66 30/263/66 29/264/66
f 83/265/67 84/266/67 31/267/67 30/268/67
f 84/269/68 85/270/68 32/271/68 31/272/68
f 64/273/69 86/274/69 80/275/69 60/276/69
f 89/277/70 90/278/70 84/279/70 83/280/70
f 90/281/71 91/282/71 85/283/71 84/284/71
f 66/285/72 91/286/72 90/287/72 65/288/72
f 93/289/73 68/290/73 67/291/73 92/292/73
f 68/293/74 93/294/74 86/295/74 64/296/74
f 93/297/75 94/298/75 87/299/75 86/300/75
f 94/301/76 95/302/76 88/303/76 87/304/76
f 95/305/77 96/306/77 89/307/77 88/308/77
f 96/309/78 97/310/78 90/311/78 89/312/78
f 72/313/79 97/314/79 96/315/79 71/316/79
f 97/317/80 72/318/80 65/319/80 90/320/80
f 73/321/81 98/322/81 92/323/81 67/324/81
f 98/325/82 99/326/82 93/327/82 92/328/82
f 75/329/83 101/330/83 100/331/83 74/332/83
f 101/333/84 102/334/84 95/335/84 94/336/84
f 76/337/85 102/338/85 101/339/85 75/340/85
f 102/341/86 103/342/86 96/343/86 95/344/86
f 77/345/87 103/346/87 102/347/87 76/348/87
f 103/349/88 77/350/88 71/351/88 96/352/88
f 78/353/89 104/354/89 98/355/89 73/356/89
f 104/357/90 105/358/90 99/359/90 98/360/90
f 79/361/91 105/362/91 104/363/91 78/364/91
f 105/365/92 79/366/92 74/367/92 100/368/92
f 106/369/93 105/370/93 100/371/93 101/372/93
f 108/373/94 81/374/94 80/375/94 107/376/94
f 81/377/95 108/378/95 33/379/95 28/380/95
f 108/381/96 109/382/96 34/383/96 33/384/96
f 109/385/97 82/386/97 29/387/97 34/388/97
f 110/389/98 83/390/98 82/391/98 109/392/98
f 86/393/99 111/394/99 107/395/99 80/396/99
f 111/397/100 112/398/100 108/399/100 107/400/100
f 87/401/101 112/402/101 111/403/101 86/404/101
f 112/405/102 113/406/102 109/407/102 108/408/102
f 88/409/103 113/410/103 112/411/103 87/412/103
f 113/413/104 114/414/104 110/415/104 109/416/104
f 89/417/105 114/418/105 113/419/105 88/420/105
f 114/421/106 89/422/106 83/423/106 110/424/106
f 116/425/107 94/426/107 93/427/107 115/428/107
f 99/429/108 117/430/108 115/431/108 93/432/108
f 117/433/109 118/434/109 116/435/109 115/436/109
f 118/437/110 101/438/110 94/439/110 116/440/110
f 105/441/111 119/442/111 117/443/111 99/444/111
f 119/445/112 120/446/112 118/447/112 117/448/112
f 106/449/113 120/450/113 119/451/113 105/452/113
f 120/453/114 106/454/114 101/455/114 118/456/114
f 122/457/115 49/458/115 43/459/115 121/460/115
f 123/461/116 62/462/116 26/463/116 35/464/116
f 123/465/117 121/466/117 43/467/117 62/468/117
f 122/469/118 125/470/118 66/471/118 49/472/118
f 125/473/119 122/474/119 121/475/119 123/476/119
f 126/477/120 125/478/120 123/479/120 124/480/120
f 85/481/121 127/482/121 36/483/121 32/484/121
f 127/485/122 123/486/122 35/487/122 36/488/122
f 128/489/123 124/490/123 123/491/123 127/492/123
f 91/493/124 129/494/124 127/495/124 85/496/124
f 125/497/125 129/498/125 91/499/125 66/500/125
f 129/501/126 130/502/126 128/503/126 127/504/126
f 126/505/127 130/506/127 129/507/127 125/508/127
f 130/509/128 126/510/128 124/511/128 128/512/128
